{
.appVersion = "1286";
copyright = "Copyright 2012 Google Inc. All Rights Reserved.";
customParameters = (
{
name = vendorID;
value = GOOG;
},
{
name = panose;
value = (
2,
11,
6,
6,
3,
8,
4,
2,
2,
4
);
},
{
name = unicodeRanges;
value = (
80
);
},
{
name = fsType;
value = (
);
},
{
name = glyphOrder;
value = (
.notdef,
.null,
CR,
space,
exclam,
quotedbl,
numbersign,
dollar,
percent,
ampersand,
quotesingle,
parenleft,
parenright,
asterisk,
plus,
comma,
hyphen,
period,
slash,
zero,
one,
two,
three,
four,
five,
six,
seven,
eight,
nine,
colon,
semicolon,
less,
equal,
greater,
question,
at,
braceleft,
bar,
braceright,
asciitilde,
uni200B,
guillemotleft,
uni00AD,
guillemotright,
uni1780,
uni1781,
uni1782,
uni1783,
uni1784,
uni1785,
uni1786,
uni1787,
uni1788,
uni1789,
uni178A,
uni178B,
uni178C,
uni178D,
uni178E,
uni178F,
uni1790,
uni1791,
uni1792,
uni1793,
uni1794,
uni1795,
uni1796,
uni1797,
uni1798,
uni1799,
uni179A,
uni179B,
uni179C,
uni179D,
uni179E,
uni179F,
uni17A0,
uni17A1,
uni17A2,
uni17A3,
uni17A4,
uni17A5,
uni17A6,
uni17A7,
uni17A8,
uni17A9,
uni17AA,
uni17AB,
uni17AC,
uni17AD,
uni17AE,
uni17AF,
uni17B0,
uni17B1,
uni17B2,
uni17B3,
uni17B6,
uni17B7,
uni17B8,
uni17B9,
uni17BA,
uni17BB,
uni17BC,
uni17BD,
uni17BE,
uni17BF,
uni17C0,
uni17C1,
uni17C2,
uni17C3,
uni17C4,
uni17C5,
uni17C6,
uni17C7,
uni17C8,
uni17C9,
uni17CA,
uni17CB,
uni17CC,
uni17CD,
uni17CE,
uni17CF,
uni17D0,
uni17D1,
uni17D2,
uni17D3,
uni17D4,
uni17D5,
uni17D6,
uni17D7,
uni17D8,
uni17D9,
uni17DA,
uni17DB,
uni17E0,
uni17E1,
uni17E2,
uni17E3,
uni17E4,
uni17E5,
uni17E6,
uni17E7,
uni17E8,
uni17E9,
uni17D21780,
uni17D21781,
uni17D21782,
uni17D21783,
uni17D21784,
uni17D21785,
uni17D21786,
uni17D21787,
uni17D21788,
uni17D21789,
uni17D21789.a,
uni17D2178A,
uni17D2178B,
uni17D2178C,
uni17D2178D,
uni17D2178E,
uni17D2178F,
uni17D21790,
uni17D21791,
uni17D21792,
uni17D21793,
uni17D21794,
uni17D21795,
uni17D21796,
uni17D21797,
uni17D21798,
uni17D21799,
uni17D2179A,
uni17D2179B,
uni17D2179C,
uni17D2179F,

glyphs = (
{
glyphname = exclam;
layers = (
{
layerId = "060F58F1-3EA2-4F98-A18F-48F5C294967E";
paths = (
{
closed = 1;
nodes = (
"513 1462 LINE",
"81 1462 LINE",
"132 516 LINE",
"462 516 LINE",
"462 516 LINE"
);
},
{
closed = 1;
nodes = (
"85 66 OFFCURVE",
"210 -25 OFFCURVE",
"296 -25 QCURVE SMOOTH",
"380 -25 OFFCURVE",
"503 66 OFFCURVE",
"503 166 QCURVE SMOOTH",
"503 272 OFFCURVE",
"380 358 OFFCURVE",
"296 358 QCURVE SMOOTH",
"210 358 OFFCURVE",
"85 272 OFFCURVE",
"85 166 QCURVE",
"85 166 LINE"
);
}
);
width = 593;
}
);
note = exclam;
unicode = 0021;
},
{
glyphname = quotedbl;
layers = (
{
layerId = "060F58F1-3EA2-4F98-A18F-48F5C294967E";
paths = (
{
closed = 1;
nodes = (
"120 1462 LINE",
"161 934 LINE",
"435 934 LINE",
"476 1462 LINE",
"476 1462 LINE"
);
},
{
closed = 1;
nodes = (
"595 1462 LINE",
"636 934 LINE",
"911 934 LINE",
"951 1462 LINE",
"951 1462 LINE"
);
}
);
width = 1073;
}
);
note = quotedbl;
unicode = 0022;
},
{
glyphname = numbersign;
layers = (
{
layerId = "060F58F1-3EA2-4F98-A18F-48F5C294967E";
paths = (
{
closed = 1;
nodes = (
"1318 813 LINE",
"1318 1073 LINE",
"1089 1073 LINE",
"1162 1462 LINE",
"894 1462 LINE",
"822 1073 LINE",
"657 1073 LINE",
"730 1462 LINE",
"462 1462 LINE",
"390 1073 LINE",
"104 1073 LINE",
"104 813 LINE",
"341 813 LINE",
"310 645 LINE",
"36 645 LINE",
"36 391 LINE",
"261 391 LINE",
"190 0 LINE",
"456 0 LINE",
"528 391 LINE",
"695 391 LINE",
"622 0 LINE",
"890 0 LINE",
"964 391 LINE",
"1255 391 LINE",
"1255 645 LINE",
"1011 645 LINE",
"1042 813 LINE",
"1042 813 LINE"
);
},
{
closed = 1;
nodes = (
"607 813 LINE",
"773 813 LINE",
"743 645 LINE",
"577 645 LINE",
"577 645 LINE"
);
}
);
width = 1355;
}
);
note = numbersign;
unicode = 0023;
},
{
glyphname = dollar;
layers = (
{
layerId = "060F58F1-3EA2-4F98-A18F-48F5C294967E";
paths = (
{
closed = 1;
nodes = (
"684 -119 LINE",
"684 49 LINE",
"917 74 OFFCURVE",
"1134 305 OFFCURVE",
"1134 471 QCURVE SMOOTH",
"1134 592 OFFCURVE",
"1028 741 OFFCURVE",
"827 838 OFFCURVE",
"684 881 QCURVE",
"684 1128 LINE",
"766 1120 OFFCURVE",
"932 1081 OFFCURVE",
"1007 1049 QCURVE",
"1095 1323 LINE",
"1011 1356 OFFCURVE",
"809 1411 OFFCURVE",
"684 1417 QCURVE",
"684 1556 LINE",
"495 1556 LINE",
"495 1415 LINE",
"295 1401 OFFCURVE",
"53 1214 OFFCURVE",
"53 1028 QCURVE SMOOTH",
"53 897 OFFCURVE",
"168 731 OFFCURVE",
"368 629 OFFCURVE",
"495 592 QCURVE",
"495 340 LINE",
"401 348 OFFCURVE",
"182 399 OFFCURVE",
"86 442 QCURVE",
"86 129 LINE",
"172 92 OFFCURVE",
"364 49 OFFCURVE",
"495 45 QCURVE",
"495 -119 LINE",
"495 -119 LINE"
);
},
{
closed = 1;
nodes = (
"434 956 OFFCURVE",
"383 1004 OFFCURVE",
"383 1042 QCURVE SMOOTH",
"383 1116 OFFCURVE",
"495 1126 QCURVE",
"495 936 LINE",
"495 936 LINE"
);
},
{
closed = 1;
nodes = (
"684 545 LINE",
"751 524 OFFCURVE",
"801 477 OFFCURVE",
"801 438 QCURVE SMOOTH",
"801 362 OFFCURVE",
"684 344 QCURVE",
"684 344 LINE"
);
}
);
width = 1181;
}
);
note = dollar;
unicode = 0024;
},
{
glyphname = percent;
layers = (
{
layerId = "060F58F1-3EA2-4F98-A18F-48F5C294967E";
paths = (
{
closed = 1;
nodes = (
"229 1483 OFFCURVE",
"36 1243 OFFCURVE",
"36 1026 QCURVE SMOOTH",
"36 809 OFFCURVE",
"241 565 OFFCURVE",
"409 565 QCURVE SMOOTH",
"595 565 OFFCURVE",
"790 809 OFFCURVE",
"790 1026 QCURVE SMOOTH",
"790 1243 OFFCURVE",
"581 1483 OFFCURVE",
"409 1483 QCURVE",
"409 1483 LINE"
);
},
{
closed = 1;
nodes = (
"1222 1462 LINE",
"411 0 LINE",
"708 0 LINE",
"1519 1462 LINE",
"1519 1462 LINE"
);
},
{
closed = 1;
nodes = (
"456 1239 OFFCURVE",
"489 1122 OFFCURVE",
"489 1022 QCURVE SMOOTH",
"489 922 OFFCURVE",
"456 805 OFFCURVE",
"413 805 QCURVE SMOOTH",
"370 805 OFFCURVE",
"337 924 OFFCURVE",
"337 1022 QCURVE SMOOTH",
"337 1122 OFFCURVE",
"370 1239 OFFCURVE",
"413 1239 QCURVE",
"413 1239 LINE"
);
},
{
closed = 1;
nodes = (
"1341 901 OFFCURVE",
"1148 662 OFFCURVE",
"1148 444 QCURVE SMOOTH",
"1148 227 OFFCURVE",
"1353 -16 OFFCURVE",
"1521 -16 QCURVE SMOOTH",
"1707 -16 OFFCURVE",
"1902 227 OFFCURVE",
"1902 444 QCURVE SMOOTH",
"1902 662 OFFCURVE",
"1693 901 OFFCURVE",
"1521 901 QCURVE",
"1521 901 LINE"
);
},
{
closed = 1;
nodes = (
"1568 657 OFFCURVE",
"1601 543 OFFCURVE",
"1601 440 QCURVE SMOOTH",
"1601 340 OFFCURVE",
"1568 223 OFFCURVE",
"1525 223 QCURVE SMOOTH",
"1482 223 OFFCURVE",
"1449 342 OFFCURVE",
"1449 440 QCURVE SMOOTH",
"1449 541 OFFCURVE",
"1482 657 OFFCURVE",
"1525 657 QCURVE",
"1525 657 LINE"
);
}
);
width = 1941;
}
);
note = percent;
unicode = 0025;
},
{
glyphname = ampersand;
layers = (
{
layerId = "060F58F1-3EA2-4F98-A18F-48F5C294967E";
paths = (
{
closed = 1;
nodes = (
"448 1481 OFFCURVE",
"212 1284 OFFCURVE",
"212 1133 QCURVE SMOOTH",
"212 1034 OFFCURVE",
"282 877 OFFCURVE",
"343 807 QCURVE",
"212 739 OFFCURVE",
"71 537 OFFCURVE",
"71 406 QCURVE SMOOTH",
"71 287 OFFCURVE",
"194 94 OFFCURVE",
"429 -20 OFFCURVE",
"601 -20 QCURVE SMOOTH",
"724 -20 OFFCURVE",
"878 12 OFFCURVE",
"986 68 OFFCURVE",
"1042 102 QCURVE",
"1140 0 LINE",
"1646 0 LINE",
"1326 307 LINE",
"1402 397 OFFCURVE",
"1533 672 OFFCURVE",
"1566 821 QCURVE",
"1161 821 LINE",
"1130 674 OFFCURVE",
"1056 561 QCURVE",
"857 750 LINE",
"974 819 OFFCURVE",
"1122 1006 OFFCURVE",
"1122 1133 QCURVE SMOOTH",
"1122 1296 OFFCURVE",
"882 1481 OFFCURVE",
"675 1481 QCURVE",
"675 1481 LINE"
);
},
{
closed = 1;
nodes = (
"712 1225 OFFCURVE",
"769 1182 OFFCURVE",
"769 1133 QCURVE SMOOTH",
"769 1085 OFFCURVE",
"710 997 OFFCURVE",
"653 965 QCURVE",
"618 997 OFFCURVE",
"565 1075 OFFCURVE",
"565 1120 QCURVE SMOOTH",
"565 1176 OFFCURVE",
"628 1225 OFFCURVE",
"669 1225 QCURVE",
"669 1225 LINE"
);
},
{
closed = 1;
nodes = (
"804 340 LINE",
"782 322 OFFCURVE",
"696 291 OFFCURVE",
"638 291 QCURVE SMOOTH",
"565 291 OFFCURVE",
"474 371 OFFCURVE",
"474 434 QCURVE SMOOTH",
"474 479 OFFCURVE",
"513 559 OFFCURVE",
"556 592 QCURVE",
"556 592 LINE"
);
}
);
width = 1636;
}
);
note = ampersand;
unicode = 0026;
},
{
glyphname = quotesingle;
layers = (
{
layerId = "060F58F1-3EA2-4F98-A18F-48F5C294967E";
paths = (
{
closed = 1;
nodes = (
"120 1462 LINE",
"161 934 LINE",
"435 934 LINE",
"476 1462 LINE",
"476 1462 LINE"
);
}
);
width = 598;
}
);
note = quotesingle;
unicode = 0027;
},
{
glyphname = parenleft;
layers = (
{
layerId = "060F58F1-3EA2-4F98-A18F-48F5C294967E";
paths = (
{
closed = 1;
nodes = (
"73 418 OFFCURVE",
"126 92 OFFCURVE",
"251 -205 OFFCURVE",
"354 -324 QCURVE",
"677 -324 LINE",
"585 -199 OFFCURVE",
"470 102 OFFCURVE",
"417 426 OFFCURVE",
"417 584 QCURVE SMOOTH",
"417 827 OFFCURVE",
"540 1311 OFFCURVE",
"679 1503 QCURVE",
"354 1503 LINE",
"251 1380 OFFCURVE",
"126 1077 OFFCURVE",
"73 750 OFFCURVE",
"73 582 QCURVE",
"73 582 LINE"
);
}
);
width = 735;
}
);
note = parenleft;
unicode = 0028;
},
{
glyphname = parenright;
layers = (
{
layerId = "060F58F1-3EA2-4F98-A18F-48F5C294967E";
paths = (
{
closed = 1;
nodes = (
"661 750 OFFCURVE",
"608 1077 OFFCURVE",
"483 1380 OFFCURVE",
"381 1503 QCURVE",
"55 1503 LINE",
"192 1311 OFFCURVE",
"317 827 OFFCURVE",
"317 584 QCURVE SMOOTH",
"317 426 OFFCURVE",
"264 102 OFFCURVE",
"147 -199 OFFCURVE",
"57 -324 QCURVE",
"381 -324 LINE",
"483 -205 OFFCURVE",
"608 92 OFFCURVE",
"661 418 OFFCURVE",
"661 582 QCURVE",
"661 582 LINE"
);
}
);
width = 735;
}
);
note = parenright;
unicode = 0029;
},
{
glyphname = asterisk;
layers = (
{
layerId = "060F58F1-3EA2-4F98-A18F-48F5C294967E";
paths = (
{
closed = 1;
nodes = (
"399 1556 LINE",
"438 1204 LINE",
"90 1305 LINE",
"45 1014 LINE",
"358 989 LINE",
"151 711 LINE",
"424 575 LINE",
"547 856 LINE",
"690 573 LINE",
"950 711 LINE",
"743 989 LINE",
"1057 1010 LINE",
"1020 1305 LINE",
"663 1204 LINE",
"702 1556 LINE",
"702 1556 LINE"
);
}
);
width = 1099;
}
);
note = asterisk;
unicode = 002A;
},
{
glyphname = plus;
layers = (
{
layerId = "060F58F1-3EA2-4F98-A18F-48F5C294967E";
paths = (
{
closed = 1;
nodes = (
"733 1223 LINE",
"465 1223 LINE",
"465 856 LINE",
"92 856 LINE",
"92 588 LINE",
"465 588 LINE",
"465 227 LINE",
"733 227 LINE",
"733 588 LINE",
"1106 588 LINE",
"1106 856 LINE",
"733 856 LINE",
"733 856 LINE"
);
}
);
width = 1200;
}
);
note = plus;
unicode = 002B;
},
{
glyphname = comma;
layers = (
{
layerId = "060F58F1-3EA2-4F98-A18F-48F5C294967E";
paths = (
{
closed = 1;
nodes = (
"155 299 LINE",
"147 217 OFFCURVE",
"114 16 OFFCURVE",
"77 -193 OFFCURVE",
"57 -285 QCURVE",
"336 -285 LINE",
"368 -209 OFFCURVE",
"436 -2 OFFCURVE",
"493 203 OFFCURVE",
"512 276 QCURVE",
"497 299 LINE",
"497 299 LINE"
);
}
);
width = 632;
}
);
note = comma;
unicode = 002C;
},
{
glyphname = hyphen;
layers = (
{
layerId = "060F58F1-3EA2-4F98-A18F-48F5C294967E";
paths = (
{
closed = 1;
nodes = (
"608 393 LINE",
"608 705 LINE",
"43 705 LINE",
"43 393 LINE",
"43 393 LINE"
);
}
);
width = 651;
}
);
note = hyphen;
unicode = 002D;
},
{
glyphname = period;
layers = (
{
layerId = "060F58F1-3EA2-4F98-A18F-48F5C294967E";
paths = (
{
closed = 1;
nodes = (
"86 66 OFFCURVE",
"211 -25 OFFCURVE",
"299 -25 QCURVE SMOOTH",
"381 -25 OFFCURVE",
"504 66 OFFCURVE",
"504 166 QCURVE SMOOTH",
"504 272 OFFCURVE",
"381 358 OFFCURVE",
"299 358 QCURVE SMOOTH",
"211 358 OFFCURVE",
"86 272 OFFCURVE",
"86 166 QCURVE",
"86 166 LINE"
);
}
);
width = 591;
}
);
note = period;
unicode = 002E;
},
{
glyphname = slash;
layers = (
{
layerId = "060F58F1-3EA2-4F98-A18F-48F5C294967E";
paths = (
{
closed = 1;
nodes = (
"555 1483 LINE",
"10 -20 LINE",
"356 -20 LINE",
"901 1483 LINE",
"901 1483 LINE"
);
}
);
width = 905;
}
);
note = slash;
unicode = 002F;
},
{
glyphname = zero;
layers = (
{
layerId = "060F58F1-3EA2-4F98-A18F-48F5C294967E";
paths = (
{
closed = 1;
nodes = (
"1128 1085 OFFCURVE",
"872 1483 OFFCURVE",
"599 1483 QCURVE SMOOTH",
"405 1483 OFFCURVE",
"171 1303 OFFCURVE",
"71 967 OFFCURVE",
"71 729 QCURVE SMOOTH",
"71 377 OFFCURVE",
"325 -20 OFFCURVE",
"599 -20 QCURVE SMOOTH",
"794 -20 OFFCURVE",
"1027 160 OFFCURVE",
"1128 496 OFFCURVE",
"1128 729 QCURVE",
"1128 729 LINE"
);
},
{
closed = 1;
nodes = (
"464 946 OFFCURVE",
"515 1167 OFFCURVE",
"599 1167 QCURVE SMOOTH",
"681 1167 OFFCURVE",
"735 946 OFFCURVE",
"735 729 QCURVE SMOOTH",
"735 512 OFFCURVE",
"681 295 OFFCURVE",
"599 295 QCURVE SMOOTH",
"515 295 OFFCURVE",
"464 514 OFFCURVE",
"464 729 QCURVE",
"464 729 LINE"
);
}
);
width = 1200;
}
);
note = zero;
unicode = 0030;
},
{
glyphname = one;
layers = (
{
layerId = "060F58F1-3EA2-4F98-A18F-48F5C294967E";
paths = (
{
closed = 1;
nodes = (
"941 1462 LINE",
"585 1462 LINE",
"83 1053 LINE",
"288 801 LINE",
"454 938 LINE SMOOTH",
"474 956 OFFCURVE",
"519 1001 OFFCURVE",
"546 1032 QCURVE",
"544 979 OFFCURVE",
"540 850 OFFCURVE",
"540 741 OFFCURVE",
"540 723 QCURVE SMOOTH",
"540 0 LINE",
"941 0 LINE",
"941 0 LINE"
);
}
);
width = 1200;
}
);
note = one;
unicode = 0031;
},
{
glyphname = two;
layers = (
{
layerId = "060F58F1-3EA2-4F98-A18F-48F5C294967E";
paths = (
{
closed = 1;
nodes = (
"1122 326 LINE",
"569 326 LINE",
"569 336 LINE",
"676 432 LINE SMOOTH",
"815 557 OFFCURVE",
"1001 758 OFFCURVE",
"1094 956 OFFCURVE",
"1094 1083 QCURVE SMOOTH",
"1094 1198 OFFCURVE",
"973 1378 OFFCURVE",
"754 1483 OFFCURVE",
"606 1483 QCURVE SMOOTH",
"461 1483 OFFCURVE",
"258 1415 OFFCURVE",
"111 1307 OFFCURVE",
"45 1249 QCURVE",
"262 995 LINE",
"352 1073 OFFCURVE",
"491 1151 OFFCURVE",
"561 1151 QCURVE SMOOTH",
"618 1151 OFFCURVE",
"702 1094 OFFCURVE",
"702 1028 QCURVE SMOOTH",
"702 975 OFFCURVE",
"651 877 OFFCURVE",
"528 737 OFFCURVE",
"418 621 QCURVE SMOOTH",
"61 260 LINE",
"61 0 LINE",
"1122 0 LINE",
"1122 0 LINE"
);
}
);
width = 1200;
}
);
note = two;
unicode = 0032;
},
{
glyphname = three;
layers = (
{
layerId = "060F58F1-3EA2-4F98-A18F-48F5C294967E";
paths = (
{
closed = 1;
nodes = (
"1073 1303 OFFCURVE",
"812 1483 OFFCURVE",
"587 1483 QCURVE SMOOTH",
"397 1483 OFFCURVE",
"161 1397 OFFCURVE",
"71 1335 QCURVE",
"235 1071 LINE",
"257 1085 OFFCURVE",
"343 1128 OFFCURVE",
"458 1165 OFFCURVE",
"526 1165 QCURVE SMOOTH",
"599 1165 OFFCURVE",
"690 1110 OFFCURVE",
"690 1051 QCURVE SMOOTH",
"690 983 OFFCURVE",
"556 897 OFFCURVE",
"388 897 QCURVE SMOOTH",
"296 897 LINE",
"296 600 LINE",
"386 600 LINE SMOOTH",
"511 600 OFFCURVE",
"647 561 OFFCURVE",
"698 492 OFFCURVE",
"698 442 QCURVE SMOOTH",
"698 373 OFFCURVE",
"593 291 OFFCURVE",
"448 291 QCURVE SMOOTH",
"364 291 OFFCURVE",
"163 338 OFFCURVE",
"69 387 QCURVE",
"69 59 LINE",
"163 23 OFFCURVE",
"364 -20 OFFCURVE",
"505 -20 QCURVE SMOOTH",
"716 -20 OFFCURVE",
"987 98 OFFCURVE",
"1116 299 OFFCURVE",
"1116 418 QCURVE SMOOTH",
"1116 573 OFFCURVE",
"925 741 OFFCURVE",
"749 764 QCURVE",
"749 770 LINE",
"835 795 OFFCURVE",
"982 891 OFFCURVE",
"1073 1040 OFFCURVE",
"1073 1145 QCURVE",
"1073 1145 LINE"
);
}
);
width = 1200;
}
);
note = three;
unicode = 0033;
},
{
glyphname = four;
layers = (
{
layerId = "060F58F1-3EA2-4F98-A18F-48F5C294967E";
paths = (
{
closed = 1;
nodes = (
"1169 578 LINE",
"1007 578 LINE",
"1007 1462 LINE",
"642 1462 LINE",
"34 573 LINE",
"34 283 LINE",
"618 283 LINE",
"618 0 LINE",
"1007 0 LINE",
"1007 283 LINE",
"1169 283 LINE",
"1169 283 LINE"
);
},
{
closed = 1;
nodes = (
"376 578 LINE",
"538 819 LINE SMOOTH",
"564 860 OFFCURVE",
"595 918 OFFCURVE",
"616 963 QCURVE",
"626 963 LINE",
"626 961 OFFCURVE",
"622 879 OFFCURVE",
"618 778 OFFCURVE",
"618 748 QCURVE SMOOTH",
"618 578 LINE",
"618 578 LINE"
);
}
);
width = 1200;
}
);
note = four;
unicode = 0034;
},
{
glyphname = five;
layers = (
{
layerId = "060F58F1-3EA2-4F98-A18F-48F5C294967E";
paths = (
{
closed = 1;
nodes = (
"592 958 OFFCURVE",
"524 946 OFFCURVE",
"491 940 QCURVE",
"510 1133 LINE",
"1007 1133 LINE",
"1007 1462 LINE",
"174 1462 LINE",
"119 690 LINE",
"264 618 LINE",
"303 631 OFFCURVE",
"409 653 OFFCURVE",
"465 653 QCURVE SMOOTH",
"586 653 OFFCURVE",
"706 557 OFFCURVE",
"706 475 QCURVE SMOOTH",
"706 385 OFFCURVE",
"588 291 OFFCURVE",
"479 291 QCURVE SMOOTH",
"389 291 OFFCURVE",
"172 348 OFFCURVE",
"94 383 QCURVE",
"94 59 LINE",
"258 -20 OFFCURVE",
"512 -20 QCURVE SMOOTH",
"811 -20 OFFCURVE",
"1106 242 OFFCURVE",
"1106 487 QCURVE SMOOTH",
"1106 639 OFFCURVE",
"987 848 OFFCURVE",
"786 958 OFFCURVE",
"663 958 QCURVE",
"663 958 LINE"
);
}
);
width = 1200;
}
);
note = five;
unicode = 0035;
},
{
glyphname = six;
layers = (
{
layerId = "060F58F1-3EA2-4F98-A18F-48F5C294967E";
paths = (
{
closed = 1;
nodes = (
"69 399 OFFCURVE",
"214 117 OFFCURVE",
"462 -20 OFFCURVE",
"620 -20 QCURVE SMOOTH",
"860 -20 OFFCURVE",
"1136 254 OFFCURVE",
"1136 500 QCURVE SMOOTH",
"1136 727 OFFCURVE",
"919 975 OFFCURVE",
"726 975 QCURVE SMOOTH",
"610 975 OFFCURVE",
"477 877 OFFCURVE",
"438 805 QCURVE",
"425 805 LINE",
"431 922 OFFCURVE",
"507 1087 OFFCURVE",
"679 1176 OFFCURVE",
"827 1176 QCURVE SMOOTH",
"900 1176 OFFCURVE",
"1003 1165 OFFCURVE",
"1044 1157 QCURVE",
"1044 1466 LINE",
"1003 1473 OFFCURVE",
"878 1483 OFFCURVE",
"835 1483 QCURVE SMOOTH",
"640 1483 OFFCURVE",
"372 1384 OFFCURVE",
"200 1214 OFFCURVE",
"106 993 OFFCURVE",
"69 743 OFFCURVE",
"69 618 QCURVE",
"69 618 LINE"
);
},
{
closed = 1;
nodes = (
"561 293 OFFCURVE",
"493 358 OFFCURVE",
"462 459 OFFCURVE",
"462 512 QCURVE SMOOTH",
"462 569 OFFCURVE",
"542 670 OFFCURVE",
"616 670 QCURVE SMOOTH",
"687 670 OFFCURVE",
"753 573 OFFCURVE",
"753 492 QCURVE SMOOTH",
"753 389 OFFCURVE",
"675 293 OFFCURVE",
"612 293 QCURVE",
"612 293 LINE"
);
}
);
width = 1200;
}
);
note = six;
unicode = 0036;
},
{
glyphname = seven;
layers = (
{
layerId = "060F58F1-3EA2-4F98-A18F-48F5C294967E";
paths = (
{
closed = 1;
nodes = (
"618 0 LINE",
"1132 1229 LINE",
"1132 1462 LINE",
"77 1462 LINE",
"77 1135 LINE",
"710 1135 LINE",
"208 0 LINE",
"208 0 LINE"
);
}
);
width = 1200;
}
);
note = seven;
unicode = 0037;
},
{
glyphname = eight;
layers = (
{
layerId = "060F58F1-3EA2-4F98-A18F-48F5C294967E";
paths = (
{
closed = 1;
nodes = (
"458 1483 OFFCURVE",
"237 1403 OFFCURVE",
"110 1245 OFFCURVE",
"110 1128 QCURVE SMOOTH",
"110 1001 OFFCURVE",
"241 825 OFFCURVE",
"333 764 QCURVE",
"219 705 OFFCURVE",
"67 537 OFFCURVE",
"67 385 QCURVE SMOOTH",
"67 205 OFFCURVE",
"321 -20 OFFCURVE",
"599 -20 QCURVE SMOOTH",
"784 -20 OFFCURVE",
"1019 86 OFFCURVE",
"1134 270 OFFCURVE",
"1134 389 QCURVE SMOOTH",
"1134 485 OFFCURVE",
"1044 627 OFFCURVE",
"909 731 OFFCURVE",
"839 770 QCURVE",
"950 823 OFFCURVE",
"1091 995 OFFCURVE",
"1091 1126 QCURVE SMOOTH",
"1091 1307 OFFCURVE",
"821 1483 OFFCURVE",
"604 1483 QCURVE",
"604 1483 LINE"
);
},
{
closed = 1;
nodes = (
"649 1198 OFFCURVE",
"720 1141 OFFCURVE",
"720 1092 QCURVE SMOOTH",
"720 1032 OFFCURVE",
"640 965 OFFCURVE",
"597 940 QCURVE",
"548 967 OFFCURVE",
"481 1044 OFFCURVE",
"481 1092 QCURVE SMOOTH",
"481 1141 OFFCURVE",
"552 1198 OFFCURVE",
"602 1198 QCURVE",
"602 1198 LINE"
);
},
{
closed = 1;
nodes = (
"429 467 OFFCURVE",
"528 561 OFFCURVE",
"595 596 QCURVE",
"622 580 LINE SMOOTH",
"647 565 OFFCURVE",
"718 512 OFFCURVE",
"772 438 OFFCURVE",
"772 393 QCURVE SMOOTH",
"772 334 OFFCURVE",
"685 264 OFFCURVE",
"595 264 QCURVE SMOOTH",
"518 264 OFFCURVE",
"429 340 OFFCURVE",
"429 401 QCURVE",
"429 401 LINE"
);
}
);
width = 1200;
}
);
note = eight;
unicode = 0038;
},
{
glyphname = nine;
layers = (
{
layerId = "060F58F1-3EA2-4F98-A18F-48F5C294967E";
paths = (
{
closed = 1;
nodes = (
"1130 1053 OFFCURVE",
"983 1343 OFFCURVE",
"733 1483 OFFCURVE",
"581 1483 QCURVE SMOOTH",
"339 1483 OFFCURVE",
"63 1208 OFFCURVE",
"63 965 QCURVE SMOOTH",
"63 735 OFFCURVE",
"282 487 OFFCURVE",
"466 487 QCURVE SMOOTH",
"591 487 OFFCURVE",
"720 584 OFFCURVE",
"761 657 QCURVE",
"774 657 LINE",
"768 549 OFFCURVE",
"694 381 OFFCURVE",
"512 287 OFFCURVE",
"348 287 QCURVE SMOOTH",
"290 287 OFFCURVE",
"204 295 OFFCURVE",
"161 303 QCURVE",
"161 -10 LINE",
"202 -16 OFFCURVE",
"321 -20 OFFCURVE",
"366 -20 QCURVE SMOOTH",
"638 -20 OFFCURVE",
"974 182 OFFCURVE",
"1130 561 OFFCURVE",
"1130 821 QCURVE",
"1130 821 LINE"
);
},
{
closed = 1;
nodes = (
"643 1167 OFFCURVE",
"706 1102 OFFCURVE",
"737 1004 OFFCURVE",
"737 950 QCURVE SMOOTH",
"737 893 OFFCURVE",
"653 791 OFFCURVE",
"587 791 QCURVE SMOOTH",
"516 791 OFFCURVE",
"446 887 OFFCURVE",
"446 969 QCURVE SMOOTH",
"446 1073 OFFCURVE",
"522 1167 OFFCURVE",
"591 1167 QCURVE",
"591 1167 LINE"
);
}
);
width = 1200;
}
);
note = nine;
unicode = 0039;
},
{
glyphname = colon;
layers = (
{
layerId = "060F58F1-3EA2-4F98-A18F-48F5C294967E";
paths = (
{
closed = 1;
nodes = (
"86 854 OFFCURVE",
"211 764 OFFCURVE",
"299 764 QCURVE SMOOTH",
"381 764 OFFCURVE",
"504 854 OFFCURVE",
"504 956 QCURVE SMOOTH",
"504 1061 OFFCURVE",
"381 1147 OFFCURVE",
"299 1147 QCURVE SMOOTH",
"211 1147 OFFCURVE",
"86 1061 OFFCURVE",
"86 956 QCURVE",
"86 956 LINE"
);
},
{
closed = 1;
nodes = (
"86 66 OFFCURVE",
"211 -25 OFFCURVE",
"299 -25 QCURVE SMOOTH",
"381 -25 OFFCURVE",
"504 66 OFFCURVE",
"504 166 QCURVE SMOOTH",
"504 272 OFFCURVE",
"381 358 OFFCURVE",
"299 358 QCURVE SMOOTH",
"211 358 OFFCURVE",
"86 272 OFFCURVE",
"86 166 QCURVE",
"86 166 LINE"
);
}
);
width = 591;
}
);
note = colon;
unicode = 003A;
},
{
glyphname = semicolon;
layers = (
{
layerId = "060F58F1-3EA2-4F98-A18F-48F5C294967E";
paths = (
{
closed = 1;
nodes = (
"92 854 OFFCURVE",
"215 764 OFFCURVE",
"303 764 QCURVE SMOOTH",
"385 764 OFFCURVE",
"510 854 OFFCURVE",
"510 956 QCURVE SMOOTH",
"510 1061 OFFCURVE",
"385 1147 OFFCURVE",
"303 1147 QCURVE SMOOTH",
"215 1147 OFFCURVE",
"92 1061 OFFCURVE",
"92 956 QCURVE",
"92 956 LINE"
);
},
{
closed = 1;
nodes = (
"155 299 LINE",
"147 217 OFFCURVE",
"114 16 OFFCURVE",
"77 -193 OFFCURVE",
"57 -285 QCURVE",
"336 -285 LINE",
"368 -209 OFFCURVE",
"436 -2 OFFCURVE",
"493 203 OFFCURVE",
"512 276 QCURVE",
"497 299 LINE",
"497 299 LINE"
);
}
);
width = 608;
}
);
note = semicolon;
unicode = 003B;
},
{
glyphname = less;
layers = (
{
layerId = "060F58F1-3EA2-4F98-A18F-48F5C294967E";
paths = (
{
closed = 1;
nodes = (
"1104 473 LINE",
"483 725 LINE",
"1104 1008 LINE",
"1104 1305 LINE",
"92 799 LINE",
"92 627 LINE",
"1104 178 LINE",
"1104 178 LINE"
);
}
);
width = 1200;
}
);
note = less;
unicode = 003C;
},
{
glyphname = equal;
layers = (
{
layerId = "060F58F1-3EA2-4F98-A18F-48F5C294967E";
paths = (
{
closed = 1;
nodes = (
"1108 815 LINE",
"1108 1083 LINE",
"92 1083 LINE",
"92 815 LINE",
"92 815 LINE"
);
},
{
closed = 1;
nodes = (
"1108 358 LINE",
"1108 629 LINE",
"92 629 LINE",
"92 358 LINE",
"92 358 LINE"
);
}
);
width = 1200;
}
);
note = equal;
unicode = 003D;
},
{
glyphname = greater;
layers = (
{
layerId = "060F58F1-3EA2-4F98-A18F-48F5C294967E";
paths = (
{
closed = 1;
nodes = (
"92 178 LINE",
"1104 627 LINE",
"1104 799 LINE",
"92 1305 LINE",
"92 1008 LINE",
"713 725 LINE",
"92 473 LINE",
"92 473 LINE"
);
}
);
width = 1200;
}
);
note = greater;
unicode = 003E;
},
{
glyphname = question;
layers = (
{
layerId = "060F58F1-3EA2-4F98-A18F-48F5C294967E";
paths = (
{
closed = 1;
nodes = (
"602 516 LINE",
"602 567 LINE SMOOTH",
"602 614 OFFCURVE",
"670 684 OFFCURVE",
"760 741 QCURVE SMOOTH",
"887 823 OFFCURVE",
"997 999 OFFCURVE",
"997 1118 QCURVE SMOOTH",
"997 1282 OFFCURVE",
"748 1483 OFFCURVE",
"520 1483 QCURVE SMOOTH",
"369 1483 OFFCURVE",
"113 1405 OFFCURVE",
"0 1341 QCURVE",
"139 1069 LINE",
"342 1176 OFFCURVE",
"492 1176 QCURVE SMOOTH",
"553 1176 OFFCURVE",
"629 1126 OFFCURVE",
"629 1085 QCURVE SMOOTH",
"629 1057 OFFCURVE",
"610 1006 OFFCURVE",
"545 942 OFFCURVE",
"477 899 QCURVE SMOOTH",
"369 831 OFFCURVE",
"295 694 OFFCURVE",
"295 602 QCURVE SMOOTH",
"295 516 LINE",
"295 516 LINE"
);
},
{
closed = 1;
nodes = (
"252 66 OFFCURVE",
"375 -25 OFFCURVE",
"463 -25 QCURVE SMOOTH",
"547 -25 OFFCURVE",
"670 66 OFFCURVE",
"670 166 QCURVE SMOOTH",
"670 272 OFFCURVE",
"547 358 OFFCURVE",
"463 358 QCURVE SMOOTH",
"375 358 OFFCURVE",
"252 272 OFFCURVE",
"252 166 QCURVE",
"252 166 LINE"
);
}
);
width = 1034;
}
);
note = question;
unicode = 003F;
},
{
glyphname = at;
layers = (
{
layerId = "060F58F1-3EA2-4F98-A18F-48F5C294967E";
paths = (
{
closed = 1;
nodes = (
"1754 979 OFFCURVE",
"1558 1305 OFFCURVE",
"1203 1481 OFFCURVE",
"968 1481 QCURVE SMOOTH",
"765 1481 OFFCURVE",
"437 1348 OFFCURVE",
"206 1112 OFFCURVE",
"81 795 OFFCURVE",
"81 610 QCURVE SMOOTH",
"81 373 OFFCURVE",
"278 31 OFFCURVE",
"650 -154 OFFCURVE",
"912 -154 QCURVE SMOOTH",
"1050 -154 OFFCURVE",
"1306 -104 OFFCURVE",
"1412 -59 QCURVE",
"1412 170 LINE",
"1289 125 OFFCURVE",
"1011 74 OFFCURVE",
"898 74 QCURVE SMOOTH",
"626 74 OFFCURVE",
"353 365 OFFCURVE",
"353 606 QCURVE SMOOTH",
"353 795 OFFCURVE",
"493 1090 OFFCURVE",
"769 1257 OFFCURVE",
"972 1257 QCURVE SMOOTH",
"1230 1257 OFFCURVE",
"1490 987 OFFCURVE",
"1490 758 QCURVE SMOOTH",
"1490 676 OFFCURVE",
"1461 535 OFFCURVE",
"1410 451 OFFCURVE",
"1373 451 QCURVE SMOOTH",
"1351 451 OFFCURVE",
"1324 489 OFFCURVE",
"1324 537 QCURVE SMOOTH",
"1324 565 OFFCURVE",
"1326 621 OFFCURVE",
"1326 631 QCURVE SMOOTH",
"1347 1053 LINE",
"1281 1075 OFFCURVE",
"1091 1114 OFFCURVE",
"990 1114 QCURVE SMOOTH",
"822 1114 OFFCURVE",
"595 989 OFFCURVE",
"478 774 OFFCURVE",
"478 639 QCURVE SMOOTH",
"478 457 OFFCURVE",
"667 233 OFFCURVE",
"857 233 QCURVE SMOOTH",
"941 233 OFFCURVE",
"1072 301 OFFCURVE",
"1117 352 QCURVE",
"1132 352 LINE",
"1171 295 OFFCURVE",
"1302 233 OFFCURVE",
"1375 233 QCURVE SMOOTH",
"1467 233 OFFCURVE",
"1609 324 OFFCURVE",
"1705 473 OFFCURVE",
"1754 659 OFFCURVE",
"1754 756 QCURVE",
"1754 756 LINE"
);
},
{
closed = 1;
nodes = (
"759 743 OFFCURVE",
"872 895 OFFCURVE",
"994 895 QCURVE SMOOTH",
"1013 895 OFFCURVE",
"1042 893 OFFCURVE",
"1062 889 QCURVE",
"1052 733 LINE SMOOTH",
"1044 582 OFFCURVE",
"974 451 OFFCURVE",
"892 451 QCURVE SMOOTH",
"833 451 OFFCURVE",
"759 541 OFFCURVE",
"759 641 QCURVE",
"759 641 LINE"
);
}
);
width = 1837;
}
);
note = at;
unicode = 0040;
},
{
glyphname = braceleft;
layers = (
{
layerId = "060F58F1-3EA2-4F98-A18F-48F5C294967E";
paths = (
{
closed = 1;
nodes = (
"821 -66 LINE",
"782 -66 OFFCURVE",
"692 -53 OFFCURVE",
"630 -8 OFFCURVE",
"630 41 QCURVE SMOOTH",
"630 317 LINE SMOOTH",
"630 434 OFFCURVE",
"507 545 OFFCURVE",
"391 563 QCURVE",
"391 575 LINE",
"503 590 OFFCURVE",
"630 702 OFFCURVE",
"630 827 QCURVE SMOOTH",
"630 1098 LINE SMOOTH",
"630 1149 OFFCURVE",
"692 1192 OFFCURVE",
"780 1204 OFFCURVE",
"821 1204 QCURVE",
"821 1483 LINE",
"608 1483 OFFCURVE",
"387 1409 OFFCURVE",
"307 1260 OFFCURVE",
"307 1143 QCURVE SMOOTH",
"307 889 LINE SMOOTH",
"307 827 OFFCURVE",
"237 752 OFFCURVE",
"124 719 OFFCURVE",
"61 719 QCURVE",
"61 418 LINE",
"122 418 OFFCURVE",
"235 385 OFFCURVE",
"307 309 OFFCURVE",
"307 248 QCURVE SMOOTH",
"307 0 LINE SMOOTH",
"307 -119 OFFCURVE",
"389 -272 OFFCURVE",
"610 -344 OFFCURVE",
"821 -344 QCURVE",
"821 -344 LINE"
);
}
);
width = 886;
}
);
note = braceleft;
unicode = 007B;
},
{
glyphname = bar;
layers = (
{
layerId = "060F58F1-3EA2-4F98-A18F-48F5C294967E";
paths = (
{
closed = 1;
nodes = (
"387 -446 LINE",
"655 -446 LINE",
"655 1556 LINE",
"387 1556 LINE",
"387 1556 LINE"
);
}
);
width = 1042;
}
);
note = bar;
unicode = 007C;
},
{
glyphname = braceright;
layers = (
{
layerId = "060F58F1-3EA2-4F98-A18F-48F5C294967E";
paths = (
{
closed = 1;
nodes = (
"274 -344 OFFCURVE",
"497 -272 OFFCURVE",
"579 -119 OFFCURVE",
"579 0 QCURVE SMOOTH",
"579 248 LINE SMOOTH",
"579 309 OFFCURVE",
"651 385 OFFCURVE",
"763 418 OFFCURVE",
"825 418 QCURVE",
"825 719 LINE",
"761 719 OFFCURVE",
"649 752 OFFCURVE",
"579 827 OFFCURVE",
"579 889 QCURVE SMOOTH",
"579 1143 LINE SMOOTH",
"579 1260 OFFCURVE",
"499 1409 OFFCURVE",
"278 1483 OFFCURVE",
"65 1483 QCURVE",
"65 1204 LINE",
"106 1204 OFFCURVE",
"194 1192 OFFCURVE",
"255 1149 OFFCURVE",
"255 1098 QCURVE SMOOTH",
"255 827 LINE SMOOTH",
"255 702 OFFCURVE",
"380 590 OFFCURVE",
"495 575 QCURVE",
"495 563 LINE",
"378 545 OFFCURVE",
"255 434 OFFCURVE",
"255 317 QCURVE SMOOTH",
"255 41 LINE SMOOTH",
"255 -8 OFFCURVE",
"194 -53 OFFCURVE",
"106 -66 OFFCURVE",
"65 -66 QCURVE",
"65 -344 LINE",
"65 -344 LINE"
);
}
);
width = 886;
}
);
note = braceright;
unicode = 007D;
},
{
glyphname = asciitilde;
layers = (
{
layerId = "060F58F1-3EA2-4F98-A18F-48F5C294967E";
paths = (
{
closed = 1;
nodes = (
"661 553 OFFCURVE",
"782 528 OFFCURVE",
"842 528 QCURVE SMOOTH",
"1001 528 OFFCURVE",
"1106 637 QCURVE",
"1106 918 LINE",
"1053 866 OFFCURVE",
"932 797 OFFCURVE",
"874 797 QCURVE SMOOTH",
"827 797 OFFCURVE",
"713 819 OFFCURVE",
"637 852 QCURVE SMOOTH",
"536 893 OFFCURVE",
"416 915 OFFCURVE",
"356 915 QCURVE SMOOTH",
"274 915 OFFCURVE",
"143 860 OFFCURVE",
"92 807 QCURVE",
"92 526 LINE",
"143 578 OFFCURVE",
"266 647 OFFCURVE",
"325 647 QCURVE SMOOTH",
"373 647 OFFCURVE",
"485 625 OFFCURVE",
"561 592 QCURVE",
"561 592 LINE"
);
}
);
width = 1200;
}
);
note = asciitilde;
unicode = 007E;
},
{
glyphname = guillemotleft;
layers = (
{
layerId = "060F58F1-3EA2-4F98-A18F-48F5C294967E";
paths = (
{
closed = 1;
nodes = (
"73 561 LINE",
"462 80 LINE",
"743 227 LINE",
"470 575 LINE",
"743 922 LINE",
"462 1071 LINE",
"73 588 LINE",
"73 588 LINE"
);
},
{
closed = 1;
nodes = (
"648 561 LINE",
"1036 80 LINE",
"1318 227 LINE",
"1044 575 LINE",
"1318 922 LINE",
"1036 1071 LINE",
"648 588 LINE",
"648 588 LINE"
);
}
);
width = 1394;
}
);
note = guillemotleft;
unicode = 00AB;
},
{
glyphname = uni00AD;
layers = (
{
layerId = "060F58F1-3EA2-4F98-A18F-48F5C294967E";
paths = (
{
closed = 1;
nodes = (
"608 393 LINE",
"608 705 LINE",
"43 705 LINE",
"43 393 LINE",
"43 393 LINE"
);
}
);
width = 651;
}
);
note = uni00AD;
unicode = 00AD;
},
{
glyphname = guillemotright;
layers = (
{
layerId = "060F58F1-3EA2-4F98-A18F-48F5C294967E";
paths = (
{
closed = 1;
nodes = (
"1320 588 LINE",
"933 1071 LINE",
"648 922 LINE",
"923 575 LINE",
"648 227 LINE",
"933 80 LINE",
"1320 561 LINE",
"1320 561 LINE"
);
},
{
closed = 1;
nodes = (
"745 588 LINE",
"358 1071 LINE",
"75 922 LINE",
"347 575 LINE",
"75 227 LINE",
"358 80 LINE",
"745 561 LINE",
"745 561 LINE"
);
}
);
width = 1394;
}
);
note = guillemotright;
unicode = 00BB;
},
{
glyphname = uni1780;
lastChange = "2020-01-28 08:13:35 +0000";
layers = (
{
layerId = "060F58F1-3EA2-4F98-A18F-48F5C294967E";
paths = (
{
closed = 1;
nodes = (
"1190 1160 LINE",
"110 1160 LINE",
"110 932 LINE",
"1190 932 LINE"
);
},
{
closed = 1;
nodes = (
"110 0 LINE",
"478 0 LINE",
"478 487 LINE SMOOTH",
"478 557 OFFCURVE",
"535 592 OFFCURVE",
"650 592 CURVE SMOOTH",
"765 592 OFFCURVE",
"822 557 OFFCURVE",
"822 487 CURVE SMOOTH",
"822 0 LINE",
"1190 0 LINE",
"1190 487 LINE SMOOTH",
"1190 702 OFFCURVE",
"1010 810 OFFCURVE",
"650 810 CURVE SMOOTH",
"290 810 OFFCURVE",
"110 702 OFFCURVE",
"110 487 CURVE SMOOTH"
);
}
);
userData = {
assembly = "MPPEM[ ]	/* MeasurePixelPerEm */\012PUSHB[ ]	/* 1 value pushed */\01234 \012LT[ ]	/* LessThan */\012IF[ ]	/* If */\012NPUSHB[ ]	/* 25 values pushed */\0120 2 0 4 3 2 4 105 0 0 0 1 95 0 1 1 17 77 5 1 3 3 19 3 78 \012ELSE[ ]	/* Else */\012NPUSHB[ ]	/* 23 values pushed */\0120 1 0 0 2 1 0 103 0 2 0 4 3 2 4 105 5 1 3 3 19 3 78 \012EIF[ ]	/* EndIf */\012NPUSHB[ ]	/* 9 values pushed */\01218 34 18 33 17 16 6 7 28 \012CALL[ ]	/* CallFunction */";
};
width = 1300;
}
);
note = uni1780;
unicode = 1780;
},
{
glyphname = uni1781;
lastChange = "2020-01-29 15:13:55 +0000";
layers = (
{
layerId = "060F58F1-3EA2-4F98-A18F-48F5C294967E";
paths = (
{
closed = 1;
nodes = (
"110 726 OFFCURVE",
"233 672 OFFCURVE",
"478 672 CURVE SMOOTH",
"564 672 LINE",
"564 835 LINE",
"478 835 LINE",
"478 916 OFFCURVE",
"535 957 OFFCURVE",
"650 957 CURVE SMOOTH",
"765 957 OFFCURVE",
"822 916 OFFCURVE",
"822 835 CURVE SMOOTH",
"822 658 OFFCURVE",
"728 589 OFFCURVE",
"540 589 CURVE SMOOTH",
"253 589 OFFCURVE",
"110 488 OFFCURVE",
"110 325 CURVE SMOOTH",
"110 108 OFFCURVE",
"290 0 OFFCURVE",
"650 0 CURVE SMOOTH",
"1010 0 OFFCURVE",
"1190 115 OFFCURVE",
"1190 356 CURVE",
"822 356 LINE",
"822 251 OFFCURVE",
"765 228 OFFCURVE",
"650 228 CURVE SMOOTH",
"535 228 OFFCURVE",
"478 244 OFFCURVE",
"478 325 CURVE SMOOTH",
"478 366 OFFCURVE",
"499 406 OFFCURVE",
"540 406 CURVE SMOOTH",
"973 406 OFFCURVE",
"1190 536 OFFCURVE",
"1190 835 CURVE SMOOTH",
"1190 1052 OFFCURVE",
"1010 1160 OFFCURVE",
"650 1160 CURVE SMOOTH",
"290 1160 OFFCURVE",
"110 1052 OFFCURVE",
"110 835 CURVE SMOOTH"
);
}
);
userData = {
assembly = "MPPEM[ ]	/* MeasurePixelPerEm */\012PUSHB[ ]	/* 1 value pushed */\01217 \012LT[ ]	/* LessThan */\012IF[ ]	/* If */\012NPUSHB[ ]	/* 44 values pushed */\0120 3 1 2 2 3 114 0 7 0 8 5 7 8 105 0 5 0 1 3 5 1 105 0 6 6 0 97 0 0 0 17 77 0 2 2 4 98 0 4 4 19 4 78 \012ELSE[ ]	/* Else */\012MPPEM[ ]	/* MeasurePixelPerEm */\012PUSHB[ ]	/* 1 value pushed */\01234 \012LT[ ]	/* LessThan */\012IF[ ]	/* If */\012NPUSHB[ ]	/* 45 values pushed */\0120 3 1 2 1 3 2 128 0 7 0 8 5 7 8 105 0 5 0 1 3 5 1 105 0 6 6 0 97 0 0 0 17 77 0 2 2 4 98 0 4 4 19 4 78 \012ELSE[ ]	/* Else */\012NPUSHB[ ]	/* 43 values pushed */\0120 3 1 2 1 3 2 128 0 0 0 6 7 0 6 105 0 7 0 8 5 7 8 105 0 5 0 1 3 5 1 105 0 2 2 4 98 0 4 4 19 4 78 \012EIF[ ]	/* EndIf */\012EIF[ ]	/* EndIf */\012NPUSHB[ ]	/* 12 values pushed */\01233 17 34 34 33 17 34 34 32 9 7 31 \012CALL[ ]	/* CallFunction */";
};
width = 1300;
}
);
note = uni1781;
unicode = 1781;
},
{
glyphname = uni1782;
lastChange = "2020-01-28 08:18:25 +0000";
layers = (
{
layerId = "060F58F1-3EA2-4F98-A18F-48F5C294967E";
paths = (
{
closed = 1;
nodes = (
"110 1160 LINE",
"110 932 LINE",
"1190 932 LINE",
"1190 1160 LINE"
);
},
{
closed = 1;
nodes = (
"290 810 OFFCURVE",
"110 702 OFFCURVE",
"110 487 CURVE SMOOTH",
"110 0 LINE",
"478 0 LINE",
"478 80 LINE",
"483 87 OFFCURVE",
"489 94 OFFCURVE",
"493 102 CURVE",
"532 158 OFFCURVE",
"550 183 OFFCURVE",
"590 200 CURVE SMOOTH",
"609 208 OFFCURVE",
"635 212 OFFCURVE",
"666 212 CURVE SMOOTH",
"700 212 LINE",
"700 400 LINE",
"662 400 LINE SMOOTH",
"576 400 OFFCURVE",
"515 374 OFFCURVE",
"478 321 CURVE",
"478 487 LINE SMOOTH",
"478 557 OFFCURVE",
"535 592 OFFCURVE",
"650 592 CURVE SMOOTH",
"765 592 OFFCURVE",
"822 557 OFFCURVE",
"822 487 CURVE SMOOTH",
"822 0 LINE",
"1190 0 LINE",
"1190 487 LINE SMOOTH",
"1190 702 OFFCURVE",
"1010 810 OFFCURVE",
"650 810 CURVE SMOOTH"
);
}
);
userData = {
assembly = "PUSHB[ ]	/* 6 values pushed */\01213 1 5 4 1 76 \012MPPEM[ ]	/* MeasurePixelPerEm */\012PUSHB[ ]	/* 1 value pushed */\01234 \012LT[ ]	/* LessThan */\012IF[ ]	/* If */\012NPUSHB[ ]	/* 35 values pushed */\0129 1 7 0 3 4 7 3 105 0 4 0 5 2 4 5 105 0 0 0 1 95 8 1 1 1 17 77 6 1 2 2 19 2 78 \012ELSE[ ]	/* Else */\012NPUSHB[ ]	/* 33 values pushed */\0128 1 1 0 0 7 1 0 103 9 1 7 0 3 4 7 3 105 0 4 0 5 2 4 5 105 6 1 2 2 19 2 78 \012EIF[ ]	/* EndIf */\012NPUSHB[ ]	/* 26 values pushed */\0124 4 0 0 4 30 4 29 27 26 19 17 16 14 11 9 7 6 0 3 0 3 17 10 7 23 \012CALL[ ]	/* CallFunction */";
};
width = 1300;
}
);
note = uni1782;
unicode = 1782;
},
{
glyphname = uni1783;
lastChange = "2020-01-28 08:13:25 +0000";
layers = (
{
layerId = "060F58F1-3EA2-4F98-A18F-48F5C294967E";
paths = (
{
closed = 1;
nodes = (
"682 827 LINE",
"772 704 LINE",
"772 323 LINE SMOOTH",
"772 260 OFFCURVE",
"723 228 OFFCURVE",
"625 228 CURVE SMOOTH",
"527 228 OFFCURVE",
"478 260 OFFCURVE",
"478 323 CURVE SMOOTH",
"478 495 LINE",
"546 616 OFFCURVE",
"580 748 OFFCURVE",
"580 890 CURVE SMOOTH",
"580 1160 LINE",
"110 1160 LINE",
"110 932 LINE",
"262 932 LINE",
"262 890 LINE SMOOTH",
"262 762 OFFCURVE",
"211 646 OFFCURVE",
"110 543 CURVE",
"110 323 LINE SMOOTH",
"110 108 OFFCURVE",
"282 0 OFFCURVE",
"625 0 CURVE SMOOTH",
"775 0 OFFCURVE",
"885 30 OFFCURVE",
"956 91 CURVE",
"1027 30 OFFCURVE",
"1137 0 OFFCURVE",
"1287 0 CURVE SMOOTH",
"1630 0 OFFCURVE",
"1802 108 OFFCURVE",
"1802 323 CURVE SMOOTH",
"1802 704 LINE SMOOTH",
"1802 749 OFFCURVE",
"1769 790 OFFCURVE",
"1702 826 CURVE SMOOTH",
"1602 880 LINE",
"1602 932 LINE",
"1802 932 LINE",
"1802 1160 LINE",
"1512 1160 LINE SMOOTH",
"1360 1160 OFFCURVE",
"1284 1084 OFFCURVE",
"1284 932 CURVE SMOOTH",
"1284 827 LINE",
"1434 704 LINE",
"1434 323 LINE SMOOTH",
"1434 260 OFFCURVE",
"1385 228 OFFCURVE",
"1287 228 CURVE SMOOTH",
"1189 228 OFFCURVE",
"1140 260 OFFCURVE",
"1140 323 CURVE SMOOTH",
"1140 704 LINE SMOOTH",
"1140 749 OFFCURVE",
"1115 790 OFFCURVE",
"1065 826 CURVE SMOOTH",
"990 880 LINE",
"990 932 LINE",
"1160 932 LINE",
"1160 1160 LINE",
"900 1160 LINE SMOOTH",
"755 1160 OFFCURVE",
"682 1094 OFFCURVE",
"682 962 CURVE SMOOTH"
);
}
);
userData = {
assembly = "NPUSHB[ ]	/* 17 values pushed */\01251 50 44 35 22 15 14 5 8 2 1 30 1 5 2 2 76 \012MPPEM[ ]	/* MeasurePixelPerEm */\012PUSHB[ ]	/* 1 value pushed */\01234 \012LT[ ]	/* LessThan */\012IF[ ]	/* If */\012NPUSHB[ ]	/* 27 values pushed */\0127 4 2 1 1 0 95 8 3 2 0 0 17 77 9 1 2 2 5 97 6 1 5 5 19 5 78 \012ELSE[ ]	/* Else */\012NPUSHB[ ]	/* 25 values pushed */\0128 3 2 0 7 4 2 1 2 0 1 103 9 1 2 2 5 97 6 1 5 5 19 5 78 \012EIF[ ]	/* EndIf */\012NPUSHB[ ]	/* 14 values pushed */\01248 46 17 21 34 38 17 37 38 17 32 10 7 31 \012CALL[ ]	/* CallFunction */";
};
width = 1912;
}
);
note = uni1783;
unicode = 1783;
},
{
glyphname = uni1784;
lastChange = "2020-01-28 08:13:18 +0000";
layers = (
{
layerId = "060F58F1-3EA2-4F98-A18F-48F5C294967E";
paths = (
{
closed = 1;
nodes = (
"50 610 LINE",
"50 466 LINE",
"110 466 LINE",
"110 0 LINE",
"509 0 LINE",
"651 160 LINE",
"792 0 LINE",
"1190 0 LINE",
"1190 630 LINE",
"1057 791 LINE",
"1112 836 OFFCURVE",
"1140 892 OFFCURVE",
"1140 958 CURVE SMOOTH",
"1140 1093 OFFCURVE",
"1047 1160 OFFCURVE",
"861 1160 CURVE SMOOTH",
"700 1160 OFFCURVE",
"619 1101 OFFCURVE",
"619 983 CURVE SMOOTH",
"619 964 OFFCURVE",
"631 934 OFFCURVE",
"655 894 CURVE",
"650 893 OFFCURVE",
"639 893 OFFCURVE",
"620 893 CURVE SMOOTH",
"525 893 OFFCURVE",
"478 926 OFFCURVE",
"478 992 CURVE SMOOTH",
"478 1340 LINE",
"110 1340 LINE",
"110 992 LINE SMOOTH",
"110 781 OFFCURVE",
"280 675 OFFCURVE",
"620 675 CURVE SMOOTH",
"651 675 OFFCURVE",
"700 678 OFFCURVE",
"766 685 CURVE",
"822 560 LINE",
"822 295 LINE",
"651 455 LINE",
"478 294 LINE",
"478 610 LINE"
);
},
{
closed = 1;
nodes = (
"902 961 OFFCURVE",
"889 941 OFFCURVE",
"864 918 CURVE",
"834 947 OFFCURVE",
"819 969 OFFCURVE",
"819 982 CURVE SMOOTH",
"819 1002 OFFCURVE",
"833 1012 OFFCURVE",
"861 1012 CURVE SMOOTH",
"888 1012 OFFCURVE",
"902 1001 OFFCURVE",
"902 978 CURVE SMOOTH"
);
}
);
userData = {
assembly = "NPUSHB[ ]	/* 26 values pushed */\01239 1 2 8 24 5 2 0 2 25 1 7 0 4 1 6 7 28 3 2 1 4 4 6 5 76 \012MPPEM[ ]	/* MeasurePixelPerEm */\012PUSHB[ ]	/* 1 value pushed */\01234 \012LT[ ]	/* LessThan */\012IF[ ]	/* If */\012NPUSHB[ ]	/* 39 values pushed */\0120 1 3 1 133 0 2 0 0 7 2 0 106 9 1 7 0 6 4 7 6 103 0 8 8 3 97 0 3 3 17 77 5 1 4 4 19 4 78 \012ELSE[ ]	/* Else */\012NPUSHB[ ]	/* 37 values pushed */\0120 1 3 1 133 0 3 0 8 2 3 8 105 0 2 0 0 7 2 0 106 9 1 7 0 6 4 7 6 103 5 1 4 4 19 4 78 \012EIF[ ]	/* EndIf */\012NPUSHB[ ]	/* 18 values pushed */\0120 0 36 34 0 33 0 33 17 18 21 36 34 18 38 10 7 29 \012CALL[ ]	/* CallFunction */";
};
width = 1300;
}
);
note = uni1784;
unicode = 1784;
},
{
glyphname = uni1785;
lastChange = "2020-01-28 08:13:14 +0000";
layers = (
{
layerId = "060F58F1-3EA2-4F98-A18F-48F5C294967E";
paths = (
{
closed = 1;
nodes = (
"700 582 LINE",
"822 582 LINE",
"822 323 LINE SMOOTH",
"822 260 OFFCURVE",
"765 228 OFFCURVE",
"650 228 CURVE SMOOTH",
"535 228 OFFCURVE",
"478 260 OFFCURVE",
"478 323 CURVE SMOOTH",
"478 714 LINE SMOOTH",
"478 747 OFFCURVE",
"435 805 OFFCURVE",
"348 890 CURVE",
"348 932 LINE",
"1190 932 LINE",
"1190 1160 LINE",
"258 1160 LINE SMOOTH",
"113 1160 OFFCURVE",
"40 1097 OFFCURVE",
"40 972 CURVE SMOOTH",
"40 847 LINE",
"110 714 LINE",
"110 323 LINE SMOOTH",
"110 108 OFFCURVE",
"290 0 OFFCURVE",
"650 0 CURVE SMOOTH",
"1010 0 OFFCURVE",
"1190 108 OFFCURVE",
"1190 323 CURVE SMOOTH",
"1190 820 LINE",
"700 820 LINE"
);
}
);
userData = {
assembly = "NPUSHB[ ]	/* 11 values pushed */\01215 8 2 0 3 7 1 5 0 2 76 \012MPPEM[ ]	/* MeasurePixelPerEm */\012PUSHB[ ]	/* 1 value pushed */\01234 \012LT[ ]	/* LessThan */\012IF[ ]	/* If */\012NPUSHB[ ]	/* 29 values pushed */\0120 0 0 5 4 0 5 103 0 3 3 2 95 0 2 2 17 77 0 4 4 1 97 0 1 1 19 1 78 \012ELSE[ ]	/* Else */\012NPUSHB[ ]	/* 27 values pushed */\0120 2 0 3 0 2 3 103 0 0 0 5 4 0 5 103 0 4 4 1 97 0 1 1 19 1 78 \012EIF[ ]	/* EndIf */\012NPUSHB[ ]	/* 9 values pushed */\01218 37 17 37 34 16 6 7 28 \012CALL[ ]	/* CallFunction */";
};
width = 1300;
}
);
note = uni1785;
unicode = 1785;
},
{
glyphname = uni1786;
lastChange = "2020-01-28 08:13:10 +0000";
layers = (
{
layerId = "060F58F1-3EA2-4F98-A18F-48F5C294967E";
paths = (
{
closed = 1;
nodes = (
"40 847 LINE",
"110 714 LINE",
"110 430 LINE",
"40 430 LINE",
"40 172 LINE",
"110 172 LINE",
"110 0 LINE",
"478 0 LINE",
"478 179 LINE",
"579 60 OFFCURVE",
"677 0 OFFCURVE",
"770 0 CURVE SMOOTH",
"1050 0 OFFCURVE",
"1190 108 OFFCURVE",
"1190 323 CURVE SMOOTH",
"1190 820 LINE",
"700 820 LINE",
"700 582 LINE",
"822 582 LINE",
"822 323 LINE SMOOTH",
"822 260 OFFCURVE",
"805 228 OFFCURVE",
"770 228 CURVE SMOOTH",
"729 228 OFFCURVE",
"655 295 OFFCURVE",
"548 430 CURVE",
"478 430 LINE",
"478 714 LINE SMOOTH",
"478 747 OFFCURVE",
"435 805 OFFCURVE",
"348 890 CURVE",
"348 932 LINE",
"1190 932 LINE",
"1190 1160 LINE",
"258 1160 LINE SMOOTH",
"113 1160 OFFCURVE",
"40 1097 OFFCURVE",
"40 972 CURVE SMOOTH"
);
}
);
userData = {
assembly = "NPUSHB[ ]	/* 15 values pushed */\01230 5 2 5 1 29 1 4 5 22 1 8 3 3 76 \012MPPEM[ ]	/* MeasurePixelPerEm */\012PUSHB[ ]	/* 1 value pushed */\01234 \012LT[ ]	/* LessThan */\012IF[ ]	/* If */\012NPUSHB[ ]	/* 39 values pushed */\0120 5 0 4 2 5 4 103 9 1 2 0 8 6 2 8 103 0 1 1 0 95 0 0 0 17 77 0 3 3 6 97 7 1 6 6 19 6 78 \012ELSE[ ]	/* Else */\012NPUSHB[ ]	/* 37 values pushed */\0120 0 0 1 5 0 1 103 0 5 0 4 2 5 4 103 9 1 2 0 8 6 2 8 103 0 3 3 6 97 7 1 6 6 19 6 78 \012EIF[ ]	/* EndIf */\012NPUSHB[ ]	/* 14 values pushed */\01228 27 17 18 34 17 18 33 20 17 32 10 7 31 \012CALL[ ]	/* CallFunction */";
};
width = 1300;
}
);
note = uni1786;
unicode = 1786;
},
{
glyphname = uni1787;
lastChange = "2020-01-28 08:13:02 +0000";
layers = (
{
layerId = "060F58F1-3EA2-4F98-A18F-48F5C294967E";
paths = (
{
closed = 1;
nodes = (
"792 0 LINE",
"1190 0 LINE",
"1190 780 LINE",
"822 780 LINE",
"822 295 LINE",
"651 455 LINE",
"478 294 LINE",
"478 714 LINE SMOOTH",
"478 747 OFFCURVE",
"435 805 OFFCURVE",
"348 890 CURVE",
"348 932 LINE",
"385 932 LINE SMOOTH",
"405 932 OFFCURVE",
"458 922 OFFCURVE",
"543 902 CURVE SMOOTH",
"615 882 OFFCURVE",
"684 872 OFFCURVE",
"750 872 CURVE SMOOTH",
"1043 872 OFFCURVE",
"1190 983 OFFCURVE",
"1190 1205 CURVE SMOOTH",
"1190 1280 LINE",
"822 1280 LINE",
"822 1205 LINE SMOOTH",
"822 1135 OFFCURVE",
"795 1100 OFFCURVE",
"740 1100 CURVE SMOOTH",
"633 1100 OFFCURVE",
"554 1110 OFFCURVE",
"501 1130 CURVE",
"435 1150 OFFCURVE",
"386 1160 OFFCURVE",
"355 1160 CURVE SMOOTH",
"258 1160 LINE SMOOTH",
"113 1160 OFFCURVE",
"40 1097 OFFCURVE",
"40 972 CURVE SMOOTH",
"40 847 LINE",
"110 714 LINE",
"110 0 LINE",
"509 0 LINE",
"651 160 LINE"
);
}
);
userData = {
assembly = "NPUSHB[ ]	/* 17 values pushed */\01225 1 4 5 4 1 6 4 30 29 28 3 4 0 6 3 76 \012MPPEM[ ]	/* MeasurePixelPerEm */\012PUSHB[ ]	/* 1 value pushed */\01214 \012LT[ ]	/* LessThan */\012IF[ ]	/* If */\012NPUSHB[ ]	/* 38 values pushed */\0120 3 1 2 3 112 0 5 5 1 97 0 1 1 17 77 0 4 4 2 97 0 2 2 17 77 0 6 6 0 95 7 1 0 0 19 0 78 \012ELSE[ ]	/* Else */\012MPPEM[ ]	/* MeasurePixelPerEm */\012PUSHB[ ]	/* 1 value pushed */\01234 \012LT[ ]	/* LessThan */\012IF[ ]	/* If */\012NPUSHB[ ]	/* 37 values pushed */\0120 3 1 3 133 0 5 5 1 97 0 1 1 17 77 0 4 4 2 97 0 2 2 17 77 0 6 6 0 95 7 1 0 0 19 0 78 \012ELSE[ ]	/* Else */\012NPUSHB[ ]	/* 33 values pushed */\0120 3 1 3 133 0 1 0 5 4 1 5 105 0 2 0 4 6 2 4 106 0 6 6 0 95 7 1 0 0 19 0 78 \012EIF[ ]	/* EndIf */\012EIF[ ]	/* EndIf */\012NPUSHB[ ]	/* 11 values pushed */\01217 23 34 34 18 34 52 17 8 7 30 \012CALL[ ]	/* CallFunction */";
};
width = 1300;
}
);
note = uni1787;
unicode = 1787;
},
{
glyphname = uni1788;
lastChange = "2020-01-28 08:18:31 +0000";
layers = (
{
layerId = "060F58F1-3EA2-4F98-A18F-48F5C294967E";
paths = (
{
closed = 1;
nodes = (
"1946 827 LINE",
"2096 704 LINE",
"2096 323 LINE SMOOTH",
"2096 260 OFFCURVE",
"2047 228 OFFCURVE",
"1949 228 CURVE SMOOTH",
"1851 228 OFFCURVE",
"1802 260 OFFCURVE",
"1802 323 CURVE SMOOTH",
"1802 704 LINE SMOOTH",
"1802 749 OFFCURVE",
"1769 790 OFFCURVE",
"1702 826 CURVE SMOOTH",
"1602 880 LINE",
"1602 932 LINE",
"1802 932 LINE",
"1802 1160 LINE",
"1512 1160 LINE SMOOTH",
"1360 1160 OFFCURVE",
"1284 1084 OFFCURVE",
"1284 932 CURVE SMOOTH",
"1284 827 LINE",
"1434 704 LINE",
"1434 323 LINE SMOOTH",
"1434 260 OFFCURVE",
"1385 228 OFFCURVE",
"1287 228 CURVE SMOOTH",
"1189 228 OFFCURVE",
"1140 260 OFFCURVE",
"1140 323 CURVE SMOOTH",
"1140 807 LINE SMOOTH",
"1140 1042 OFFCURVE",
"968 1160 OFFCURVE",
"625 1160 CURVE SMOOTH",
"282 1160 OFFCURVE",
"110 1042 OFFCURVE",
"110 807 CURVE SMOOTH",
"110 298 LINE SMOOTH",
"110 99 OFFCURVE",
"230 0 OFFCURVE",
"470 0 CURVE SMOOTH",
"600 0 LINE",
"600 228 LINE",
"530 228 LINE SMOOTH",
"495 228 OFFCURVE",
"478 251 OFFCURVE",
"478 298 CURVE SMOOTH",
"478 807 LINE SMOOTH",
"478 890 OFFCURVE",
"527 932 OFFCURVE",
"625 932 CURVE SMOOTH",
"723 932 OFFCURVE",
"772 890 OFFCURVE",
"772 807 CURVE SMOOTH",
"772 323 LINE SMOOTH",
"772 108 OFFCURVE",
"944 0 OFFCURVE",
"1287 0 CURVE SMOOTH",
"1437 0 OFFCURVE",
"1547 30 OFFCURVE",
"1618 91 CURVE",
"1689 30 OFFCURVE",
"1799 0 OFFCURVE",
"1949 0 CURVE SMOOTH",
"2292 0 OFFCURVE",
"2464 108 OFFCURVE",
"2464 323 CURVE SMOOTH",
"2464 704 LINE SMOOTH",
"2464 749 OFFCURVE",
"2431 790 OFFCURVE",
"2364 826 CURVE SMOOTH",
"2264 880 LINE",
"2264 932 LINE",
"2464 932 LINE",
"2464 1160 LINE",
"2174 1160 LINE SMOOTH",
"2022 1160 OFFCURVE",
"1946 1084 OFFCURVE",
"1946 932 CURVE SMOOTH"
);
}
);
userData = {
assembly = "NPUSHB[ ]	/* 15 values pushed */\01259 58 49 42 41 5 6 5 1 13 1 2 5 2 76 \012MPPEM[ ]	/* MeasurePixelPerEm */\012PUSHB[ ]	/* 1 value pushed */\01234 \012LT[ ]	/* LessThan */\012IF[ ]	/* If */\012NPUSHB[ ]	/* 29 values pushed */\01210 4 2 1 1 0 95 9 7 2 0 0 17 77 11 8 2 5 5 2 97 6 3 2 2 2 19 2 78 \012ELSE[ ]	/* Else */\012NPUSHB[ ]	/* 27 values pushed */\0129 7 2 0 10 4 2 1 5 0 1 103 11 8 2 5 5 2 97 6 3 2 2 2 19 2 78 \012EIF[ ]	/* EndIf */\012NPUSHB[ ]	/* 18 values pushed */\01256 54 48 47 46 44 35 35 33 35 35 34 38 17 32 12 7 31 \012CALL[ ]	/* CallFunction */";
};
width = 2574;
}
);
note = uni1788;
unicode = 1788;
},
{
glyphname = uni1789;
lastChange = "2020-01-28 08:18:35 +0000";
layers = (
{
layerId = "060F58F1-3EA2-4F98-A18F-48F5C294967E";
paths = (
{
closed = 1;
nodes = (
"1058 1129 OFFCURVE",
"982 1160 OFFCURVE",
"877 1160 CURVE SMOOTH",
"800 1160 OFFCURVE",
"725 1119 OFFCURVE",
"650 1036 CURVE",
"576 1119 OFFCURVE",
"501 1160 OFFCURVE",
"425 1160 CURVE SMOOTH",
"215 1160 OFFCURVE",
"110 1051 OFFCURVE",
"110 833 CURVE SMOOTH",
"110 298 LINE SMOOTH",
"110 99 OFFCURVE",
"230 0 OFFCURVE",
"470 0 CURVE SMOOTH",
"600 0 LINE",
"600 228 LINE",
"530 228 LINE SMOOTH",
"495 228 OFFCURVE",
"478 251 OFFCURVE",
"478 298 CURVE SMOOTH",
"478 833 LINE SMOOTH",
"478 878 OFFCURVE",
"483 900 OFFCURVE",
"494 900 CURVE SMOOTH",
"505 900 OFFCURVE",
"537 869 OFFCURVE",
"591 806 CURVE SMOOTH",
"609 785 OFFCURVE",
"629 775 OFFCURVE",
"650 775 CURVE SMOOTH",
"671 775 OFFCURVE",
"691 785 OFFCURVE",
"709 806 CURVE SMOOTH",
"764 869 OFFCURVE",
"796 900 OFFCURVE",
"807 900 CURVE SMOOTH",
"817 900 OFFCURVE",
"822 878 OFFCURVE",
"822 833 CURVE SMOOTH",
"822 0 LINE",
"1190 0 LINE",
"1190 807 LINE SMOOTH",
"1190 890 OFFCURVE",
"1254 932 OFFCURVE",
"1382 932 CURVE SMOOTH",
"1450 932 OFFCURVE",
"1484 890 OFFCURVE",
"1484 807 CURVE SMOOTH",
"1484 0 LINE",
"1852 0 LINE",
"1852 807 LINE SMOOTH",
"1852 1042 OFFCURVE",
"1705 1160 OFFCURVE",
"1412 1160 CURVE SMOOTH",
"1303 1160 OFFCURVE",
"1201 1129 OFFCURVE",
"1104 1068 CURVE"
);
},
{
closed = 1;
nodes = (
"1412 -50 LINE",
"1412 -230 LINE",
"1440 -230 LINE SMOOTH",
"1469 -230 OFFCURVE",
"1484 -245 OFFCURVE",
"1484 -275 CURVE SMOOTH",
"1484 -292 OFFCURVE",
"1467 -300 OFFCURVE",
"1434 -300 CURVE SMOOTH",
"1340 -300 OFFCURVE",
"1237 -265 OFFCURVE",
"1126 -195 CURVE SMOOTH",
"1015 -125 OFFCURVE",
"844 -90 OFFCURVE",
"612 -90 CURVE SMOOTH",
"110 -90 LINE",
"110 -330 LINE",
"612 -330 LINE SMOOTH",
"789 -330 OFFCURVE",
"930 -358 OFFCURVE",
"1037 -415 CURVE SMOOTH",
"1144 -472 OFFCURVE",
"1276 -500 OFFCURVE",
"1434 -500 CURVE SMOOTH",
"1713 -500 OFFCURVE",
"1852 -425 OFFCURVE",
"1852 -275 CURVE SMOOTH",
"1852 -125 OFFCURVE",
"1715 -50 OFFCURVE",
"1440 -50 CURVE SMOOTH"
);
}
);
userData = {
assembly = "PUSHB[ ]	/* 6 values pushed */\01237 1 2 0 1 76 \012MPPEM[ ]	/* MeasurePixelPerEm */\012PUSHB[ ]	/* 1 value pushed */\01216 \012LT[ ]	/* LessThan */\012IF[ ]	/* If */\012NPUSHB[ ]	/* 62 values pushed */\0120 5 2 7 2 5 7 128 17 1 16 0 15 14 16 15 105 0 13 0 12 11 13 12 103 6 4 2 2 2 0 97 10 9 2 0 0 17 77 0 7 7 1 95 8 3 2 1 1 19 77 0 14 14 11 97 0 11 11 20 11 78 \012ELSE[ ]	/* Else */\012MPPEM[ ]	/* MeasurePixelPerEm */\012PUSHB[ ]	/* 1 value pushed */\01221 \012LT[ ]	/* LessThan */\012IF[ ]	/* If */\012NPUSHB[ ]	/* 73 values pushed */\0120 5 4 7 4 5 7 128 17 1 16 0 15 14 16 15 105 0 13 0 12 11 13 12 103 0 2 2 0 97 10 9 2 0 0 17 77 6 1 4 4 0 97 10 9 2 0 0 17 77 0 7 7 1 95 8 3 2 1 1 19 77 0 14 14 11 97 0 11 11 20 11 78 \012ELSE[ ]	/* Else */\012MPPEM[ ]	/* MeasurePixelPerEm */\012PUSHB[ ]	/* 1 value pushed */\01225 \012LT[ ]	/* LessThan */\012IF[ ]	/* If */\012NPUSHB[ ]	/* 77 values pushed */\0120 5 4 7 4 5 7 128 0 2 2 0 97 10 9 2 0 0 17 77 6 1 4 4 0 97 10 9 2 0 0 17 77 0 7 7 1 95 8 3 2 1 1 19 77 0 15 15 16 97 17 1 16 16 18 77 0 12 12 13 95 0 13 13 18 77 0 14 14 11 97 0 11 11 20 11 78 \012ELSE[ ]	/* Else */\012MPPEM[ ]	/* MeasurePixelPerEm */\012PUSHB[ ]	/* 1 value pushed */\01234 \012LT[ ]	/* LessThan */\012IF[ ]	/* If */\012NPUSHB[ ]	/* 72 values pushed */\0120 5 4 7 4 5 7 128 0 13 0 12 11 13 12 103 0 14 0 11 14 11 101 0 2 2 0 97 10 9 2 0 0 17 77 6 1 4 4 0 97 10 9 2 0 0 17 77 0 7 7 1 95 8 3 2 1 1 19 77 0 15 15 16 97 17 1 16 16 18 15 78 \012ELSE[ ]	/* Else */\012NPUSHB[ ]	/* 64 values pushed */\0120 5 4 7 4 5 7 128 0 2 4 0 2 89 10 9 2 0 6 1 4 5 0 4 105 0 13 0 12 11 13 12 103 0 14 0 11 14 11 101 0 7 7 1 95 8 3 2 1 1 19 77 0 15 15 16 97 17 1 16 16 18 15 78 \012EIF[ ]	/* EndIf */\012EIF[ ]	/* EndIf */\012EIF[ ]	/* EndIf */\012EIF[ ]	/* EndIf */\012NPUSHB[ ]	/* 32 values pushed */\01242 42 42 63 42 62 61 59 57 55 53 51 50 48 46 44 40 38 36 34 33 35 18 34 18 18 34 18 33 18 7 31 \012CALL[ ]	/* CallFunction */";
};
width = 1962;
}
);
note = uni1789;
unicode = 1789;
},
{
glyphname = uni178A;
lastChange = "2020-01-28 08:18:39 +0000";
layers = (
{
layerId = "060F58F1-3EA2-4F98-A18F-48F5C294967E";
paths = (
{
closed = 1;
nodes = (
"1190 1340 LINE",
"822 1340 LINE",
"822 982 LINE SMOOTH",
"822 916 OFFCURVE",
"765 883 OFFCURVE",
"650 883 CURVE SMOOTH",
"535 883 OFFCURVE",
"478 899 OFFCURVE",
"478 932 CURVE",
"530 932 LINE",
"530 1160 LINE",
"388 1160 LINE SMOOTH",
"203 1160 OFFCURVE",
"110 1084 OFFCURVE",
"110 932 CURVE SMOOTH",
"110 754 OFFCURVE",
"290 665 OFFCURVE",
"650 665 CURVE SMOOTH",
"1010 665 OFFCURVE",
"1190 771 OFFCURVE",
"1190 982 CURVE SMOOTH"
);
},
{
closed = 1;
nodes = (
"110 600 LINE",
"110 0 LINE",
"509 0 LINE",
"651 160 LINE",
"792 0 LINE",
"1190 0 LINE",
"1190 600 LINE",
"822 600 LINE",
"822 295 LINE",
"651 455 LINE",
"478 294 LINE",
"478 600 LINE"
);
}
);
userData = {
assembly = "NPUSHB[ ]	/* 9 values pushed */\01224 19 18 17 4 6 5 1 76 \012MPPEM[ ]	/* MeasurePixelPerEm */\012PUSHB[ ]	/* 1 value pushed */\01234 \012LT[ ]	/* LessThan */\012IF[ ]	/* If */\012NPUSHB[ ]	/* 37 values pushed */\0120 4 1 4 133 0 3 0 0 5 3 0 106 0 2 2 1 97 0 1 1 17 77 9 8 2 5 5 6 95 7 1 6 6 19 6 78 \012ELSE[ ]	/* Else */\012NPUSHB[ ]	/* 35 values pushed */\0120 4 1 4 133 0 1 0 2 3 1 2 103 0 3 0 0 5 3 0 106 9 8 2 5 5 6 95 7 1 6 6 19 6 78 \012EIF[ ]	/* EndIf */\012NPUSHB[ ]	/* 17 values pushed */\01216 16 16 27 16 27 18 17 21 18 33 17 34 33 10 7 30 \012CALL[ ]	/* CallFunction */";
};
width = 1300;
}
);
note = uni178A;
unicode = 178A;
},
{
glyphname = uni178B;
lastChange = "2020-01-28 08:18:43 +0000";
layers = (
{
layerId = "060F58F1-3EA2-4F98-A18F-48F5C294967E";
paths = (
{
closed = 1;
nodes = (
"478 495 LINE",
"539 616 OFFCURVE",
"570 748 OFFCURVE",
"570 890 CURVE SMOOTH",
"570 1130 LINE",
"110 1130 LINE",
"110 932 LINE",
"262 932 LINE",
"262 890 LINE SMOOTH",
"262 761 OFFCURVE",
"211 646 OFFCURVE",
"110 543 CURVE",
"110 323 LINE SMOOTH",
"110 108 OFFCURVE",
"290 0 OFFCURVE",
"650 0 CURVE SMOOTH",
"1010 0 OFFCURVE",
"1190 108 OFFCURVE",
"1190 323 CURVE SMOOTH",
"1190 681 LINE SMOOTH",
"1190 722 OFFCURVE",
"1150 767 OFFCURVE",
"1069 816 CURVE SMOOTH",
"948 890 LINE",
"948 932 LINE",
"1190 932 LINE",
"1190 1340 LINE",
"822 1340 LINE",
"822 1130 LINE",
"808 1130 LINE SMOOTH",
"709 1130 OFFCURVE",
"660 1077 OFFCURVE",
"660 972 CURVE SMOOTH",
"660 837 LINE",
"822 674 LINE",
"822 323 LINE SMOOTH",
"822 240 OFFCURVE",
"765 198 OFFCURVE",
"650 198 CURVE SMOOTH",
"535 198 OFFCURVE",
"478 240 OFFCURVE",
"478 323 CURVE SMOOTH"
);
}
);
userData = {
assembly = "NPUSHB[ ]	/* 49 values pushed */\01232 23 14 5 4 5 0 3 1 76 0 2 1 3 2 87 5 1 3 3 1 97 6 1 1 1 17 77 0 0 0 4 98 0 4 4 19 4 78 17 21 38 17 18 21 32 7 7 29 \012CALL[ ]	/* CallFunction */";
};
width = 1300;
}
);
note = uni178B;
unicode = 178B;
},
{
glyphname = uni178C;
lastChange = "2020-01-28 08:18:46 +0000";
layers = (
{
layerId = "060F58F1-3EA2-4F98-A18F-48F5C294967E";
paths = (
{
closed = 1;
nodes = (
"822 -50 LINE",
"1190 -50 LINE",
"1190 400 LINE",
"822 400 LINE",
"822 317 LINE",
"769 258 OFFCURVE",
"671 228 OFFCURVE",
"530 228 CURVE SMOOTH",
"475 228 OFFCURVE",
"448 248 OFFCURVE",
"448 287 CURVE SMOOTH",
"448 353 OFFCURVE",
"465 386 OFFCURVE",
"500 386 CURVE SMOOTH",
"960 386 OFFCURVE",
"1190 542 OFFCURVE",
"1190 853 CURVE SMOOTH",
"1190 1058 OFFCURVE",
"1086 1160 OFFCURVE",
"877 1160 CURVE SMOOTH",
"800 1160 OFFCURVE",
"725 1119 OFFCURVE",
"650 1036 CURVE",
"576 1119 OFFCURVE",
"501 1160 OFFCURVE",
"425 1160 CURVE SMOOTH",
"216 1160 OFFCURVE",
"111 1058 OFFCURVE",
"110 853 CURVE SMOOTH",
"110 714 OFFCURVE",
"215 645 OFFCURVE",
"424 645 CURVE SMOOTH",
"540 645 LINE",
"540 823 LINE",
"504 823 LINE SMOOTH",
"487 823 OFFCURVE",
"478 833 OFFCURVE",
"478 853 CURVE SMOOTH",
"478 898 OFFCURVE",
"483 920 OFFCURVE",
"494 920 CURVE SMOOTH",
"505 920 OFFCURVE",
"537 889 OFFCURVE",
"591 826 CURVE SMOOTH",
"609 805 OFFCURVE",
"629 795 OFFCURVE",
"650 795 CURVE SMOOTH",
"671 795 OFFCURVE",
"691 805 OFFCURVE",
"709 826 CURVE SMOOTH",
"764 889 OFFCURVE",
"796 920 OFFCURVE",
"807 920 CURVE SMOOTH",
"817 920 OFFCURVE",
"822 898 OFFCURVE",
"822 853 CURVE SMOOTH",
"822 674 OFFCURVE",
"715 584 OFFCURVE",
"500 584 CURVE SMOOTH",
"240 584 OFFCURVE",
"110 485 OFFCURVE",
"110 287 CURVE SMOOTH",
"110 96 OFFCURVE",
"250 0 OFFCURVE",
"530 0 CURVE SMOOTH",
"649 0 OFFCURVE",
"746 38 OFFCURVE",
"822 115 CURVE"
);
}
);
userData = {
assembly = "NPUSHB[ ]	/* 14 values pushed */\01230 1 2 7 42 1 10 9 47 1 0 10 3 76 \012MPPEM[ ]	/* MeasurePixelPerEm */\012PUSHB[ ]	/* 1 value pushed */\01214 \012LT[ ]	/* LessThan */\012IF[ ]	/* If */\012NPUSHB[ ]	/* 59 values pushed */\0120 3 5 6 5 3 6 128 0 11 1 9 1 11 114 0 12 0 12 134 0 5 0 6 1 5 6 105 0 1 0 9 10 1 9 105 4 1 2 2 7 97 8 1 7 7 17 77 0 10 10 0 97 0 0 0 19 0 78 \012ELSE[ ]	/* Else */\012MPPEM[ ]	/* MeasurePixelPerEm */\012PUSHB[ ]	/* 1 value pushed */\01216 \012LT[ ]	/* LessThan */\012IF[ ]	/* If */\012NPUSHB[ ]	/* 60 values pushed */\0120 3 5 6 5 3 6 128 0 11 1 9 1 11 9 128 0 12 0 12 134 0 5 0 6 1 5 6 105 0 1 0 9 10 1 9 105 4 1 2 2 7 97 8 1 7 7 17 77 0 10 10 0 97 0 0 0 19 0 78 \012ELSE[ ]	/* Else */\012MPPEM[ ]	/* MeasurePixelPerEm */\012PUSHB[ ]	/* 1 value pushed */\01221 \012LT[ ]	/* LessThan */\012IF[ ]	/* If */\012NPUSHB[ ]	/* 60 values pushed */\0120 3 5 6 5 3 6 128 0 11 1 9 1 11 9 128 0 5 0 6 1 5 6 105 0 1 0 9 10 1 9 105 4 1 2 2 7 97 8 1 7 7 17 77 0 10 10 0 97 0 0 0 19 77 0 12 12 19 12 78 \012ELSE[ ]	/* Else */\012MPPEM[ ]	/* MeasurePixelPerEm */\012PUSHB[ ]	/* 1 value pushed */\01234 \012LT[ ]	/* LessThan */\012IF[ ]	/* If */\012NPUSHB[ ]	/* 60 values pushed */\0120 3 5 6 5 3 6 128 0 11 1 9 1 11 9 128 0 12 0 12 134 0 5 0 6 1 5 6 105 0 1 0 9 10 1 9 105 4 1 2 2 7 97 8 1 7 7 17 77 0 10 10 0 97 0 0 0 19 0 78 \012ELSE[ ]	/* Else */\012NPUSHB[ ]	/* 58 values pushed */\0120 3 5 6 5 3 6 128 0 11 1 9 1 11 9 128 0 12 0 12 134 8 1 7 4 1 2 5 7 2 105 0 5 0 6 1 5 6 105 0 1 0 9 10 1 9 105 0 10 10 0 97 0 0 0 19 0 78 \012EIF[ ]	/* EndIf */\012EIF[ ]	/* EndIf */\012EIF[ ]	/* EndIf */\012EIF[ ]	/* EndIf */\012NPUSHB[ ]	/* 20 values pushed */\01246 45 44 43 41 39 37 35 34 34 33 34 34 34 34 34 32 13 7 31 \012CALL[ ]	/* CallFunction */";
};
width = 1300;
}
);
note = uni178C;
unicode = 178C;
},
{
glyphname = uni178D;
lastChange = "2020-01-28 08:18:49 +0000";
layers = (
{
layerId = "060F58F1-3EA2-4F98-A18F-48F5C294967E";
paths = (
{
closed = 1;
nodes = (
"1802 704 LINE SMOOTH",
"1802 749 OFFCURVE",
"1769 790 OFFCURVE",
"1702 826 CURVE SMOOTH",
"1602 880 LINE",
"1602 932 LINE",
"1802 932 LINE",
"1802 1160 LINE",
"1512 1160 LINE SMOOTH",
"1360 1160 OFFCURVE",
"1284 1084 OFFCURVE",
"1284 932 CURVE SMOOTH",
"1284 827 LINE",
"1434 704 LINE",
"1434 323 LINE SMOOTH",
"1434 260 OFFCURVE",
"1423 228 OFFCURVE",
"1402 228 CURVE SMOOTH",
"1380 228 OFFCURVE",
"1333 285 OFFCURVE",
"1260 400 CURVE",
"1190 400 LINE",
"1190 833 LINE SMOOTH",
"1190 1051 OFFCURVE",
"1086 1160 OFFCURVE",
"877 1160 CURVE SMOOTH",
"800 1160 OFFCURVE",
"725 1119 OFFCURVE",
"650 1036 CURVE",
"576 1119 OFFCURVE",
"501 1160 OFFCURVE",
"425 1160 CURVE SMOOTH",
"215 1160 OFFCURVE",
"110 1051 OFFCURVE",
"110 833 CURVE SMOOTH",
"110 298 LINE SMOOTH",
"110 99 OFFCURVE",
"230 0 OFFCURVE",
"470 0 CURVE SMOOTH",
"600 0 LINE",
"600 258 LINE",
"530 258 LINE SMOOTH",
"495 258 OFFCURVE",
"478 271 OFFCURVE",
"478 298 CURVE SMOOTH",
"478 833 LINE SMOOTH",
"478 878 OFFCURVE",
"483 900 OFFCURVE",
"494 900 CURVE SMOOTH",
"505 900 OFFCURVE",
"537 869 OFFCURVE",
"591 806 CURVE SMOOTH",
"609 785 OFFCURVE",
"629 775 OFFCURVE",
"650 775 CURVE SMOOTH",
"671 775 OFFCURVE",
"691 785 OFFCURVE",
"709 806 CURVE SMOOTH",
"764 869 OFFCURVE",
"796 900 OFFCURVE",
"807 900 CURVE SMOOTH",
"817 900 OFFCURVE",
"822 878 OFFCURVE",
"822 833 CURVE SMOOTH",
"822 400 LINE",
"752 400 LINE",
"752 142 LINE",
"822 142 LINE",
"822 0 LINE",
"1190 0 LINE",
"1190 149 LINE",
"1258 50 OFFCURVE",
"1335 0 OFFCURVE",
"1422 0 CURVE SMOOTH",
"1675 0 OFFCURVE",
"1802 108 OFFCURVE",
"1802 323 CURVE SMOOTH"
);
}
);
userData = {
assembly = "MPPEM[ ]	/* MeasurePixelPerEm */\012PUSHB[ ]	/* 1 value pushed */\01216 \012LT[ ]	/* LessThan */\012IF[ ]	/* If */\012NPUSHB[ ]	/* 19 values pushed */\01235 1 4 9 54 47 2 5 4 46 1 3 5 3 1 2 7 4 76 \012ELSE[ ]	/* Else */\012MPPEM[ ]	/* MeasurePixelPerEm */\012PUSHB[ ]	/* 1 value pushed */\01217 \012LT[ ]	/* LessThan */\012IF[ ]	/* If */\012NPUSHB[ ]	/* 19 values pushed */\01235 1 14 9 54 47 2 5 4 46 1 3 5 3 1 2 7 4 76 \012ELSE[ ]	/* Else */\012NPUSHB[ ]	/* 19 values pushed */\01235 1 14 9 54 47 2 5 4 46 1 3 5 3 1 2 12 4 76 \012EIF[ ]	/* EndIf */\012EIF[ ]	/* EndIf */\012MPPEM[ ]	/* MeasurePixelPerEm */\012PUSHB[ ]	/* 1 value pushed */\01216 \012LT[ ]	/* LessThan */\012IF[ ]	/* If */\012NPUSHB[ ]	/* 45 values pushed */\0120 5 4 3 4 5 3 128 11 1 3 0 2 0 3 2 103 14 6 2 4 4 9 97 13 10 2 9 9 17 77 12 1 7 7 0 97 8 1 2 0 0 19 0 78 \012ELSE[ ]	/* Else */\012MPPEM[ ]	/* MeasurePixelPerEm */\012PUSHB[ ]	/* 1 value pushed */\01217 \012LT[ ]	/* LessThan */\012IF[ ]	/* If */\012NPUSHB[ ]	/* 56 values pushed */\0120 5 4 3 4 5 3 128 11 1 3 0 2 0 3 2 103 0 14 14 9 97 13 10 2 9 9 17 77 6 1 4 4 9 97 13 10 2 9 9 17 77 12 1 7 7 0 97 8 1 2 0 0 19 0 78 \012ELSE[ ]	/* Else */\012MPPEM[ ]	/* MeasurePixelPerEm */\012PUSHB[ ]	/* 1 value pushed */\01234 \012LT[ ]	/* LessThan */\012IF[ ]	/* If */\012NPUSHB[ ]	/* 67 values pushed */\0120 5 4 3 4 5 3 128 11 1 3 0 2 0 3 2 103 0 14 14 9 97 13 10 2 9 9 17 77 6 1 4 4 9 97 13 10 2 9 9 17 77 0 7 7 0 97 8 1 2 0 0 19 77 0 12 12 0 97 8 1 2 0 0 19 0 78 \012ELSE[ ]	/* Else */\012NPUSHB[ ]	/* 59 values pushed */\0120 5 4 3 4 5 3 128 0 14 4 9 14 87 13 10 2 9 6 1 4 5 9 4 105 11 1 3 0 2 0 3 2 103 0 7 7 0 97 8 1 2 0 0 19 77 0 12 12 0 97 8 1 2 0 0 19 0 78 \012EIF[ ]	/* EndIf */\012EIF[ ]	/* EndIf */\012EIF[ ]	/* EndIf */\012NPUSHB[ ]	/* 24 values pushed */\01253 52 51 49 44 42 41 40 38 36 34 32 33 35 34 34 34 17 17 18 32 15 7 31 \012CALL[ ]	/* CallFunction */";
};
width = 1912;
}
);
note = uni178D;
unicode = 178D;
},
{
glyphname = uni178E;
lastChange = "2020-01-28 08:18:52 +0000";
layers = (
{
layerId = "060F58F1-3EA2-4F98-A18F-48F5C294967E";
paths = (
{
closed = 1;
nodes = (
"1434 305 LINE",
"1288 445 LINE",
"1140 304 LINE",
"1140 807 LINE SMOOTH",
"1140 1042 OFFCURVE",
"968 1160 OFFCURVE",
"625 1160 CURVE SMOOTH",
"282 1160 OFFCURVE",
"110 1042 OFFCURVE",
"110 807 CURVE SMOOTH",
"110 298 LINE SMOOTH",
"110 99 OFFCURVE",
"230 0 OFFCURVE",
"470 0 CURVE SMOOTH",
"600 0 LINE",
"600 228 LINE",
"530 228 LINE SMOOTH",
"495 228 OFFCURVE",
"478 251 OFFCURVE",
"478 298 CURVE SMOOTH",
"478 807 LINE SMOOTH",
"478 890 OFFCURVE",
"527 932 OFFCURVE",
"625 932 CURVE SMOOTH",
"723 932 OFFCURVE",
"772 890 OFFCURVE",
"772 807 CURVE SMOOTH",
"772 0 LINE",
"1171 0 LINE",
"1288 137 LINE",
"1404 0 LINE",
"1802 0 LINE",
"1802 807 LINE SMOOTH",
"1802 890 OFFCURVE",
"1851 932 OFFCURVE",
"1949 932 CURVE SMOOTH",
"2047 932 OFFCURVE",
"2096 890 OFFCURVE",
"2096 807 CURVE SMOOTH",
"2096 0 LINE",
"2464 0 LINE",
"2464 807 LINE SMOOTH",
"2464 1042 OFFCURVE",
"2292 1160 OFFCURVE",
"1949 1160 CURVE SMOOTH",
"1606 1160 OFFCURVE",
"1434 1042 OFFCURVE",
"1434 807 CURVE SMOOTH"
);
}
);
userData = {
assembly = "NPUSHB[ ]	/* 12 values pushed */\01236 35 34 3 6 2 13 1 1 6 2 76 \012MPPEM[ ]	/* MeasurePixelPerEm */\012PUSHB[ ]	/* 1 value pushed */\01234 \012LT[ ]	/* LessThan */\012IF[ ]	/* If */\012NPUSHB[ ]	/* 26 values pushed */\0125 1 2 2 0 97 8 1 0 0 17 77 0 6 6 1 95 7 4 3 3 1 1 19 1 78 \012ELSE[ ]	/* Else */\012NPUSHB[ ]	/* 24 values pushed */\0128 1 0 5 1 2 6 0 2 105 0 6 6 1 95 7 4 3 3 1 1 19 1 78 \012EIF[ ]	/* EndIf */\012NPUSHB[ ]	/* 12 values pushed */\01235 33 35 34 18 18 34 18 32 9 7 31 \012CALL[ ]	/* CallFunction */";
};
width = 2574;
}
);
note = uni178E;
unicode = 178E;
},
{
glyphname = uni178F;
lastChange = "2020-01-28 08:18:54 +0000";
layers = (
{
layerId = "060F58F1-3EA2-4F98-A18F-48F5C294967E";
paths = (
{
closed = 1;
nodes = (
"110 1160 LINE",
"110 932 LINE",
"1190 932 LINE",
"1190 1160 LINE"
);
},
{
closed = 1;
nodes = (
"478 487 LINE SMOOTH",
"478 550 OFFCURVE",
"539 592 OFFCURVE",
"650 592 CURVE SMOOTH",
"761 592 OFFCURVE",
"822 550 OFFCURVE",
"822 487 CURVE SMOOTH",
"822 0 LINE",
"1190 0 LINE",
"1190 487 LINE SMOOTH",
"1190 702 OFFCURVE",
"1010 810 OFFCURVE",
"650 810 CURVE SMOOTH",
"290 810 OFFCURVE",
"110 702 OFFCURVE",
"110 487 CURVE SMOOTH",
"110 298 LINE SMOOTH",
"110 99 OFFCURVE",
"230 0 OFFCURVE",
"470 0 CURVE SMOOTH",
"600 0 LINE",
"600 258 LINE",
"530 258 LINE SMOOTH",
"495 258 OFFCURVE",
"478 271 OFFCURVE",
"478 298 CURVE SMOOTH"
);
}
);
userData = {
assembly = "MPPEM[ ]	/* MeasurePixelPerEm */\012PUSHB[ ]	/* 1 value pushed */\01234 \012LT[ ]	/* LessThan */\012IF[ ]	/* If */\012NPUSHB[ ]	/* 31 values pushed */\0120 4 0 6 2 4 6 105 0 0 0 1 95 7 1 1 1 17 77 0 2 2 3 97 5 1 3 3 19 3 78 \012ELSE[ ]	/* Else */\012NPUSHB[ ]	/* 29 values pushed */\0127 1 1 0 0 4 1 0 103 0 4 0 6 2 4 6 105 0 2 2 3 97 5 1 3 3 19 3 78 \012EIF[ ]	/* EndIf */\012NPUSHB[ ]	/* 20 values pushed */\0120 0 22 20 17 16 14 12 9 7 6 4 0 3 0 3 17 8 7 23 \012CALL[ ]	/* CallFunction */";
};
width = 1300;
}
);
note = uni178F;
unicode = 178F;
},
{
glyphname = uni1790;
lastChange = "2020-01-28 08:18:57 +0000";
layers = (
{
layerId = "060F58F1-3EA2-4F98-A18F-48F5C294967E";
paths = (
{
closed = 1;
nodes = (
"405 932 OFFCURVE",
"458 922 OFFCURVE",
"543 902 CURVE SMOOTH",
"615 882 OFFCURVE",
"684 872 OFFCURVE",
"750 872 CURVE SMOOTH",
"1043 872 OFFCURVE",
"1190 983 OFFCURVE",
"1190 1205 CURVE SMOOTH",
"1190 1280 LINE",
"822 1280 LINE",
"822 1205 LINE SMOOTH",
"822 1135 OFFCURVE",
"795 1100 OFFCURVE",
"740 1100 CURVE SMOOTH",
"633 1100 OFFCURVE",
"554 1110 OFFCURVE",
"501 1130 CURVE",
"435 1150 OFFCURVE",
"386 1160 OFFCURVE",
"355 1160 CURVE SMOOTH",
"258 1160 LINE SMOOTH",
"113 1160 OFFCURVE",
"40 1097 OFFCURVE",
"40 972 CURVE SMOOTH",
"40 847 LINE",
"110 713 LINE",
"110 323 LINE SMOOTH",
"110 108 OFFCURVE",
"290 0 OFFCURVE",
"650 0 CURVE SMOOTH",
"1010 0 OFFCURVE",
"1190 108 OFFCURVE",
"1190 323 CURVE SMOOTH",
"1190 780 LINE",
"700 780 LINE",
"700 542 LINE",
"822 542 LINE",
"822 323 LINE SMOOTH",
"822 260 OFFCURVE",
"765 228 OFFCURVE",
"650 228 CURVE SMOOTH",
"535 228 OFFCURVE",
"478 260 OFFCURVE",
"478 323 CURVE SMOOTH",
"478 714 LINE SMOOTH",
"478 747 OFFCURVE",
"435 805 OFFCURVE",
"348 890 CURVE",
"348 932 LINE",
"385 932 LINE SMOOTH"
);
}
);
userData = {
assembly = "NPUSHB[ ]	/* 14 values pushed */\01234 1 7 8 15 1 2 7 14 1 1 2 3 76 \012MPPEM[ ]	/* MeasurePixelPerEm */\012PUSHB[ ]	/* 1 value pushed */\01212 \012LT[ ]	/* LessThan */\012IF[ ]	/* If */\012NPUSHB[ ]	/* 43 values pushed */\0120 6 4 5 6 112 0 5 0 7 2 5 7 106 0 2 0 1 0 2 1 103 0 8 8 4 97 0 4 4 17 77 0 0 0 3 97 0 3 3 19 3 78 \012ELSE[ ]	/* Else */\012NPUSHB[ ]	/* 42 values pushed */\0120 6 4 6 133 0 5 0 7 2 5 7 106 0 2 0 1 0 2 1 103 0 8 8 4 97 0 4 4 17 77 0 0 0 3 97 0 3 3 19 3 78 \012EIF[ ]	/* EndIf */\012NPUSHB[ ]	/* 12 values pushed */\01233 34 18 33 53 34 17 18 33 9 7 31 \012CALL[ ]	/* CallFunction */";
};
width = 1300;
}
);
note = uni1790;
unicode = 1790;
},
{
glyphname = uni1791;
lastChange = "2020-01-28 08:19:00 +0000";
layers = (
{
layerId = "060F58F1-3EA2-4F98-A18F-48F5C294967E";
paths = (
{
closed = 1;
nodes = (
"730 317 LINE SMOOTH",
"730 238 OFFCURVE",
"701 198 OFFCURVE",
"644 198 CURVE SMOOTH",
"587 198 OFFCURVE",
"558 238 OFFCURVE",
"558 317 CURVE SMOOTH",
"558 357 LINE",
"190 357 LINE",
"190 317 LINE SMOOTH",
"190 106 OFFCURVE",
"341 0 OFFCURVE",
"644 0 CURVE SMOOTH",
"947 0 OFFCURVE",
"1098 106 OFFCURVE",
"1098 317 CURVE SMOOTH",
"1098 444 LINE",
"1159 471 OFFCURVE",
"1190 510 OFFCURVE",
"1190 561 CURVE SMOOTH",
"1190 598 LINE SMOOTH",
"1190 659 OFFCURVE",
"1127 690 OFFCURVE",
"1000 690 CURVE SMOOTH",
"863 690 OFFCURVE",
"788 672 OFFCURVE",
"774 636 CURVE",
"740 635 OFFCURVE",
"699 634 OFFCURVE",
"650 634 CURVE",
"535 647 OFFCURVE",
"478 704 OFFCURVE",
"478 803 CURVE SMOOTH",
"478 889 OFFCURVE",
"535 932 OFFCURVE",
"650 932 CURVE SMOOTH",
"765 932 OFFCURVE",
"822 892 OFFCURVE",
"822 813 CURVE",
"1190 813 LINE",
"1190 1044 OFFCURVE",
"1010 1160 OFFCURVE",
"650 1160 CURVE SMOOTH",
"290 1160 OFFCURVE",
"110 1041 OFFCURVE",
"110 803 CURVE SMOOTH",
"110 545 OFFCURVE",
"290 416 OFFCURVE",
"650 416 CURVE SMOOTH",
"683 416 OFFCURVE",
"709 417 OFFCURVE",
"730 419 CURVE"
);
}
);
userData = {
assembly = "PUSHB[ ]	/* 7 values pushed */\01237 24 2 0 4 1 76 \012MPPEM[ ]	/* MeasurePixelPerEm */\012PUSHB[ ]	/* 1 value pushed */\01216 \012LT[ ]	/* LessThan */\012IF[ ]	/* If */\012NPUSHB[ ]	/* 50 values pushed */\0120 2 3 5 3 2 114 0 5 4 3 5 4 126 0 7 0 8 8 7 114 0 4 0 0 7 4 0 105 0 3 3 1 97 0 1 1 17 77 0 8 8 6 98 0 6 6 19 6 78 \012ELSE[ ]	/* Else */\012MPPEM[ ]	/* MeasurePixelPerEm */\012PUSHB[ ]	/* 1 value pushed */\01221 \012LT[ ]	/* LessThan */\012IF[ ]	/* If */\012NPUSHB[ ]	/* 51 values pushed */\0120 2 3 5 3 2 114 0 5 4 3 5 4 126 0 7 0 8 0 7 8 128 0 4 0 0 7 4 0 105 0 3 3 1 97 0 1 1 17 77 0 8 8 6 98 0 6 6 19 6 78 \012ELSE[ ]	/* Else */\012NPUSHB[ ]	/* 52 values pushed */\0120 2 3 5 3 2 5 128 0 5 4 3 5 4 126 0 7 0 8 0 7 8 128 0 4 0 0 7 4 0 105 0 3 3 1 97 0 1 1 17 77 0 8 8 6 98 0 6 6 19 6 78 \012EIF[ ]	/* EndIf */\012EIF[ ]	/* EndIf */\012NPUSHB[ ]	/* 12 values pushed */\01234 18 38 33 50 33 17 34 33 9 7 31 \012CALL[ ]	/* CallFunction */";
};
width = 1300;
}
);
note = uni1791;
unicode = 1791;
},
{
glyphname = uni1792;
lastChange = "2020-01-28 08:19:03 +0000";
layers = (
{
layerId = "060F58F1-3EA2-4F98-A18F-48F5C294967E";
paths = (
{
closed = 1;
nodes = (
"1190 1160 LINE",
"258 1160 LINE SMOOTH",
"113 1160 OFFCURVE",
"40 1097 OFFCURVE",
"40 972 CURVE SMOOTH",
"40 847 LINE",
"110 714 LINE",
"110 0 LINE",
"509 0 LINE",
"651 160 LINE",
"792 0 LINE",
"1190 0 LINE",
"1190 820 LINE",
"700 820 LINE",
"700 582 LINE",
"822 582 LINE",
"822 295 LINE",
"651 455 LINE",
"478 294 LINE",
"478 714 LINE SMOOTH",
"478 747 OFFCURVE",
"435 805 OFFCURVE",
"348 890 CURVE",
"348 932 LINE",
"1190 932 LINE"
);
}
);
userData = {
assembly = "NPUSHB[ ]	/* 52 values pushed */\0128 1 2 3 1 23 1 2 3 20 13 12 11 4 4 2 3 76 0 3 0 2 4 3 2 103 0 1 1 0 95 0 0 0 17 77 5 1 4 4 19 4 78 18 17 17 23 17 35 6 7 28 \012CALL[ ]	/* CallFunction */";
};
width = 1300;
}
);
note = uni1792;
unicode = 1792;
},
{
glyphname = uni1793;
lastChange = "2020-01-28 08:19:06 +0000";
layers = (
{
layerId = "060F58F1-3EA2-4F98-A18F-48F5C294967E";
paths = (
{
closed = 1;
nodes = (
"110 448 LINE",
"110 0 LINE",
"478 0 LINE",
"478 156 LINE",
"517 156 OFFCURVE",
"568 130 OFFCURVE",
"629 78 CURVE SMOOTH",
"690 26 OFFCURVE",
"743 0 OFFCURVE",
"790 0 CURVE SMOOTH",
"1057 0 OFFCURVE",
"1190 100 OFFCURVE",
"1190 300 CURVE SMOOTH",
"1190 407 LINE SMOOTH",
"1190 585 OFFCURVE",
"1050 677 OFFCURVE",
"770 684 CURVE SMOOTH",
"575 689 OFFCURVE",
"478 732 OFFCURVE",
"478 813 CURVE SMOOTH",
"478 892 OFFCURVE",
"535 932 OFFCURVE",
"650 932 CURVE SMOOTH",
"765 932 OFFCURVE",
"822 892 OFFCURVE",
"822 813 CURVE SMOOTH",
"822 745 LINE",
"1190 745 LINE",
"1190 813 LINE SMOOTH",
"1190 1044 OFFCURVE",
"1010 1160 OFFCURVE",
"650 1160 CURVE SMOOTH",
"290 1160 OFFCURVE",
"110 1044 OFFCURVE",
"110 813 CURVE SMOOTH",
"110 582 OFFCURVE",
"330 466 OFFCURVE",
"770 466 CURVE SMOOTH",
"805 466 OFFCURVE",
"822 446 OFFCURVE",
"822 407 CURVE SMOOTH",
"822 300 LINE SMOOTH",
"822 252 OFFCURVE",
"811 228 OFFCURVE",
"790 228 CURVE",
"643 343 OFFCURVE",
"539 391 OFFCURVE",
"478 372 CURVE",
"478 448 LINE"
);
}
);
userData = {
assembly = "MPPEM[ ]	/* MeasurePixelPerEm */\012PUSHB[ ]	/* 1 value pushed */\01212 \012LT[ ]	/* LessThan */\012IF[ ]	/* If */\012NPUSHB[ ]	/* 57 values pushed */\0120 5 6 7 6 5 114 0 7 0 3 0 7 3 105 0 1 0 9 8 1 9 105 0 6 6 4 97 0 4 4 17 77 11 1 0 0 8 97 10 1 8 8 19 77 0 2 2 8 97 10 1 8 8 19 8 78 \012ELSE[ ]	/* Else */\012NPUSHB[ ]	/* 58 values pushed */\0120 5 6 7 6 5 7 128 0 7 0 3 0 7 3 105 0 1 0 9 8 1 9 105 0 6 6 4 97 0 4 4 17 77 11 1 0 0 8 97 10 1 8 8 19 77 0 2 2 8 97 10 1 8 8 19 8 78 \012EIF[ ]	/* EndIf */\012NPUSHB[ ]	/* 29 values pushed */\0121 0 34 33 32 31 30 28 25 23 21 19 17 16 14 12 10 8 5 4 3 2 0 36 1 35 12 7 22 \012CALL[ ]	/* CallFunction */";
};
width = 1300;
}
);
note = uni1793;
unicode = 1793;
},
{
glyphname = uni1794;
lastChange = "2020-01-28 08:10:25 +0000";
layers = (
{
layerId = "060F58F1-3EA2-4F98-A18F-48F5C294967E";
paths = (
{
closed = 1;
nodes = (
"822 323 LINE SMOOTH",
"822 260 OFFCURVE",
"765 228 OFFCURVE",
"650 228 CURVE SMOOTH",
"535 228 OFFCURVE",
"478 260 OFFCURVE",
"478 323 CURVE SMOOTH",
"478 704 LINE SMOOTH",
"478 749 OFFCURVE",
"453 790 OFFCURVE",
"403 826 CURVE SMOOTH",
"328 880 LINE",
"328 932 LINE",
"508 932 LINE",
"508 1160 LINE",
"238 1160 LINE SMOOTH",
"93 1160 OFFCURVE",
"20 1094 OFFCURVE",
"20 962 CURVE SMOOTH",
"20 827 LINE",
"110 704 LINE",
"110 323 LINE SMOOTH",
"110 108 OFFCURVE",
"290 0 OFFCURVE",
"650 0 CURVE SMOOTH",
"1010 0 OFFCURVE",
"1190 108 OFFCURVE",
"1190 323 CURVE SMOOTH",
"1190 704 LINE SMOOTH",
"1190 749 OFFCURVE",
"1157 790 OFFCURVE",
"1090 826 CURVE SMOOTH",
"990 880 LINE",
"990 932 LINE",
"1190 932 LINE",
"1190 1160 LINE",
"880 1160 LINE SMOOTH",
"741 1160 OFFCURVE",
"672 1084 OFFCURVE",
"672 932 CURVE SMOOTH",
"672 827 LINE",
"822 704 LINE"
);
}
);
userData = {
assembly = "NPUSHB[ ]	/* 43 values pushed */\01234 25 18 17 8 1 6 5 1 1 76 4 1 1 1 0 95 3 1 0 0 17 77 0 5 5 2 97 0 2 2 19 2 78 38 17 37 38 17 35 6 7 28 \012CALL[ ]	/* CallFunction */";
};
width = 1300;
}
);
note = uni1794;
unicode = 1794;
},
{
glyphname = uni1795;
lastChange = "2020-01-28 08:12:51 +0000";
layers = (
{
layerId = "060F58F1-3EA2-4F98-A18F-48F5C294967E";
paths = (
{
closed = 1;
nodes = (
"405 932 OFFCURVE",
"458 922 OFFCURVE",
"543 902 CURVE SMOOTH",
"615 882 OFFCURVE",
"684 872 OFFCURVE",
"750 872 CURVE SMOOTH",
"1043 872 OFFCURVE",
"1190 983 OFFCURVE",
"1190 1205 CURVE SMOOTH",
"1190 1280 LINE",
"822 1280 LINE",
"822 1205 LINE SMOOTH",
"822 1135 OFFCURVE",
"795 1100 OFFCURVE",
"740 1100 CURVE SMOOTH",
"633 1100 OFFCURVE",
"554 1110 OFFCURVE",
"501 1130 CURVE",
"435 1150 OFFCURVE",
"386 1160 OFFCURVE",
"355 1160 CURVE SMOOTH",
"258 1160 LINE SMOOTH",
"113 1160 OFFCURVE",
"40 1097 OFFCURVE",
"40 972 CURVE SMOOTH",
"40 847 LINE",
"110 714 LINE",
"110 0 LINE",
"509 0 LINE",
"651 160 LINE",
"792 0 LINE",
"1190 0 LINE",
"1190 820 LINE",
"700 820 LINE",
"700 582 LINE",
"822 582 LINE",
"822 295 LINE",
"651 455 LINE",
"478 294 LINE",
"478 714 LINE SMOOTH",
"478 747 OFFCURVE",
"435 805 OFFCURVE",
"348 890 CURVE",
"348 932 LINE",
"385 932 LINE SMOOTH"
);
}
);
userData = {
assembly = "NPUSHB[ ]	/* 21 values pushed */\01229 1 7 8 10 1 1 7 9 1 0 1 34 33 32 6 4 2 0 4 76 \012MPPEM[ ]	/* MeasurePixelPerEm */\012PUSHB[ ]	/* 1 value pushed */\01212 \012LT[ ]	/* LessThan */\012IF[ ]	/* If */\012NPUSHB[ ]	/* 40 values pushed */\0120 6 4 5 6 112 0 5 0 7 1 5 7 106 0 1 9 1 0 2 1 0 103 0 8 8 4 97 0 4 4 17 77 3 1 2 2 19 2 78 \012ELSE[ ]	/* Else */\012NPUSHB[ ]	/* 39 values pushed */\0120 6 4 6 133 0 5 0 7 1 5 7 106 0 1 9 1 0 2 1 0 103 0 8 8 4 97 0 4 4 17 77 3 1 2 2 19 2 78 \012EIF[ ]	/* EndIf */\012NPUSHB[ ]	/* 25 values pushed */\0121 0 28 26 25 23 21 20 18 16 15 12 8 7 5 4 3 2 0 36 1 35 10 7 22 \012CALL[ ]	/* CallFunction */";
};
width = 1300;
}
);
note = uni1795;
unicode = 1795;
},
{
glyphname = uni1796;
lastChange = "2020-01-28 08:15:30 +0000";
layers = (
{
layerId = "060F58F1-3EA2-4F98-A18F-48F5C294967E";
paths = (
{
closed = 1;
nodes = (
"110 298 LINE SMOOTH",
"110 99 OFFCURVE",
"230 0 OFFCURVE",
"470 0 CURVE SMOOTH",
"600 0 LINE",
"600 258 LINE",
"530 258 LINE SMOOTH",
"495 258 OFFCURVE",
"478 271 OFFCURVE",
"478 298 CURVE SMOOTH",
"478 833 LINE SMOOTH",
"478 878 OFFCURVE",
"483 900 OFFCURVE",
"494 900 CURVE SMOOTH",
"505 900 OFFCURVE",
"537 869 OFFCURVE",
"591 806 CURVE SMOOTH",
"609 785 OFFCURVE",
"629 775 OFFCURVE",
"650 775 CURVE SMOOTH",
"671 775 OFFCURVE",
"691 785 OFFCURVE",
"709 806 CURVE SMOOTH",
"764 869 OFFCURVE",
"796 900 OFFCURVE",
"807 900 CURVE SMOOTH",
"817 900 OFFCURVE",
"822 878 OFFCURVE",
"822 833 CURVE SMOOTH",
"822 0 LINE",
"1190 0 LINE",
"1190 833 LINE SMOOTH",
"1190 1051 OFFCURVE",
"1092 1160 OFFCURVE",
"897 1160 CURVE SMOOTH",
"820 1160 OFFCURVE",
"738 1119 OFFCURVE",
"650 1036 CURVE",
"563 1119 OFFCURVE",
"481 1160 OFFCURVE",
"405 1160 CURVE SMOOTH",
"208 1160 OFFCURVE",
"110 1051 OFFCURVE",
"110 833 CURVE SMOOTH"
);
}
);
userData = {
assembly = "NPUSHB[ ]	/* 49 values pushed */\0124 1 3 0 1 76 0 4 3 6 3 4 6 128 5 1 3 3 0 97 1 1 0 0 17 77 0 6 6 2 97 7 1 2 2 19 2 78 33 35 34 34 34 18 34 33 8 7 30 \012CALL[ ]	/* CallFunction */";
};
width = 1300;
}
);
note = uni1796;
unicode = 1796;
},
{
glyphname = uni1797;
lastChange = "2020-01-28 08:16:36 +0000";
layers = (
{
layerId = "060F58F1-3EA2-4F98-A18F-48F5C294967E";
paths = (
{
closed = 1;
nodes = (
"110 932 LINE",
"1190 932 LINE",
"1190 1160 LINE",
"110 1160 LINE"
);
},
{
closed = 1;
nodes = (
"478 517 LINE SMOOTH",
"478 580 OFFCURVE",
"535 612 OFFCURVE",
"650 612 CURVE SMOOTH",
"765 612 OFFCURVE",
"822 580 OFFCURVE",
"822 517 CURVE SMOOTH",
"822 0 LINE",
"1190 0 LINE",
"1190 517 LINE SMOOTH",
"1190 732 OFFCURVE",
"1010 840 OFFCURVE",
"650 840 CURVE SMOOTH",
"290 840 OFFCURVE",
"110 732 OFFCURVE",
"110 517 CURVE SMOOTH",
"110 457 LINE",
"158 368 OFFCURVE",
"182 315 OFFCURVE",
"182 298 CURVE SMOOTH",
"182 271 OFFCURVE",
"157 258 OFFCURVE",
"106 258 CURVE SMOOTH",
"30 258 LINE",
"30 0 LINE",
"226 0 LINE SMOOTH",
"429 0 OFFCURVE",
"530 89 OFFCURVE",
"530 268 CURVE SMOOTH",
"530 311 OFFCURVE",
"513 390 OFFCURVE",
"478 505 CURVE"
);
}
);
userData = {
assembly = "NPUSHB[ ]	/* 47 values pushed */\01223 11 2 1 4 1 76 0 2 0 4 1 2 4 105 0 6 6 5 95 0 5 5 17 77 0 1 1 0 97 3 1 0 0 19 0 78 17 20 34 18 37 33 35 7 7 29 \012CALL[ ]	/* CallFunction */";
};
width = 1300;
}
);
note = uni1797;
unicode = 1797;
},
{
glyphname = uni1798;
lastChange = "2020-01-28 08:18:17 +0000";
layers = (
{
layerId = "060F58F1-3EA2-4F98-A18F-48F5C294967E";
paths = (
{
closed = 1;
nodes = (
"1190 1160 LINE",
"880 1160 LINE SMOOTH",
"741 1160 OFFCURVE",
"672 1084 OFFCURVE",
"672 932 CURVE SMOOTH",
"672 827 LINE",
"822 704 LINE",
"822 679 LINE",
"478 679 LINE",
"478 704 LINE SMOOTH",
"478 749 OFFCURVE",
"453 790 OFFCURVE",
"403 826 CURVE SMOOTH",
"328 880 LINE",
"328 932 LINE",
"508 932 LINE",
"508 1160 LINE",
"238 1160 LINE SMOOTH",
"93 1160 OFFCURVE",
"20 1094 OFFCURVE",
"20 962 CURVE SMOOTH",
"20 827 LINE",
"110 704 LINE",
"110 323 LINE SMOOTH",
"110 108 OFFCURVE",
"290 0 OFFCURVE",
"650 0 CURVE SMOOTH",
"1010 0 OFFCURVE",
"1190 108 OFFCURVE",
"1190 323 CURVE SMOOTH",
"1190 704 LINE SMOOTH",
"1190 749 OFFCURVE",
"1157 790 OFFCURVE",
"1090 826 CURVE SMOOTH",
"990 880 LINE",
"990 932 LINE",
"1190 932 LINE"
);
},
{
closed = 1;
nodes = (
"535 228 OFFCURVE",
"478 260 OFFCURVE",
"478 323 CURVE SMOOTH",
"478 451 LINE",
"822 451 LINE",
"822 323 LINE SMOOTH",
"822 260 OFFCURVE",
"765 228 OFFCURVE",
"650 228 CURVE SMOOTH"
);
}
);
userData = {
assembly = "NPUSHB[ ]	/* 64 values pushed */\01236 29 28 19 12 11 6 2 4 1 76 8 1 2 0 1 0 2 1 103 7 1 4 4 3 95 6 1 3 3 17 77 0 0 0 5 97 0 5 5 19 5 78 10 9 35 34 33 31 26 24 18 17 16 14 9 41 10 40 18 34 9 7 24 \012CALL[ ]	/* CallFunction */";
};
width = 1300;
}
);
note = uni1798;
unicode = 1798;
},
{
glyphname = uni1799;
lastChange = "2020-01-28 08:27:22 +0000";
layers = (
{
layerId = "060F58F1-3EA2-4F98-A18F-48F5C294967E";
paths = (
{
closed = 1;
nodes = (
"792 323 LINE SMOOTH",
"792 260 OFFCURVE",
"740 228 OFFCURVE",
"635 228 CURVE SMOOTH",
"530 228 OFFCURVE",
"478 260 OFFCURVE",
"478 323 CURVE SMOOTH",
"478 932 LINE",
"600 932 LINE",
"600 1160 LINE",
"110 1160 LINE",
"110 323 LINE SMOOTH",
"110 108 OFFCURVE",
"285 0 OFFCURVE",
"635 0 CURVE SMOOTH",
"792 0 OFFCURVE",
"905 30 OFFCURVE",
"976 91 CURVE",
"1047 30 OFFCURVE",
"1154 0 OFFCURVE",
"1297 0 CURVE SMOOTH",
"1634 0 OFFCURVE",
"1802 108 OFFCURVE",
"1802 323 CURVE SMOOTH",
"1802 704 LINE SMOOTH",
"1802 749 OFFCURVE",
"1769 790 OFFCURVE",
"1702 826 CURVE SMOOTH",
"1602 880 LINE",
"1602 932 LINE",
"1802 932 LINE",
"1802 1160 LINE",
"1512 1160 LINE SMOOTH",
"1360 1160 OFFCURVE",
"1284 1084 OFFCURVE",
"1284 932 CURVE SMOOTH",
"1284 827 LINE",
"1434 704 LINE",
"1434 323 LINE SMOOTH",
"1434 260 OFFCURVE",
"1388 228 OFFCURVE",
"1297 228 CURVE SMOOTH",
"1206 228 OFFCURVE",
"1160 260 OFFCURVE",
"1160 323 CURVE SMOOTH",
"1160 704 LINE SMOOTH",
"1160 749 OFFCURVE",
"1135 790 OFFCURVE",
"1085 826 CURVE SMOOTH",
"1010 880 LINE",
"1010 932 LINE",
"1190 932 LINE",
"1190 1160 LINE",
"920 1160 LINE SMOOTH",
"768 1160 OFFCURVE",
"692 1094 OFFCURVE",
"692 962 CURVE SMOOTH",
"692 827 LINE",
"792 704 LINE"
);
}
);
userData = {
assembly = "NPUSHB[ ]	/* 56 values pushed */\01247 25 18 17 8 1 6 2 1 33 1 5 2 2 76 8 4 2 1 1 0 95 7 3 2 0 0 17 77 9 1 2 2 5 97 6 1 5 5 19 5 78 45 43 17 18 34 38 17 37 38 17 35 10 7 31 \012CALL[ ]	/* CallFunction */";
};
width = 1912;
}
);
note = uni1799;
unicode = 1799;
},
{
glyphname = uni179A;
lastChange = "2020-01-28 08:28:11 +0000";
layers = (
{
layerId = "060F58F1-3EA2-4F98-A18F-48F5C294967E";
paths = (
{
closed = 1;
nodes = (
"160 298 LINE SMOOTH",
"160 271 OFFCURVE",
"143 258 OFFCURVE",
"108 258 CURVE SMOOTH",
"20 258 LINE",
"20 0 LINE",
"198 0 LINE SMOOTH",
"418 0 OFFCURVE",
"528 99 OFFCURVE",
"528 298 CURVE SMOOTH",
"528 704 LINE SMOOTH",
"528 749 OFFCURVE",
"495 790 OFFCURVE",
"428 826 CURVE SMOOTH",
"328 880 LINE",
"328 932 LINE",
"528 932 LINE",
"528 1160 LINE",
"238 1160 LINE SMOOTH",
"93 1160 OFFCURVE",
"20 1094 OFFCURVE",
"20 962 CURVE SMOOTH",
"20 827 LINE",
"160 704 LINE"
);
}
);
userData = {
assembly = "NPUSHB[ ]	/* 36 values pushed */\01220 8 1 3 3 1 1 76 0 1 1 0 95 0 0 0 17 77 0 3 3 2 97 0 2 2 19 2 78 33 38 17 35 4 7 26 \012CALL[ ]	/* CallFunction */";
};
width = 638;
}
);
note = uni179A;
unicode = 179A;
},
{
glyphname = uni179B;
lastChange = "2020-01-28 08:29:48 +0000";
layers = (
{
layerId = "060F58F1-3EA2-4F98-A18F-48F5C294967E";
paths = (
{
closed = 1;
nodes = (
"1802 704 LINE SMOOTH",
"1802 749 OFFCURVE",
"1769 790 OFFCURVE",
"1702 826 CURVE SMOOTH",
"1602 880 LINE",
"1602 932 LINE",
"1802 932 LINE",
"1802 1160 LINE",
"1512 1160 LINE SMOOTH",
"1360 1160 OFFCURVE",
"1284 1084 OFFCURVE",
"1284 932 CURVE SMOOTH",
"1284 827 LINE",
"1434 704 LINE",
"1434 323 LINE SMOOTH",
"1434 260 OFFCURVE",
"1385 228 OFFCURVE",
"1287 228 CURVE SMOOTH",
"1189 228 OFFCURVE",
"1140 260 OFFCURVE",
"1140 323 CURVE SMOOTH",
"1140 807 LINE SMOOTH",
"1140 1042 OFFCURVE",
"968 1160 OFFCURVE",
"625 1160 CURVE SMOOTH",
"282 1160 OFFCURVE",
"110 1042 OFFCURVE",
"110 807 CURVE SMOOTH",
"110 298 LINE SMOOTH",
"110 99 OFFCURVE",
"230 0 OFFCURVE",
"470 0 CURVE SMOOTH",
"600 0 LINE",
"600 258 LINE",
"530 258 LINE SMOOTH",
"495 258 OFFCURVE",
"478 271 OFFCURVE",
"478 298 CURVE SMOOTH",
"478 807 LINE SMOOTH",
"478 890 OFFCURVE",
"527 932 OFFCURVE",
"625 932 CURVE SMOOTH",
"723 932 OFFCURVE",
"772 890 OFFCURVE",
"772 807 CURVE SMOOTH",
"772 323 LINE SMOOTH",
"772 108 OFFCURVE",
"944 0 OFFCURVE",
"1287 0 CURVE SMOOTH",
"1630 0 OFFCURVE",
"1802 108 OFFCURVE",
"1802 323 CURVE SMOOTH"
);
}
);
userData = {
assembly = "PUSHB[ ]	/* 8 values pushed */\01236 29 28 3 2 1 1 76 \012MPPEM[ ]	/* MeasurePixelPerEm */\012PUSHB[ ]	/* 1 value pushed */\01217 \012LT[ ]	/* LessThan */\012IF[ ]	/* If */\012NPUSHB[ ]	/* 25 values pushed */\0127 1 1 1 4 97 6 1 4 4 17 77 5 1 2 2 0 97 3 1 0 0 19 0 78 \012ELSE[ ]	/* Else */\012NPUSHB[ ]	/* 35 values pushed */\0127 1 1 1 4 97 6 1 4 4 17 77 0 2 2 0 97 3 1 0 0 19 77 0 5 5 0 97 3 1 0 0 19 0 78 \012EIF[ ]	/* EndIf */\012NPUSHB[ ]	/* 11 values pushed */\01217 37 35 35 33 35 35 33 8 7 30 \012CALL[ ]	/* CallFunction */";
};
width = 1912;
}
);
note = uni179B;
unicode = 179B;
},
{
glyphname = uni179C;
lastChange = "2020-01-28 08:30:33 +0000";
layers = (
{
layerId = "060F58F1-3EA2-4F98-A18F-48F5C294967E";
paths = (
{
closed = 1;
nodes = (
"160 1157 LINE",
"67 1146 OFFCURVE",
"20 1081 OFFCURVE",
"20 962 CURVE SMOOTH",
"20 827 LINE",
"160 704 LINE",
"160 298 LINE SMOOTH",
"160 271 OFFCURVE",
"143 258 OFFCURVE",
"108 258 CURVE SMOOTH",
"20 258 LINE",
"20 0 LINE",
"198 0 LINE SMOOTH",
"418 0 OFFCURVE",
"528 99 OFFCURVE",
"528 298 CURVE SMOOTH",
"528 704 LINE SMOOTH",
"528 749 OFFCURVE",
"495 790 OFFCURVE",
"428 826 CURVE SMOOTH",
"328 880 LINE",
"328 932 LINE",
"528 932 LINE",
"528 1340 LINE",
"160 1340 LINE"
);
}
);
userData = {
assembly = "NPUSHB[ ]	/* 38 values pushed */\01221 1 1 0 18 17 5 3 3 1 2 76 0 0 0 1 3 0 1 103 0 3 3 2 97 0 2 2 19 2 78 33 38 17 17 4 7 26 \012CALL[ ]	/* CallFunction */";
};
width = 638;
}
);
note = uni179C;
unicode = 179C;
},
{
glyphname = uni179D;
lastChange = "2020-01-28 08:31:51 +0000";
layers = (
{
layerId = "060F58F1-3EA2-4F98-A18F-48F5C294967E";
paths = (
{
closed = 1;
nodes = (
"110 1160 LINE",
"110 932 LINE",
"1190 932 LINE",
"1190 1160 LINE"
);
},
{
closed = 1;
nodes = (
"1190 420 LINE",
"1190 487 LINE SMOOTH",
"1190 702 OFFCURVE",
"1010 810 OFFCURVE",
"650 810 CURVE SMOOTH",
"290 810 OFFCURVE",
"110 702 OFFCURVE",
"110 487 CURVE SMOOTH",
"110 0 LINE",
"478 0 LINE",
"478 80 LINE",
"483 87 OFFCURVE",
"489 94 OFFCURVE",
"493 102 CURVE",
"532 158 OFFCURVE",
"550 183 OFFCURVE",
"590 200 CURVE SMOOTH",
"609 208 OFFCURVE",
"635 212 OFFCURVE",
"666 212 CURVE SMOOTH",
"700 212 LINE",
"700 400 LINE",
"662 400 LINE SMOOTH",
"576 400 OFFCURVE",
"515 374 OFFCURVE",
"478 321 CURVE",
"478 487 LINE SMOOTH",
"478 557 OFFCURVE",
"535 592 OFFCURVE",
"650 592 CURVE SMOOTH",
"765 592 OFFCURVE",
"822 557 OFFCURVE",
"822 487 CURVE SMOOTH",
"822 420 LINE",
"744 420 LINE",
"744 192 LINE",
"822 192 LINE",
"822 0 LINE",
"1190 0 LINE",
"1190 192 LINE",
"1260 192 LINE",
"1260 420 LINE"
);
}
);
userData = {
assembly = "NPUSHB[ ]	/* 79 values pushed */\0129 1 0 1 17 1 5 0 2 76 0 6 0 2 1 6 2 105 7 3 2 1 8 4 12 3 0 5 1 0 103 0 11 11 10 95 0 10 10 17 77 9 1 5 5 19 5 78 1 0 36 35 34 33 30 29 28 27 26 25 23 21 19 18 15 13 12 10 7 5 3 2 0 32 1 31 13 7 22 \012CALL[ ]	/* CallFunction */";
};
width = 1300;
}
);
note = uni179D;
unicode = 179D;
},
{
glyphname = uni179E;
lastChange = "2020-01-28 08:32:42 +0000";
layers = (
{
layerId = "060F58F1-3EA2-4F98-A18F-48F5C294967E";
paths = (
{
closed = 1;
nodes = (
"1190 640 LINE",
"1190 704 LINE SMOOTH",
"1190 749 OFFCURVE",
"1157 790 OFFCURVE",
"1090 826 CURVE SMOOTH",
"990 880 LINE",
"990 932 LINE",
"1190 932 LINE",
"1190 1160 LINE",
"880 1160 LINE SMOOTH",
"741 1160 OFFCURVE",
"672 1084 OFFCURVE",
"672 932 CURVE SMOOTH",
"672 827 LINE",
"822 704 LINE",
"822 640 LINE",
"724 640 LINE",
"724 412 LINE",
"822 412 LINE",
"822 323 LINE SMOOTH",
"822 260 OFFCURVE",
"765 228 OFFCURVE",
"650 228 CURVE SMOOTH",
"535 228 OFFCURVE",
"478 260 OFFCURVE",
"478 323 CURVE SMOOTH",
"478 704 LINE SMOOTH",
"478 749 OFFCURVE",
"453 790 OFFCURVE",
"403 826 CURVE SMOOTH",
"328 880 LINE",
"328 932 LINE",
"508 932 LINE",
"508 1160 LINE",
"238 1160 LINE SMOOTH",
"93 1160 OFFCURVE",
"20 1094 OFFCURVE",
"20 962 CURVE SMOOTH",
"20 827 LINE",
"110 704 LINE",
"110 323 LINE SMOOTH",
"110 108 OFFCURVE",
"290 0 OFFCURVE",
"650 0 CURVE SMOOTH",
"1010 0 OFFCURVE",
"1190 108 OFFCURVE",
"1190 323 CURVE SMOOTH",
"1190 412 LINE",
"1240 412 LINE",
"1240 640 LINE"
);
}
);
userData = {
assembly = "NPUSHB[ ]	/* 58 values pushed */\01230 23 22 9 2 1 6 2 1 1 76 9 1 2 8 1 3 7 2 3 103 6 1 1 1 0 95 5 1 0 0 17 77 0 7 7 4 97 0 4 4 19 4 78 42 41 18 38 17 37 34 17 21 17 36 10 7 31 \012CALL[ ]	/* CallFunction */";
};
width = 1300;
}
);
note = uni179E;
unicode = 179E;
},
{
glyphname = uni179F;
lastChange = "2020-01-28 08:34:08 +0000";
layers = (
{
layerId = "060F58F1-3EA2-4F98-A18F-48F5C294967E";
paths = (
{
closed = 1;
nodes = (
"1802 1160 LINE",
"1512 1160 LINE SMOOTH",
"1360 1160 OFFCURVE",
"1284 1084 OFFCURVE",
"1284 932 CURVE SMOOTH",
"1284 827 LINE",
"1434 704 LINE",
"1434 323 LINE SMOOTH",
"1434 260 OFFCURVE",
"1385 228 OFFCURVE",
"1287 228 CURVE SMOOTH",
"1189 228 OFFCURVE",
"1140 260 OFFCURVE",
"1140 323 CURVE SMOOTH",
"1140 490 LINE SMOOTH",
"1140 697 OFFCURVE",
"982 804 OFFCURVE",
"666 810 CURVE",
"651 838 OFFCURVE",
"610 870 OFFCURVE",
"542 908 CURVE",
"542 932 LINE",
"832 932 LINE",
"832 1160 LINE",
"452 1160 LINE SMOOTH",
"307 1160 OFFCURVE",
"234 1094 OFFCURVE",
"234 962 CURVE SMOOTH",
"234 867 LINE",
"348 781 LINE",
"189 736 OFFCURVE",
"110 638 OFFCURVE",
"110 487 CURVE SMOOTH",
"110 298 LINE SMOOTH",
"110 99 OFFCURVE",
"230 0 OFFCURVE",
"470 0 CURVE SMOOTH",
"600 0 LINE",
"600 258 LINE",
"530 258 LINE SMOOTH",
"495 258 OFFCURVE",
"478 271 OFFCURVE",
"478 298 CURVE SMOOTH",
"478 487 LINE SMOOTH",
"478 577 OFFCURVE",
"527 622 OFFCURVE",
"625 622 CURVE SMOOTH",
"723 622 OFFCURVE",
"772 577 OFFCURVE",
"772 487 CURVE SMOOTH",
"772 323 LINE SMOOTH",
"772 108 OFFCURVE",
"944 0 OFFCURVE",
"1287 0 CURVE SMOOTH",
"1630 0 OFFCURVE",
"1802 108 OFFCURVE",
"1802 323 CURVE SMOOTH",
"1802 704 LINE SMOOTH",
"1802 749 OFFCURVE",
"1769 790 OFFCURVE",
"1702 826 CURVE SMOOTH",
"1602 880 LINE",
"1602 932 LINE",
"1802 932 LINE"
);
}
);
userData = {
assembly = "NPUSHB[ ]	/* 13 values pushed */\01226 19 8 1 4 2 1 18 1 7 2 2 76 \012MPPEM[ ]	/* MeasurePixelPerEm */\012PUSHB[ ]	/* 1 value pushed */\01217 \012LT[ ]	/* LessThan */\012IF[ ]	/* If */\012NPUSHB[ ]	/* 33 values pushed */\0120 2 0 7 3 2 7 105 5 1 1 1 0 95 4 1 0 0 17 77 8 1 3 3 6 97 9 1 6 6 19 6 78 \012ELSE[ ]	/* Else */\012NPUSHB[ ]	/* 43 values pushed */\0120 2 0 7 8 2 7 105 5 1 1 1 0 95 4 1 0 0 17 77 0 8 8 6 97 9 1 6 6 19 77 0 3 3 6 97 9 1 6 6 19 6 78 \012EIF[ ]	/* EndIf */\012NPUSHB[ ]	/* 14 values pushed */\01246 44 35 35 38 17 37 35 19 17 35 10 7 31 \012CALL[ ]	/* CallFunction */";
};
width = 1912;
}
);
note = uni179F;
unicode = 179F;
},
{
glyphname = uni17A0;
lastChange = "2020-01-28 08:34:54 +0000";
layers = (
{
layerId = "060F58F1-3EA2-4F98-A18F-48F5C294967E";
paths = (
{
closed = 1;
nodes = (
"478 704 LINE SMOOTH",
"478 749 OFFCURVE",
"453 790 OFFCURVE",
"403 826 CURVE SMOOTH",
"328 880 LINE",
"328 932 LINE",
"528 932 LINE",
"528 1160 LINE",
"238 1160 LINE SMOOTH",
"93 1160 OFFCURVE",
"20 1094 OFFCURVE",
"20 962 CURVE SMOOTH",
"20 827 LINE",
"110 704 LINE",
"110 323 LINE SMOOTH",
"110 108 OFFCURVE",
"282 0 OFFCURVE",
"625 0 CURVE SMOOTH",
"968 0 OFFCURVE",
"1140 108 OFFCURVE",
"1140 323 CURVE SMOOTH",
"1140 807 LINE SMOOTH",
"1140 890 OFFCURVE",
"1189 932 OFFCURVE",
"1287 932 CURVE SMOOTH",
"1385 932 OFFCURVE",
"1434 890 OFFCURVE",
"1434 807 CURVE SMOOTH",
"1434 0 LINE",
"1802 0 LINE",
"1802 807 LINE SMOOTH",
"1802 1042 OFFCURVE",
"1630 1160 OFFCURVE",
"1287 1160 CURVE SMOOTH",
"944 1160 OFFCURVE",
"772 1042 OFFCURVE",
"772 807 CURVE SMOOTH",
"772 323 LINE SMOOTH",
"772 240 OFFCURVE",
"723 198 OFFCURVE",
"625 198 CURVE SMOOTH",
"527 198 OFFCURVE",
"478 240 OFFCURVE",
"478 323 CURVE SMOOTH"
);
}
);
userData = {
assembly = "NPUSHB[ ]	/* 42 values pushed */\01230 23 22 3 0 3 1 76 6 1 3 3 1 97 5 1 1 1 17 77 0 0 0 2 97 4 1 2 2 19 2 78 17 37 35 34 18 35 33 7 7 29 \012CALL[ ]	/* CallFunction */";
};
width = 1912;
}
);
note = uni17A0;
unicode = 17A0;
},
{
glyphname = uni17A1;
lastChange = "2020-01-28 08:36:19 +0000";
layers = (
{
layerId = "060F58F1-3EA2-4F98-A18F-48F5C294967E";
paths = (
{
closed = 1;
nodes = (
"730 317 LINE SMOOTH",
"730 238 OFFCURVE",
"701 198 OFFCURVE",
"644 198 CURVE SMOOTH",
"587 198 OFFCURVE",
"558 238 OFFCURVE",
"558 317 CURVE SMOOTH",
"558 357 LINE",
"190 357 LINE",
"190 317 LINE SMOOTH",
"190 106 OFFCURVE",
"341 0 OFFCURVE",
"644 0 CURVE SMOOTH",
"947 0 OFFCURVE",
"1098 106 OFFCURVE",
"1098 317 CURVE SMOOTH",
"1098 444 LINE",
"1159 471 OFFCURVE",
"1190 510 OFFCURVE",
"1190 561 CURVE SMOOTH",
"1190 598 LINE SMOOTH",
"1190 659 OFFCURVE",
"1127 690 OFFCURVE",
"1000 690 CURVE SMOOTH",
"863 690 OFFCURVE",
"788 672 OFFCURVE",
"774 636 CURVE",
"740 635 OFFCURVE",
"699 634 OFFCURVE",
"650 634 CURVE",
"535 647 OFFCURVE",
"478 704 OFFCURVE",
"478 803 CURVE SMOOTH",
"478 889 OFFCURVE",
"535 932 OFFCURVE",
"650 932 CURVE SMOOTH",
"765 932 OFFCURVE",
"822 892 OFFCURVE",
"822 813 CURVE",
"1190 813 LINE",
"1190 1044 OFFCURVE",
"1010 1160 OFFCURVE",
"650 1160 CURVE SMOOTH",
"290 1160 OFFCURVE",
"110 1041 OFFCURVE",
"110 803 CURVE SMOOTH",
"110 545 OFFCURVE",
"290 416 OFFCURVE",
"650 416 CURVE SMOOTH",
"683 416 OFFCURVE",
"709 417 OFFCURVE",
"730 419 CURVE"
);
},
{
closed = 1;
nodes = (
"1802 -500 LINE",
"1802 704 LINE SMOOTH",
"1802 749 OFFCURVE",
"1769 790 OFFCURVE",
"1702 826 CURVE SMOOTH",
"1602 880 LINE",
"1602 932 LINE",
"1802 932 LINE",
"1802 1160 LINE",
"1512 1160 LINE SMOOTH",
"1367 1160 OFFCURVE",
"1294 1084 OFFCURVE",
"1294 932 CURVE SMOOTH",
"1294 827 LINE",
"1434 704 LINE",
"1434 -243 LINE",
"1313 -111 LINE",
"1190 -244 LINE",
"1190 -50 LINE",
"722 -50 LINE",
"722 -254 LINE",
"822 -254 LINE",
"822 -500 LINE",
"1221 -500 LINE",
"1313 -395 LINE",
"1404 -500 LINE"
);
}
);
userData = {
assembly = "NPUSHB[ ]	/* 26 values pushed */\01220 13 2 8 5 12 1 11 8 63 50 2 6 10 10 1 2 3 11 9 2 3 0 2 5 76 \012MPPEM[ ]	/* MeasurePixelPerEm */\012PUSHB[ ]	/* 1 value pushed */\01216 \012LT[ ]	/* LessThan */\012IF[ ]	/* If */\012NPUSHB[ ]	/* 67 values pushed */\0120 8 5 11 5 8 114 0 11 10 5 11 10 126 0 13 6 14 14 13 114 0 10 0 6 13 10 6 105 0 3 0 2 0 3 2 103 9 1 5 5 4 97 7 1 4 4 17 77 0 14 14 12 98 0 12 12 19 77 1 15 2 0 0 20 0 78 \012ELSE[ ]	/* Else */\012MPPEM[ ]	/* MeasurePixelPerEm */\012PUSHB[ ]	/* 1 value pushed */\01221 \012LT[ ]	/* LessThan */\012IF[ ]	/* If */\012NPUSHB[ ]	/* 68 values pushed */\0120 8 5 11 5 8 114 0 11 10 5 11 10 126 0 13 6 14 6 13 14 128 0 10 0 6 13 10 6 105 0 3 0 2 0 3 2 103 9 1 5 5 4 97 7 1 4 4 17 77 0 14 14 12 98 0 12 12 19 77 1 15 2 0 0 20 0 78 \012ELSE[ ]	/* Else */\012MPPEM[ ]	/* MeasurePixelPerEm */\012PUSHB[ ]	/* 1 value pushed */\01225 \012LT[ ]	/* LessThan */\012IF[ ]	/* If */\012NPUSHB[ ]	/* 71 values pushed */\0120 8 5 11 5 8 11 128 0 11 10 5 11 10 126 0 13 6 14 6 13 14 128 0 10 0 6 13 10 6 105 9 1 5 5 4 97 7 1 4 4 17 77 0 14 14 12 98 0 12 12 19 77 0 2 2 3 95 0 3 3 18 77 1 15 2 0 0 20 0 78 \012ELSE[ ]	/* Else */\012NPUSHB[ ]	/* 71 values pushed */\0120 8 5 11 5 8 11 128 0 11 10 5 11 10 126 0 13 6 14 6 13 14 128 1 15 2 0 2 0 134 0 10 0 6 13 10 6 105 9 1 5 5 4 97 7 1 4 4 17 77 0 14 14 12 98 0 12 12 19 77 0 2 2 3 95 0 3 3 18 2 78 \012EIF[ ]	/* EndIf */\012EIF[ ]	/* EndIf */\012EIF[ ]	/* EndIf */\012NPUSHB[ ]	/* 37 values pushed */\0121 0 61 59 57 56 54 52 46 44 43 40 38 36 35 34 33 31 29 27 19 18 17 15 8 7 6 5 4 3 0 25 1 24 16 7 22 \012CALL[ ]	/* CallFunction */";
};
width = 1912;
}
);
note = uni17A1;
unicode = 17A1;
},
{
glyphname = uni17A2;
lastChange = "2020-01-28 08:38:00 +0000";
layers = (
{
layerId = "060F58F1-3EA2-4F98-A18F-48F5C294967E";
paths = (
{
closed = 1;
nodes = (
"110 298 LINE SMOOTH",
"110 271 OFFCURVE",
"103 258 OFFCURVE",
"90 258 CURVE SMOOTH",
"20 258 LINE",
"20 0 LINE",
"160 0 LINE SMOOTH",
"372 0 OFFCURVE",
"478 99 OFFCURVE",
"478 298 CURVE SMOOTH",
"478 416 LINE",
"822 416 LINE",
"822 298 LINE SMOOTH",
"822 271 OFFCURVE",
"809 258 OFFCURVE",
"782 258 CURVE SMOOTH",
"722 258 LINE",
"722 0 LINE",
"872 0 LINE SMOOTH",
"1084 0 OFFCURVE",
"1190 99 OFFCURVE",
"1190 298 CURVE SMOOTH",
"1190 704 LINE SMOOTH",
"1190 749 OFFCURVE",
"1157 790 OFFCURVE",
"1090 826 CURVE SMOOTH",
"990 880 LINE",
"990 932 LINE",
"1190 932 LINE",
"1190 1160 LINE",
"900 1160 LINE SMOOTH",
"748 1160 OFFCURVE",
"672 1084 OFFCURVE",
"672 932 CURVE SMOOTH",
"672 827 LINE",
"822 704 LINE",
"822 644 LINE",
"478 644 LINE",
"478 704 LINE SMOOTH",
"478 749 OFFCURVE",
"453 790 OFFCURVE",
"403 826 CURVE SMOOTH",
"328 880 LINE",
"328 932 LINE",
"528 932 LINE",
"528 1160 LINE",
"238 1160 LINE SMOOTH",
"93 1160 OFFCURVE",
"20 1094 OFFCURVE",
"20 962 CURVE SMOOTH",
"20 827 LINE",
"110 704 LINE"
);
}
);
userData = {
assembly = "NPUSHB[ ]	/* 58 values pushed */\01244 22 15 14 8 1 6 2 1 1 76 0 2 0 7 6 2 7 103 4 1 1 1 0 95 3 1 0 0 17 77 9 1 6 6 5 97 8 1 5 5 19 5 78 42 40 34 18 33 38 17 36 21 17 35 10 7 31 \012CALL[ ]	/* CallFunction */";
};
width = 1300;
}
);
note = uni17A2;
unicode = 17A2;
},
{
glyphname = uni17A3;
lastChange = "2020-01-28 08:38:17 +0000";
layers = (
{
layerId = "060F58F1-3EA2-4F98-A18F-48F5C294967E";
paths = (
{
closed = 1;
nodes = (
"110 298 LINE SMOOTH",
"110 271 OFFCURVE",
"103 258 OFFCURVE",
"90 258 CURVE SMOOTH",
"20 258 LINE",
"20 0 LINE",
"160 0 LINE SMOOTH",
"372 0 OFFCURVE",
"478 99 OFFCURVE",
"478 298 CURVE SMOOTH",
"478 416 LINE",
"822 416 LINE",
"822 298 LINE SMOOTH",
"822 271 OFFCURVE",
"809 258 OFFCURVE",
"782 258 CURVE SMOOTH",
"722 258 LINE",
"722 0 LINE",
"872 0 LINE SMOOTH",
"1084 0 OFFCURVE",
"1190 99 OFFCURVE",
"1190 298 CURVE SMOOTH",
"1190 704 LINE SMOOTH",
"1190 749 OFFCURVE",
"1157 790 OFFCURVE",
"1090 826 CURVE SMOOTH",
"990 880 LINE",
"990 932 LINE",
"1190 932 LINE",
"1190 1160 LINE",
"900 1160 LINE SMOOTH",
"748 1160 OFFCURVE",
"672 1084 OFFCURVE",
"672 932 CURVE SMOOTH",
"672 827 LINE",
"822 704 LINE",
"822 644 LINE",
"478 644 LINE",
"478 704 LINE SMOOTH",
"478 749 OFFCURVE",
"453 790 OFFCURVE",
"403 826 CURVE SMOOTH",
"328 880 LINE",
"328 932 LINE",
"528 932 LINE",
"528 1160 LINE",
"238 1160 LINE SMOOTH",
"93 1160 OFFCURVE",
"20 1094 OFFCURVE",
"20 962 CURVE SMOOTH",
"20 827 LINE",
"110 704 LINE"
);
}
);
userData = {
assembly = "NPUSHB[ ]	/* 58 values pushed */\01244 22 15 14 8 1 6 2 1 1 76 0 2 0 7 6 2 7 103 4 1 1 1 0 95 3 1 0 0 17 77 9 1 6 6 5 97 8 1 5 5 19 5 78 42 40 34 18 33 38 17 36 21 17 35 10 7 31 \012CALL[ ]	/* CallFunction */";
};
width = 1300;
}
);
note = uni17A3;
unicode = 17A3;
},
{
glyphname = uni17A4;
lastChange = "2020-01-28 08:39:23 +0000";
layers = (
{
layerId = "060F58F1-3EA2-4F98-A18F-48F5C294967E";
paths = (
{
closed = 1;
nodes = (
"900 1160 LINE SMOOTH",
"748 1160 OFFCURVE",
"672 1084 OFFCURVE",
"672 932 CURVE SMOOTH",
"672 827 LINE",
"822 704 LINE",
"822 644 LINE",
"478 644 LINE",
"478 704 LINE SMOOTH",
"478 749 OFFCURVE",
"453 790 OFFCURVE",
"403 826 CURVE SMOOTH",
"328 880 LINE",
"328 932 LINE",
"528 932 LINE",
"528 1160 LINE",
"238 1160 LINE SMOOTH",
"93 1160 OFFCURVE",
"20 1094 OFFCURVE",
"20 962 CURVE SMOOTH",
"20 827 LINE",
"110 704 LINE",
"110 298 LINE SMOOTH",
"110 271 OFFCURVE",
"103 258 OFFCURVE",
"90 258 CURVE SMOOTH",
"20 258 LINE",
"20 0 LINE",
"160 0 LINE SMOOTH",
"372 0 OFFCURVE",
"478 99 OFFCURVE",
"478 298 CURVE SMOOTH",
"478 416 LINE",
"822 416 LINE",
"822 298 LINE SMOOTH",
"822 271 OFFCURVE",
"809 258 OFFCURVE",
"782 258 CURVE SMOOTH",
"722 258 LINE",
"722 0 LINE",
"872 0 LINE SMOOTH",
"1084 0 OFFCURVE",
"1190 99 OFFCURVE",
"1190 298 CURVE SMOOTH",
"1190 704 LINE SMOOTH",
"1190 749 OFFCURVE",
"1157 790 OFFCURVE",
"1090 826 CURVE SMOOTH",
"990 880 LINE",
"990 932 LINE",
"1308 932 LINE SMOOTH",
"1376 932 OFFCURVE",
"1410 890 OFFCURVE",
"1410 807 CURVE SMOOTH",
"1410 0 LINE",
"1778 0 LINE",
"1778 807 LINE SMOOTH",
"1778 1042 OFFCURVE",
"1651 1160 OFFCURVE",
"1398 1160 CURVE SMOOTH"
);
}
);
userData = {
assembly = "NPUSHB[ ]	/* 75 values pushed */\01246 45 39 32 31 9 6 10 2 1 76 0 10 0 5 4 10 5 103 9 1 2 2 0 95 8 11 2 0 0 17 77 7 1 4 4 1 97 6 3 2 1 1 19 1 78 1 0 44 43 38 37 36 34 29 27 26 24 22 21 19 17 16 14 8 6 4 3 0 51 1 48 12 7 22 \012CALL[ ]	/* CallFunction */";
};
width = 1888;
}
);
note = uni17A4;
unicode = 17A4;
},
{
glyphname = uni17A5;
lastChange = "2020-01-28 08:41:08 +0000";
layers = (
{
layerId = "060F58F1-3EA2-4F98-A18F-48F5C294967E";
paths = (
{
closed = 1;
nodes = (
"388 834 LINE",
"348 890 LINE",
"348 932 LINE",
"385 932 LINE SMOOTH",
"405 932 OFFCURVE",
"458 921 OFFCURVE",
"543 898 CURVE SMOOTH",
"628 875 OFFCURVE",
"713 866 OFFCURVE",
"800 872 CURVE SMOOTH",
"1060 891 OFFCURVE",
"1190 1002 OFFCURVE",
"1190 1205 CURVE SMOOTH",
"1190 1280 LINE",
"822 1280 LINE",
"822 1205 LINE SMOOTH",
"822 1134 OFFCURVE",
"791 1099 OFFCURVE",
"730 1100 CURVE SMOOTH",
"623 1102 OFFCURVE",
"542 1113 OFFCURVE",
"486 1132 CURVE SMOOTH",
"430 1151 OFFCURVE",
"386 1160 OFFCURVE",
"355 1160 CURVE SMOOTH",
"258 1160 LINE SMOOTH",
"106 1160 OFFCURVE",
"30 1097 OFFCURVE",
"30 972 CURVE SMOOTH",
"30 847 LINE",
"140 714 LINE"
);
},
{
closed = 1;
nodes = (
"478 487 LINE SMOOTH",
"478 550 OFFCURVE",
"539 592 OFFCURVE",
"650 592 CURVE SMOOTH",
"761 592 OFFCURVE",
"822 550 OFFCURVE",
"822 487 CURVE SMOOTH",
"822 0 LINE",
"1190 0 LINE",
"1190 487 LINE SMOOTH",
"1190 702 OFFCURVE",
"1010 810 OFFCURVE",
"650 810 CURVE SMOOTH",
"290 810 OFFCURVE",
"110 702 OFFCURVE",
"110 487 CURVE SMOOTH",
"110 298 LINE SMOOTH",
"110 99 OFFCURVE",
"230 0 OFFCURVE",
"470 0 CURVE SMOOTH",
"600 0 LINE",
"600 258 LINE",
"530 258 LINE SMOOTH",
"495 258 OFFCURVE",
"478 271 OFFCURVE",
"478 298 CURVE SMOOTH"
);
}
);
userData = {
assembly = "NPUSHB[ ]	/* 11 values pushed */\01242 1 8 9 43 23 2 2 8 2 76 \012MPPEM[ ]	/* MeasurePixelPerEm */\012PUSHB[ ]	/* 1 value pushed */\01212 \012LT[ ]	/* LessThan */\012IF[ ]	/* If */\012NPUSHB[ ]	/* 44 values pushed */\0120 7 5 6 7 112 0 6 0 8 2 6 8 106 0 2 0 4 0 2 4 105 0 9 9 5 97 0 5 5 17 77 0 0 0 1 97 3 1 1 1 19 1 78 \012ELSE[ ]	/* Else */\012NPUSHB[ ]	/* 43 values pushed */\0120 7 5 7 133 0 6 0 8 2 6 8 106 0 2 0 4 0 2 4 105 0 9 9 5 97 0 5 5 17 77 0 0 0 1 97 3 1 1 1 19 1 78 \012EIF[ ]	/* EndIf */\012NPUSHB[ ]	/* 14 values pushed */\01241 39 34 18 33 55 34 18 35 33 33 10 7 31 \012CALL[ ]	/* CallFunction */";
};
width = 1300;
}
);
note = uni17A5;
unicode = 17A5;
},
{
glyphname = uni17A6;
lastChange = "2020-01-28 08:51:46 +0000";
layers = (
{
layerId = "060F58F1-3EA2-4F98-A18F-48F5C294967E";
paths = (
{
closed = 1;
nodes = (
"478 -274 OFFCURVE",
"527 -260 OFFCURVE",
"625 -260 CURVE SMOOTH",
"723 -260 OFFCURVE",
"772 -274 OFFCURVE",
"772 -303 CURVE SMOOTH",
"772 -434 OFFCURVE",
"952 -500 OFFCURVE",
"1312 -500 CURVE SMOOTH",
"1631 -500 OFFCURVE",
"1790 -420 OFFCURVE",
"1790 -260 CURVE SMOOTH",
"1790 1080 LINE SMOOTH",
"1790 1360 OFFCURVE",
"1641 1500 OFFCURVE",
"1342 1500 CURVE SMOOTH",
"1272 1500 OFFCURVE",
"1205 1471 OFFCURVE",
"1142 1412 CURVE",
"1142 1730 LINE",
"774 1730 LINE",
"774 1230 LINE",
"1082 1230 LINE",
"1122 1263 OFFCURVE",
"1199 1280 OFFCURVE",
"1312 1280 CURVE SMOOTH",
"1385 1280 OFFCURVE",
"1422 1213 OFFCURVE",
"1422 1080 CURVE SMOOTH",
"1422 -260 LINE SMOOTH",
"1422 -313 OFFCURVE",
"1385 -340 OFFCURVE",
"1312 -340 CURVE SMOOTH",
"1197 -340 OFFCURVE",
"1140 -328 OFFCURVE",
"1140 -303 CURVE SMOOTH",
"1140 -148 OFFCURVE",
"968 -70 OFFCURVE",
"625 -70 CURVE SMOOTH",
"282 -70 OFFCURVE",
"110 -148 OFFCURVE",
"110 -303 CURVE SMOOTH",
"110 -500 LINE",
"584 -500 LINE",
"584 -340 LINE",
"478 -340 LINE",
"478 -303 LINE SMOOTH"
);
},
{
closed = 1;
nodes = (
"772 0 LINE",
"1140 0 LINE",
"1140 807 LINE SMOOTH",
"1140 1042 OFFCURVE",
"968 1160 OFFCURVE",
"625 1160 CURVE SMOOTH",
"282 1160 OFFCURVE",
"110 1042 OFFCURVE",
"110 807 CURVE SMOOTH",
"110 298 LINE SMOOTH",
"110 99 OFFCURVE",
"230 0 OFFCURVE",
"470 0 CURVE SMOOTH",
"600 0 LINE",
"600 258 LINE",
"530 258 LINE SMOOTH",
"495 258 OFFCURVE",
"478 271 OFFCURVE",
"478 298 CURVE SMOOTH",
"478 807 LINE SMOOTH",
"478 890 OFFCURVE",
"527 932 OFFCURVE",
"625 932 CURVE SMOOTH",
"723 932 OFFCURVE",
"772 890 OFFCURVE",
"772 807 CURVE SMOOTH"
);
}
);
userData = {
assembly = "PUSHB[ ]	/* 6 values pushed */\01224 1 5 8 1 76 \012MPPEM[ ]	/* MeasurePixelPerEm */\012PUSHB[ ]	/* 1 value pushed */\01221 \012LT[ ]	/* LessThan */\012IF[ ]	/* If */\012NPUSHB[ ]	/* 59 values pushed */\0120 8 0 5 6 8 5 105 0 7 0 6 13 7 6 103 0 3 15 1 0 1 3 0 105 0 10 10 13 97 0 13 13 17 77 0 11 11 12 97 14 1 12 12 19 77 4 1 1 1 2 97 9 1 2 2 20 2 78 \012ELSE[ ]	/* Else */\012MPPEM[ ]	/* MeasurePixelPerEm */\012PUSHB[ ]	/* 1 value pushed */\01225 \012LT[ ]	/* LessThan */\012IF[ ]	/* If */\012NPUSHB[ ]	/* 61 values pushed */\0120 8 0 5 6 8 5 105 0 7 0 6 13 7 6 103 0 10 10 13 97 0 13 13 17 77 0 11 11 12 97 14 1 12 12 19 77 15 1 0 0 3 97 0 3 3 18 77 4 1 1 1 2 97 9 1 2 2 20 2 78 \012ELSE[ ]	/* Else */\012MPPEM[ ]	/* MeasurePixelPerEm */\012PUSHB[ ]	/* 1 value pushed */\01250 \012LT[ ]	/* LessThan */\012IF[ ]	/* If */\012NPUSHB[ ]	/* 63 values pushed */\0120 8 0 5 6 8 5 105 0 7 0 6 13 7 6 103 0 1 4 2 1 87 0 4 9 1 2 4 2 101 0 10 10 13 97 0 13 13 17 77 0 11 11 12 97 14 1 12 12 19 77 15 1 0 0 3 97 0 3 3 18 0 78 \012ELSE[ ]	/* Else */\012NPUSHB[ ]	/* 61 values pushed */\0120 8 0 5 6 8 5 105 0 7 0 6 13 7 6 103 0 3 15 1 0 1 3 0 105 0 1 4 2 1 87 0 4 9 1 2 4 2 101 0 10 10 13 97 0 13 13 17 77 0 11 11 12 97 14 1 12 12 19 12 78 \012EIF[ ]	/* EndIf */\012EIF[ ]	/* EndIf */\012EIF[ ]	/* EndIf */\012NPUSHB[ ]	/* 37 values pushed */\0121 0 57 56 54 52 49 47 46 44 41 39 32 30 27 25 23 22 21 20 19 17 14 12 10 8 6 5 4 3 0 36 1 34 16 7 22 \012CALL[ ]	/* CallFunction */";
};
width = 1900;
}
);
note = uni17A6;
unicode = 17A6;
},
{
glyphname = uni17A7;
lastChange = "2020-01-28 08:52:30 +0000";
layers = (
{
layerId = "060F58F1-3EA2-4F98-A18F-48F5C294967E";
paths = (
{
closed = 1;
nodes = (
"1190 1044 OFFCURVE",
"1010 1160 OFFCURVE",
"650 1160 CURVE SMOOTH",
"290 1160 OFFCURVE",
"110 1044 OFFCURVE",
"110 813 CURVE SMOOTH",
"110 721 OFFCURVE",
"203 675 OFFCURVE",
"388 675 CURVE SMOOTH",
"530 675 LINE",
"530 813 LINE",
"478 813 LINE",
"478 892 OFFCURVE",
"535 932 OFFCURVE",
"650 932 CURVE SMOOTH",
"765 932 OFFCURVE",
"822 892 OFFCURVE",
"822 813 CURVE SMOOTH",
"822 680 OFFCURVE",
"718 614 OFFCURVE",
"510 614 CURVE SMOOTH",
"243 614 OFFCURVE",
"110 505 OFFCURVE",
"110 287 CURVE SMOOTH",
"110 96 OFFCURVE",
"250 0 OFFCURVE",
"530 0 CURVE SMOOTH",
"629 0 OFFCURVE",
"726 28 OFFCURVE",
"822 85 CURVE",
"822 -50 LINE",
"1190 -50 LINE",
"1190 400 LINE",
"822 400 LINE",
"822 317 LINE",
"749 251 OFFCURVE",
"651 218 OFFCURVE",
"530 218 CURVE SMOOTH",
"495 218 OFFCURVE",
"478 241 OFFCURVE",
"478 287 CURVE SMOOTH",
"478 360 OFFCURVE",
"489 396 OFFCURVE",
"510 396 CURVE SMOOTH",
"963 396 OFFCURVE",
"1190 535 OFFCURVE",
"1190 813 CURVE SMOOTH"
);
}
);
userData = {
assembly = "NPUSHB[ ]	/* 10 values pushed */\0128 1 1 0 13 1 4 1 2 76 \012MPPEM[ ]	/* MeasurePixelPerEm */\012PUSHB[ ]	/* 1 value pushed */\01214 \012LT[ ]	/* LessThan */\012IF[ ]	/* If */\012NPUSHB[ ]	/* 49 values pushed */\0120 2 5 0 5 2 114 0 3 4 3 134 0 7 0 8 5 7 8 105 0 5 0 0 1 5 0 105 0 6 6 9 97 0 9 9 17 77 0 1 1 4 97 0 4 4 19 4 78 \012ELSE[ ]	/* Else */\012MPPEM[ ]	/* MeasurePixelPerEm */\012PUSHB[ ]	/* 1 value pushed */\01216 \012LT[ ]	/* LessThan */\012IF[ ]	/* If */\012NPUSHB[ ]	/* 50 values pushed */\0120 2 5 0 5 2 0 128 0 3 4 3 134 0 7 0 8 5 7 8 105 0 5 0 0 1 5 0 105 0 6 6 9 97 0 9 9 17 77 0 1 1 4 97 0 4 4 19 4 78 \012ELSE[ ]	/* Else */\012MPPEM[ ]	/* MeasurePixelPerEm */\012PUSHB[ ]	/* 1 value pushed */\01221 \012LT[ ]	/* LessThan */\012IF[ ]	/* If */\012NPUSHB[ ]	/* 50 values pushed */\0120 2 5 0 5 2 0 128 0 7 0 8 5 7 8 105 0 5 0 0 1 5 0 105 0 6 6 9 97 0 9 9 17 77 0 1 1 4 97 0 4 4 19 77 0 3 3 19 3 78 \012ELSE[ ]	/* Else */\012NPUSHB[ ]	/* 50 values pushed */\0120 2 5 0 5 2 0 128 0 3 4 3 134 0 7 0 8 5 7 8 105 0 5 0 0 1 5 0 105 0 6 6 9 97 0 9 9 17 77 0 1 1 4 97 0 4 4 19 4 78 \012EIF[ ]	/* EndIf */\012EIF[ ]	/* EndIf */\012EIF[ ]	/* EndIf */\012NPUSHB[ ]	/* 14 values pushed */\01233 31 33 17 34 34 34 17 18 34 33 10 7 31 \012CALL[ ]	/* CallFunction */";
};
width = 1300;
}
);
note = uni17A7;
unicode = 17A7;
},
{
glyphname = uni17A8;
lastChange = "2020-01-28 08:53:05 +0000";
layers = (
{
layerId = "060F58F1-3EA2-4F98-A18F-48F5C294967E";
paths = (
{
closed = 1;
nodes = (
"1190 1044 OFFCURVE",
"1010 1160 OFFCURVE",
"650 1160 CURVE SMOOTH",
"290 1160 OFFCURVE",
"110 1044 OFFCURVE",
"110 813 CURVE SMOOTH",
"110 721 OFFCURVE",
"203 675 OFFCURVE",
"388 675 CURVE SMOOTH",
"530 675 LINE",
"530 813 LINE",
"478 813 LINE",
"478 892 OFFCURVE",
"535 932 OFFCURVE",
"650 932 CURVE SMOOTH",
"765 932 OFFCURVE",
"822 892 OFFCURVE",
"822 813 CURVE SMOOTH",
"822 680 OFFCURVE",
"718 614 OFFCURVE",
"510 614 CURVE SMOOTH",
"243 614 OFFCURVE",
"110 505 OFFCURVE",
"110 287 CURVE SMOOTH",
"110 96 OFFCURVE",
"250 0 OFFCURVE",
"530 0 CURVE SMOOTH",
"629 0 OFFCURVE",
"726 28 OFFCURVE",
"822 85 CURVE",
"822 -50 LINE",
"1190 -50 LINE",
"1190 400 LINE",
"822 400 LINE",
"822 317 LINE",
"749 251 OFFCURVE",
"651 218 OFFCURVE",
"530 218 CURVE SMOOTH",
"495 218 OFFCURVE",
"478 241 OFFCURVE",
"478 287 CURVE SMOOTH",
"478 360 OFFCURVE",
"489 396 OFFCURVE",
"510 396 CURVE SMOOTH",
"963 396 OFFCURVE",
"1190 535 OFFCURVE",
"1190 813 CURVE SMOOTH"
);
},
{
closed = 1;
nodes = (
"110 1252 LINE",
"1190 1252 LINE",
"1190 1480 LINE",
"110 1480 LINE"
);
}
);
userData = {
assembly = "NPUSHB[ ]	/* 10 values pushed */\0128 1 1 0 13 1 4 1 2 76 \012MPPEM[ ]	/* MeasurePixelPerEm */\012PUSHB[ ]	/* 1 value pushed */\01214 \012LT[ ]	/* LessThan */\012IF[ ]	/* If */\012NPUSHB[ ]	/* 57 values pushed */\0120 2 5 0 5 2 114 0 3 4 3 134 0 10 0 11 9 10 11 103 0 7 0 8 5 7 8 105 0 5 0 0 1 5 0 105 0 6 6 9 97 0 9 9 17 77 0 1 1 4 97 0 4 4 19 4 78 \012ELSE[ ]	/* Else */\012MPPEM[ ]	/* MeasurePixelPerEm */\012PUSHB[ ]	/* 1 value pushed */\01216 \012LT[ ]	/* LessThan */\012IF[ ]	/* If */\012NPUSHB[ ]	/* 58 values pushed */\0120 2 5 0 5 2 0 128 0 3 4 3 134 0 10 0 11 9 10 11 103 0 7 0 8 5 7 8 105 0 5 0 0 1 5 0 105 0 6 6 9 97 0 9 9 17 77 0 1 1 4 97 0 4 4 19 4 78 \012ELSE[ ]	/* Else */\012MPPEM[ ]	/* MeasurePixelPerEm */\012PUSHB[ ]	/* 1 value pushed */\01221 \012LT[ ]	/* LessThan */\012IF[ ]	/* If */\012NPUSHB[ ]	/* 58 values pushed */\0120 2 5 0 5 2 0 128 0 10 0 11 9 10 11 103 0 7 0 8 5 7 8 105 0 5 0 0 1 5 0 105 0 6 6 9 97 0 9 9 17 77 0 1 1 4 97 0 4 4 19 77 0 3 3 19 3 78 \012ELSE[ ]	/* Else */\012NPUSHB[ ]	/* 58 values pushed */\0120 2 5 0 5 2 0 128 0 3 4 3 134 0 10 0 11 9 10 11 103 0 7 0 8 5 7 8 105 0 5 0 0 1 5 0 105 0 6 6 9 97 0 9 9 17 77 0 1 1 4 97 0 4 4 19 4 78 \012EIF[ ]	/* EndIf */\012EIF[ ]	/* EndIf */\012EIF[ ]	/* EndIf */\012NPUSHB[ ]	/* 18 values pushed */\01239 38 37 36 33 31 33 17 34 34 34 17 18 34 33 12 7 31 \012CALL[ ]	/* CallFunction */";
};
width = 1300;
}
);
note = uni17A8;
unicode = 17A8;
},
{
glyphname = uni17A9;
lastChange = "2020-01-28 08:53:41 +0000";
layers = (
{
layerId = "060F58F1-3EA2-4F98-A18F-48F5C294967E";
paths = (
{
closed = 1;
nodes = (
"1190 1044 OFFCURVE",
"1010 1160 OFFCURVE",
"650 1160 CURVE SMOOTH",
"290 1160 OFFCURVE",
"110 1044 OFFCURVE",
"110 813 CURVE SMOOTH",
"110 721 OFFCURVE",
"203 675 OFFCURVE",
"388 675 CURVE SMOOTH",
"530 675 LINE",
"530 813 LINE",
"478 813 LINE",
"478 892 OFFCURVE",
"535 932 OFFCURVE",
"650 932 CURVE SMOOTH",
"765 932 OFFCURVE",
"822 892 OFFCURVE",
"822 813 CURVE SMOOTH",
"822 680 OFFCURVE",
"718 614 OFFCURVE",
"510 614 CURVE SMOOTH",
"243 614 OFFCURVE",
"110 505 OFFCURVE",
"110 287 CURVE SMOOTH",
"110 96 OFFCURVE",
"250 0 OFFCURVE",
"530 0 CURVE SMOOTH",
"629 0 OFFCURVE",
"726 28 OFFCURVE",
"822 85 CURVE",
"822 -50 LINE",
"1130 -50 LINE",
"1130 400 LINE",
"822 400 LINE",
"822 317 LINE",
"749 251 OFFCURVE",
"651 218 OFFCURVE",
"530 218 CURVE SMOOTH",
"495 218 OFFCURVE",
"478 241 OFFCURVE",
"478 287 CURVE SMOOTH",
"478 360 OFFCURVE",
"489 396 OFFCURVE",
"510 396 CURVE SMOOTH",
"963 396 OFFCURVE",
"1190 535 OFFCURVE",
"1190 813 CURVE SMOOTH"
);
},
{
closed = 1;
nodes = (
"1212 480 LINE",
"1212 -50 LINE",
"1390 -50 LINE",
"1390 480 LINE"
);
}
);
userData = {
assembly = "NPUSHB[ ]	/* 10 values pushed */\0128 1 1 0 13 1 4 1 2 76 \012MPPEM[ ]	/* MeasurePixelPerEm */\012PUSHB[ ]	/* 1 value pushed */\01214 \012LT[ ]	/* LessThan */\012IF[ ]	/* If */\012NPUSHB[ ]	/* 53 values pushed */\0120 2 11 0 5 2 114 0 7 0 8 5 7 8 105 0 5 0 0 1 5 0 105 12 1 11 10 1 3 11 3 99 0 6 6 9 97 0 9 9 17 77 0 1 1 4 97 0 4 4 19 4 78 \012ELSE[ ]	/* Else */\012MPPEM[ ]	/* MeasurePixelPerEm */\012PUSHB[ ]	/* 1 value pushed */\01216 \012LT[ ]	/* LessThan */\012IF[ ]	/* If */\012NPUSHB[ ]	/* 54 values pushed */\0120 2 11 0 11 2 0 128 0 7 0 8 5 7 8 105 0 5 0 0 1 5 0 105 12 1 11 10 1 3 11 3 99 0 6 6 9 97 0 9 9 17 77 0 1 1 4 97 0 4 4 19 4 78 \012ELSE[ ]	/* Else */\012MPPEM[ ]	/* MeasurePixelPerEm */\012PUSHB[ ]	/* 1 value pushed */\01221 \012LT[ ]	/* LessThan */\012IF[ ]	/* If */\012NPUSHB[ ]	/* 57 values pushed */\0120 2 11 0 11 2 0 128 0 7 0 8 5 7 8 105 0 5 0 0 1 5 0 105 0 6 6 9 97 0 9 9 17 77 0 1 1 4 97 0 4 4 19 77 12 1 11 11 3 95 10 1 3 3 19 3 78 \012ELSE[ ]	/* Else */\012NPUSHB[ ]	/* 54 values pushed */\0120 2 11 0 11 2 0 128 0 7 0 8 5 7 8 105 0 5 0 0 1 5 0 105 12 1 11 10 1 3 11 3 99 0 6 6 9 97 0 9 9 17 77 0 1 1 4 97 0 4 4 19 4 78 \012EIF[ ]	/* EndIf */\012EIF[ ]	/* EndIf */\012EIF[ ]	/* EndIf */\012NPUSHB[ ]	/* 22 values pushed */\01236 36 36 39 36 39 38 37 33 31 33 17 34 34 34 17 18 34 33 13 7 31 \012CALL[ ]	/* CallFunction */";
};
width = 1300;
}
);
note = uni17A9;
unicode = 17A9;
},
{
glyphname = uni17AA;
lastChange = "2020-01-28 08:55:16 +0000";
layers = (
{
layerId = "060F58F1-3EA2-4F98-A18F-48F5C294967E";
paths = (
{
closed = 1;
nodes = (
"388 1204 LINE",
"348 1260 LINE",
"348 1302 LINE",
"385 1302 LINE SMOOTH",
"405 1302 OFFCURVE",
"458 1291 OFFCURVE",
"543 1268 CURVE SMOOTH",
"628 1245 OFFCURVE",
"713 1236 OFFCURVE",
"800 1242 CURVE SMOOTH",
"1060 1260 OFFCURVE",
"1190 1372 OFFCURVE",
"1190 1575 CURVE SMOOTH",
"1190 1650 LINE",
"822 1650 LINE",
"822 1575 LINE SMOOTH",
"822 1504 OFFCURVE",
"791 1469 OFFCURVE",
"730 1470 CURVE SMOOTH",
"623 1472 OFFCURVE",
"542 1483 OFFCURVE",
"486 1502 CURVE SMOOTH",
"430 1521 OFFCURVE",
"386 1530 OFFCURVE",
"355 1530 CURVE SMOOTH",
"258 1530 LINE SMOOTH",
"106 1530 OFFCURVE",
"30 1467 OFFCURVE",
"30 1342 CURVE SMOOTH",
"30 1217 LINE",
"140 1084 LINE"
);
},
{
closed = 1;
nodes = (
"1190 1044 OFFCURVE",
"1010 1160 OFFCURVE",
"650 1160 CURVE SMOOTH",
"290 1160 OFFCURVE",
"110 1044 OFFCURVE",
"110 813 CURVE SMOOTH",
"110 721 OFFCURVE",
"203 675 OFFCURVE",
"388 675 CURVE SMOOTH",
"530 675 LINE",
"530 813 LINE",
"478 813 LINE",
"478 892 OFFCURVE",
"535 932 OFFCURVE",
"650 932 CURVE SMOOTH",
"765 932 OFFCURVE",
"822 892 OFFCURVE",
"822 813 CURVE SMOOTH",
"822 680 OFFCURVE",
"718 614 OFFCURVE",
"510 614 CURVE SMOOTH",
"243 614 OFFCURVE",
"110 505 OFFCURVE",
"110 287 CURVE SMOOTH",
"110 96 OFFCURVE",
"250 0 OFFCURVE",
"530 0 CURVE SMOOTH",
"629 0 OFFCURVE",
"726 28 OFFCURVE",
"822 85 CURVE",
"822 -50 LINE",
"1190 -50 LINE",
"1190 400 LINE",
"822 400 LINE",
"822 317 LINE",
"749 251 OFFCURVE",
"651 218 OFFCURVE",
"530 218 CURVE SMOOTH",
"495 218 OFFCURVE",
"478 241 OFFCURVE",
"478 287 CURVE SMOOTH",
"478 360 OFFCURVE",
"489 396 OFFCURVE",
"510 396 CURVE SMOOTH",
"963 396 OFFCURVE",
"1190 535 OFFCURVE",
"1190 813 CURVE SMOOTH"
);
}
);
userData = {
assembly = "NPUSHB[ ]	/* 19 values pushed */\01256 1 13 14 57 37 2 9 13 8 1 1 0 13 1 4 1 4 76 \012MPPEM[ ]	/* MeasurePixelPerEm */\012PUSHB[ ]	/* 1 value pushed */\01212 \012LT[ ]	/* LessThan */\012IF[ ]	/* If */\012NPUSHB[ ]	/* 71 values pushed */\0120 12 10 11 12 112 0 2 5 0 5 2 114 0 3 4 3 134 0 10 0 14 13 10 14 105 0 11 0 13 9 11 13 106 0 7 0 8 5 7 8 105 0 5 0 0 1 5 0 105 0 6 6 9 97 0 9 9 17 77 0 1 1 4 97 0 4 4 19 4 78 \012ELSE[ ]	/* Else */\012MPPEM[ ]	/* MeasurePixelPerEm */\012PUSHB[ ]	/* 1 value pushed */\01214 \012LT[ ]	/* LessThan */\012IF[ ]	/* If */\012NPUSHB[ ]	/* 70 values pushed */\0120 12 10 12 133 0 2 5 0 5 2 114 0 3 4 3 134 0 10 0 14 13 10 14 105 0 11 0 13 9 11 13 106 0 7 0 8 5 7 8 105 0 5 0 0 1 5 0 105 0 6 6 9 97 0 9 9 17 77 0 1 1 4 97 0 4 4 19 4 78 \012ELSE[ ]	/* Else */\012MPPEM[ ]	/* MeasurePixelPerEm */\012PUSHB[ ]	/* 1 value pushed */\01216 \012LT[ ]	/* LessThan */\012IF[ ]	/* If */\012NPUSHB[ ]	/* 71 values pushed */\0120 12 10 12 133 0 2 5 0 5 2 0 128 0 3 4 3 134 0 10 0 14 13 10 14 105 0 11 0 13 9 11 13 106 0 7 0 8 5 7 8 105 0 5 0 0 1 5 0 105 0 6 6 9 97 0 9 9 17 77 0 1 1 4 97 0 4 4 19 4 78 \012ELSE[ ]	/* Else */\012MPPEM[ ]	/* MeasurePixelPerEm */\012PUSHB[ ]	/* 1 value pushed */\01221 \012LT[ ]	/* LessThan */\012IF[ ]	/* If */\012NPUSHB[ ]	/* 71 values pushed */\0120 12 10 12 133 0 2 5 0 5 2 0 128 0 10 0 14 13 10 14 105 0 11 0 13 9 11 13 106 0 7 0 8 5 7 8 105 0 5 0 0 1 5 0 105 0 6 6 9 97 0 9 9 17 77 0 1 1 4 97 0 4 4 19 77 0 3 3 19 3 78 \012ELSE[ ]	/* Else */\012NPUSHB[ ]	/* 71 values pushed */\0120 12 10 12 133 0 2 5 0 5 2 0 128 0 3 4 3 134 0 10 0 14 13 10 14 105 0 11 0 13 9 11 13 106 0 7 0 8 5 7 8 105 0 5 0 0 1 5 0 105 0 6 6 9 97 0 9 9 17 77 0 1 1 4 97 0 4 4 19 4 78 \012EIF[ ]	/* EndIf */\012EIF[ ]	/* EndIf */\012EIF[ ]	/* EndIf */\012EIF[ ]	/* EndIf */\012NPUSHB[ ]	/* 24 values pushed */\01255 53 52 50 48 47 45 43 42 39 33 31 33 17 34 34 34 17 18 34 33 15 7 31 \012CALL[ ]	/* CallFunction */";
};
width = 1300;
}
);
note = uni17AA;
unicode = 17AA;
},
{
glyphname = uni17AB;
lastChange = "2020-01-28 08:56:19 +0000";
layers = (
{
layerId = "060F58F1-3EA2-4F98-A18F-48F5C294967E";
paths = (
{
closed = 1;
nodes = (
"822 323 LINE SMOOTH",
"822 260 OFFCURVE",
"765 228 OFFCURVE",
"650 228 CURVE SMOOTH",
"535 228 OFFCURVE",
"478 260 OFFCURVE",
"478 323 CURVE SMOOTH",
"478 704 LINE SMOOTH",
"478 749 OFFCURVE",
"453 790 OFFCURVE",
"403 826 CURVE SMOOTH",
"328 880 LINE",
"328 932 LINE",
"508 932 LINE",
"508 1160 LINE",
"238 1160 LINE SMOOTH",
"93 1160 OFFCURVE",
"20 1094 OFFCURVE",
"20 962 CURVE SMOOTH",
"20 827 LINE",
"110 704 LINE",
"110 323 LINE SMOOTH",
"110 108 OFFCURVE",
"290 0 OFFCURVE",
"650 0 CURVE SMOOTH",
"1010 0 OFFCURVE",
"1190 108 OFFCURVE",
"1190 323 CURVE SMOOTH",
"1190 704 LINE SMOOTH",
"1190 749 OFFCURVE",
"1157 790 OFFCURVE",
"1090 826 CURVE SMOOTH",
"990 880 LINE",
"990 932 LINE",
"1190 932 LINE",
"1190 1160 LINE",
"880 1160 LINE SMOOTH",
"741 1160 OFFCURVE",
"672 1084 OFFCURVE",
"672 932 CURVE SMOOTH",
"672 827 LINE",
"822 704 LINE"
);
},
{
closed = 1;
nodes = (
"110 -295 LINE",
"110 -500 LINE",
"500 -500 LINE SMOOTH",
"960 -500 OFFCURVE",
"1190 -408 OFFCURVE",
"1190 -224 CURVE SMOOTH",
"1190 -108 OFFCURVE",
"1110 -50 OFFCURVE",
"950 -50 CURVE SMOOTH",
"770 -50 LINE",
"770 -224 LINE",
"822 -224 LINE",
"822 -271 OFFCURVE",
"715 -295 OFFCURVE",
"500 -295 CURVE SMOOTH"
);
}
);
userData = {
assembly = "NPUSHB[ ]	/* 11 values pushed */\01248 39 32 31 22 15 6 9 5 1 76 \012MPPEM[ ]	/* MeasurePixelPerEm */\012PUSHB[ ]	/* 1 value pushed */\01221 \012LT[ ]	/* LessThan */\012IF[ ]	/* If */\012NPUSHB[ ]	/* 42 values pushed */\0120 2 0 1 0 2 1 103 8 1 5 5 4 95 7 1 4 4 17 77 0 9 9 6 97 0 6 6 19 77 10 1 0 0 3 95 0 3 3 20 3 78 \012ELSE[ ]	/* Else */\012MPPEM[ ]	/* MeasurePixelPerEm */\012PUSHB[ ]	/* 1 value pushed */\01225 \012LT[ ]	/* LessThan */\012IF[ ]	/* If */\012NPUSHB[ ]	/* 44 values pushed */\0128 1 5 5 4 95 7 1 4 4 17 77 0 9 9 6 97 0 6 6 19 77 0 1 1 2 95 0 2 2 18 77 10 1 0 0 3 95 0 3 3 20 3 78 \012ELSE[ ]	/* Else */\012NPUSHB[ ]	/* 41 values pushed */\01210 1 0 0 3 0 3 99 8 1 5 5 4 95 7 1 4 4 17 77 0 9 9 6 97 0 6 6 19 77 0 1 1 2 95 0 2 2 18 1 78 \012EIF[ ]	/* EndIf */\012EIF[ ]	/* EndIf */\012NPUSHB[ ]	/* 27 values pushed */\0122 0 46 44 38 37 36 34 29 27 21 20 19 17 11 9 7 5 4 3 0 13 2 12 11 7 22 \012CALL[ ]	/* CallFunction */";
};
width = 1300;
}
);
note = uni17AB;
unicode = 17AB;
},
{
glyphname = uni17AC;
lastChange = "2020-01-28 08:57:02 +0000";
layers = (
{
layerId = "060F58F1-3EA2-4F98-A18F-48F5C294967E";
paths = (
{
closed = 1;
nodes = (
"110 108 OFFCURVE",
"290 0 OFFCURVE",
"650 0 CURVE SMOOTH",
"1010 0 OFFCURVE",
"1190 108 OFFCURVE",
"1190 323 CURVE SMOOTH",
"1190 704 LINE SMOOTH",
"1190 749 OFFCURVE",
"1157 790 OFFCURVE",
"1090 826 CURVE SMOOTH",
"990 880 LINE",
"990 932 LINE",
"1190 932 LINE",
"1190 1160 LINE",
"880 1160 LINE SMOOTH",
"741 1160 OFFCURVE",
"672 1084 OFFCURVE",
"672 932 CURVE SMOOTH",
"672 827 LINE",
"822 704 LINE",
"822 323 LINE SMOOTH",
"822 260 OFFCURVE",
"765 228 OFFCURVE",
"650 228 CURVE SMOOTH",
"535 228 OFFCURVE",
"478 260 OFFCURVE",
"478 323 CURVE SMOOTH",
"478 704 LINE SMOOTH",
"478 749 OFFCURVE",
"453 790 OFFCURVE",
"403 826 CURVE SMOOTH",
"328 880 LINE",
"328 932 LINE",
"508 932 LINE",
"508 1160 LINE",
"238 1160 LINE SMOOTH",
"93 1160 OFFCURVE",
"20 1094 OFFCURVE",
"20 962 CURVE SMOOTH",
"20 827 LINE",
"110 704 LINE",
"110 323 LINE SMOOTH"
);
},
{
closed = 1;
nodes = (
"1225 -295 OFFCURVE",
"1207 -287 OFFCURVE",
"1185 -270 CURVE",
"1188 -255 OFFCURVE",
"1190 -240 OFFCURVE",
"1190 -224 CURVE SMOOTH",
"1190 -108 OFFCURVE",
"1110 -50 OFFCURVE",
"950 -50 CURVE SMOOTH",
"770 -50 LINE",
"770 -224 LINE",
"822 -224 LINE",
"822 -271 OFFCURVE",
"715 -295 OFFCURVE",
"500 -295 CURVE SMOOTH",
"110 -295 LINE",
"110 -500 LINE",
"500 -500 LINE SMOOTH",
"727 -500 OFFCURVE",
"898 -478 OFFCURVE",
"1013 -433 CURVE",
"1071 -478 OFFCURVE",
"1137 -500 OFFCURVE",
"1210 -500 CURVE SMOOTH",
"1290 -500 LINE",
"1290 -295 LINE",
"1240 -295 LINE SMOOTH"
);
}
);
userData = {
assembly = "NPUSHB[ ]	/* 15 values pushed */\01257 48 41 40 31 24 6 11 7 7 1 1 0 2 76 \012MPPEM[ ]	/* MeasurePixelPerEm */\012PUSHB[ ]	/* 1 value pushed */\01221 \012LT[ ]	/* LessThan */\012IF[ ]	/* If */\012NPUSHB[ ]	/* 43 values pushed */\0120 5 0 4 0 5 4 103 10 1 7 7 6 95 9 1 6 6 17 77 0 11 11 8 97 0 8 8 19 77 3 1 0 0 1 97 2 1 1 1 20 1 78 \012ELSE[ ]	/* Else */\012MPPEM[ ]	/* MeasurePixelPerEm */\012PUSHB[ ]	/* 1 value pushed */\01225 \012LT[ ]	/* LessThan */\012IF[ ]	/* If */\012NPUSHB[ ]	/* 45 values pushed */\01210 1 7 7 6 95 9 1 6 6 17 77 0 11 11 8 97 0 8 8 19 77 0 4 4 5 95 0 5 5 18 77 3 1 0 0 1 97 2 1 1 1 20 1 78 \012ELSE[ ]	/* Else */\012NPUSHB[ ]	/* 42 values pushed */\0123 1 0 2 1 1 0 1 101 10 1 7 7 6 95 9 1 6 6 17 77 0 11 11 8 97 0 8 8 19 77 0 4 4 5 95 0 5 5 18 4 78 \012EIF[ ]	/* EndIf */\012EIF[ ]	/* EndIf */\012NPUSHB[ ]	/* 18 values pushed */\01255 53 47 46 45 43 38 17 40 33 17 33 34 33 33 12 7 31 \012CALL[ ]	/* CallFunction */";
};
width = 1300;
}
);
note = uni17AC;
unicode = 17AC;
},
{
glyphname = uni17AD;
lastChange = "2020-01-28 08:58:14 +0000";
layers = (
{
layerId = "060F58F1-3EA2-4F98-A18F-48F5C294967E";
paths = (
{
closed = 1;
nodes = (
"110 -295 LINE",
"110 -500 LINE",
"500 -500 LINE SMOOTH",
"960 -500 OFFCURVE",
"1190 -408 OFFCURVE",
"1190 -224 CURVE SMOOTH",
"1190 -108 OFFCURVE",
"1110 -50 OFFCURVE",
"950 -50 CURVE SMOOTH",
"770 -50 LINE",
"770 -224 LINE",
"822 -224 LINE",
"822 -271 OFFCURVE",
"715 -295 OFFCURVE",
"500 -295 CURVE SMOOTH"
);
},
{
closed = 1;
nodes = (
"110 298 LINE SMOOTH",
"110 99 OFFCURVE",
"230 0 OFFCURVE",
"470 0 CURVE SMOOTH",
"600 0 LINE",
"600 258 LINE",
"530 258 LINE SMOOTH",
"495 258 OFFCURVE",
"478 271 OFFCURVE",
"478 298 CURVE SMOOTH",
"478 833 LINE SMOOTH",
"478 878 OFFCURVE",
"483 900 OFFCURVE",
"494 900 CURVE SMOOTH",
"505 900 OFFCURVE",
"537 869 OFFCURVE",
"591 806 CURVE SMOOTH",
"609 785 OFFCURVE",
"629 775 OFFCURVE",
"650 775 CURVE SMOOTH",
"671 775 OFFCURVE",
"691 785 OFFCURVE",
"709 806 CURVE SMOOTH",
"764 869 OFFCURVE",
"796 900 OFFCURVE",
"807 900 CURVE SMOOTH",
"817 900 OFFCURVE",
"822 878 OFFCURVE",
"822 833 CURVE SMOOTH",
"822 0 LINE",
"1190 0 LINE",
"1190 833 LINE SMOOTH",
"1190 1051 OFFCURVE",
"1092 1160 OFFCURVE",
"897 1160 CURVE SMOOTH",
"820 1160 OFFCURVE",
"738 1119 OFFCURVE",
"650 1036 CURVE",
"563 1119 OFFCURVE",
"481 1160 OFFCURVE",
"405 1160 CURVE SMOOTH",
"208 1160 OFFCURVE",
"110 1051 OFFCURVE",
"110 833 CURVE SMOOTH"
);
}
);
userData = {
assembly = "PUSHB[ ]	/* 6 values pushed */\01218 1 7 4 1 76 \012MPPEM[ ]	/* MeasurePixelPerEm */\012PUSHB[ ]	/* 1 value pushed */\01221 \012LT[ ]	/* LessThan */\012IF[ ]	/* If */\012NPUSHB[ ]	/* 51 values pushed */\0120 8 7 10 7 8 10 128 0 2 0 1 0 2 1 103 9 1 7 7 4 97 5 1 4 4 17 77 0 10 10 6 97 11 1 6 6 19 77 12 1 0 0 3 95 0 3 3 20 3 78 \012ELSE[ ]	/* Else */\012MPPEM[ ]	/* MeasurePixelPerEm */\012PUSHB[ ]	/* 1 value pushed */\01225 \012LT[ ]	/* LessThan */\012IF[ ]	/* If */\012NPUSHB[ ]	/* 53 values pushed */\0120 8 7 10 7 8 10 128 9 1 7 7 4 97 5 1 4 4 17 77 0 10 10 6 97 11 1 6 6 19 77 0 1 1 2 95 0 2 2 18 77 12 1 0 0 3 95 0 3 3 20 3 78 \012ELSE[ ]	/* Else */\012NPUSHB[ ]	/* 50 values pushed */\0120 8 7 10 7 8 10 128 12 1 0 0 3 0 3 99 9 1 7 7 4 97 5 1 4 4 17 77 0 10 10 6 97 11 1 6 6 19 77 0 1 1 2 95 0 2 2 18 1 78 \012EIF[ ]	/* EndIf */\012EIF[ ]	/* EndIf */\012NPUSHB[ ]	/* 31 values pushed */\0122 0 44 42 41 39 36 34 32 30 28 26 24 23 21 19 17 15 11 9 7 5 4 3 0 13 2 12 13 7 22 \012CALL[ ]	/* CallFunction */";
};
width = 1300;
}
);
note = uni17AD;
unicode = 17AD;
},
{
glyphname = uni17AE;
lastChange = "2020-01-28 08:58:19 +0000";
layers = (
{
layerId = "060F58F1-3EA2-4F98-A18F-48F5C294967E";
paths = (
{
closed = 1;
nodes = (
"1225 -295 OFFCURVE",
"1207 -287 OFFCURVE",
"1185 -270 CURVE",
"1188 -255 OFFCURVE",
"1190 -240 OFFCURVE",
"1190 -224 CURVE SMOOTH",
"1190 -108 OFFCURVE",
"1110 -50 OFFCURVE",
"950 -50 CURVE SMOOTH",
"770 -50 LINE",
"770 -224 LINE",
"822 -224 LINE",
"822 -271 OFFCURVE",
"715 -295 OFFCURVE",
"500 -295 CURVE SMOOTH",
"110 -295 LINE",
"110 -500 LINE",
"500 -500 LINE SMOOTH",
"727 -500 OFFCURVE",
"898 -478 OFFCURVE",
"1013 -433 CURVE",
"1071 -478 OFFCURVE",
"1137 -500 OFFCURVE",
"1210 -500 CURVE SMOOTH",
"1290 -500 LINE",
"1290 -295 LINE",
"1240 -295 LINE SMOOTH"
);
},
{
closed = 1;
nodes = (
"110 298 LINE SMOOTH",
"110 99 OFFCURVE",
"230 0 OFFCURVE",
"470 0 CURVE SMOOTH",
"600 0 LINE",
"600 258 LINE",
"530 258 LINE SMOOTH",
"495 258 OFFCURVE",
"478 271 OFFCURVE",
"478 298 CURVE SMOOTH",
"478 833 LINE SMOOTH",
"478 878 OFFCURVE",
"483 900 OFFCURVE",
"494 900 CURVE SMOOTH",
"505 900 OFFCURVE",
"537 869 OFFCURVE",
"591 806 CURVE SMOOTH",
"609 785 OFFCURVE",
"629 775 OFFCURVE",
"650 775 CURVE SMOOTH",
"671 775 OFFCURVE",
"691 785 OFFCURVE",
"709 806 CURVE SMOOTH",
"764 869 OFFCURVE",
"796 900 OFFCURVE",
"807 900 CURVE SMOOTH",
"817 900 OFFCURVE",
"822 878 OFFCURVE",
"822 833 CURVE SMOOTH",
"822 0 LINE",
"1190 0 LINE",
"1190 833 LINE SMOOTH",
"1190 1051 OFFCURVE",
"1092 1160 OFFCURVE",
"897 1160 CURVE SMOOTH",
"820 1160 OFFCURVE",
"738 1119 OFFCURVE",
"650 1036 CURVE",
"563 1119 OFFCURVE",
"481 1160 OFFCURVE",
"405 1160 CURVE SMOOTH",
"208 1160 OFFCURVE",
"110 1051 OFFCURVE",
"110 833 CURVE SMOOTH"
);
}
);
userData = {
assembly = "NPUSHB[ ]	/* 10 values pushed */\0124 1 3 0 41 1 9 8 2 76 \012MPPEM[ ]	/* MeasurePixelPerEm */\012PUSHB[ ]	/* 1 value pushed */\01221 \012LT[ ]	/* LessThan */\012IF[ ]	/* If */\012NPUSHB[ ]	/* 52 values pushed */\0120 4 3 6 3 4 6 128 0 13 0 12 8 13 12 103 5 1 3 3 0 97 1 1 0 0 17 77 0 6 6 2 97 7 1 2 2 19 77 11 1 8 8 9 97 10 1 9 9 20 9 78 \012ELSE[ ]	/* Else */\012MPPEM[ ]	/* MeasurePixelPerEm */\012PUSHB[ ]	/* 1 value pushed */\01225 \012LT[ ]	/* LessThan */\012IF[ ]	/* If */\012NPUSHB[ ]	/* 54 values pushed */\0120 4 3 6 3 4 6 128 5 1 3 3 0 97 1 1 0 0 17 77 0 6 6 2 97 7 1 2 2 19 77 0 12 12 13 95 0 13 13 18 77 11 1 8 8 9 97 10 1 9 9 20 9 78 \012ELSE[ ]	/* Else */\012NPUSHB[ ]	/* 51 values pushed */\0120 4 3 6 3 4 6 128 11 1 8 10 1 9 8 9 101 5 1 3 3 0 97 1 1 0 0 17 77 0 6 6 2 97 7 1 2 2 19 77 0 12 12 13 95 0 13 13 18 12 78 \012EIF[ ]	/* EndIf */\012EIF[ ]	/* EndIf */\012NPUSHB[ ]	/* 22 values pushed */\01252 50 49 48 47 45 44 42 40 38 37 33 35 34 34 34 18 34 33 14 7 31 \012CALL[ ]	/* CallFunction */";
};
width = 1300;
}
);
note = uni17AE;
unicode = 17AE;
},
{
glyphname = uni17AF;
lastChange = "2020-01-28 08:59:10 +0000";
layers = (
{
layerId = "060F58F1-3EA2-4F98-A18F-48F5C294967E";
paths = (
{
closed = 1;
nodes = (
"110 613 LINE",
"110 0 LINE",
"509 0 LINE",
"651 160 LINE",
"792 0 LINE",
"1190 0 LINE",
"1190 827 LINE SMOOTH",
"1190 1049 OFFCURVE",
"1034 1160 OFFCURVE",
"721 1160 CURVE SMOOTH",
"590 1160 LINE SMOOTH",
"515 1160 OFFCURVE",
"478 1189 OFFCURVE",
"478 1246 CURVE SMOOTH",
"478 1440 LINE",
"110 1440 LINE",
"110 1246 LINE SMOOTH",
"110 1037 OFFCURVE",
"270 932 OFFCURVE",
"590 932 CURVE SMOOTH",
"721 932 LINE SMOOTH",
"788 932 OFFCURVE",
"822 897 OFFCURVE",
"822 827 CURVE SMOOTH",
"822 295 LINE",
"651 455 LINE",
"478 294 LINE",
"478 817 LINE",
"40 817 LINE",
"40 613 LINE"
);
}
);
userData = {
assembly = "NPUSHB[ ]	/* 61 values pushed */\01223 6 5 4 4 5 0 1 76 0 3 4 3 133 0 1 7 1 0 5 1 0 103 0 2 2 4 97 0 4 4 17 77 6 1 5 5 19 5 78 1 0 25 24 22 21 19 16 14 13 11 8 3 2 0 27 1 26 8 7 22 \012CALL[ ]	/* CallFunction */";
};
width = 1300;
}
);
note = uni17AF;
unicode = 17AF;
},
{
glyphname = uni17B0;
lastChange = "2020-01-28 09:01:20 +0000";
layers = (
{
layerId = "060F58F1-3EA2-4F98-A18F-48F5C294967E";
paths = (
{
closed = 1;
nodes = (
"820 1160 OFFCURVE",
"738 1119 OFFCURVE",
"650 1036 CURVE",
"563 1119 OFFCURVE",
"481 1160 OFFCURVE",
"405 1160 CURVE SMOOTH",
"208 1160 OFFCURVE",
"110 1051 OFFCURVE",
"110 833 CURVE SMOOTH",
"110 298 LINE SMOOTH",
"110 99 OFFCURVE",
"230 0 OFFCURVE",
"470 0 CURVE SMOOTH",
"600 0 LINE",
"600 258 LINE",
"530 258 LINE SMOOTH",
"495 258 OFFCURVE",
"478 271 OFFCURVE",
"478 298 CURVE SMOOTH",
"478 833 LINE SMOOTH",
"478 878 OFFCURVE",
"483 900 OFFCURVE",
"494 900 CURVE SMOOTH",
"505 900 OFFCURVE",
"537 869 OFFCURVE",
"591 806 CURVE SMOOTH",
"609 785 OFFCURVE",
"629 775 OFFCURVE",
"650 775 CURVE SMOOTH",
"671 775 OFFCURVE",
"691 785 OFFCURVE",
"709 806 CURVE SMOOTH",
"764 869 OFFCURVE",
"796 900 OFFCURVE",
"807 900 CURVE SMOOTH",
"817 900 OFFCURVE",
"822 878 OFFCURVE",
"822 833 CURVE SMOOTH",
"822 -12 LINE",
"110 -231 LINE",
"110 -346 LINE SMOOTH",
"110 -449 OFFCURVE",
"239 -501 OFFCURVE",
"496 -500 CURVE SMOOTH",
"619 -500 OFFCURVE",
"689 -456 OFFCURVE",
"706 -369 CURVE",
"777 -390 OFFCURVE",
"830 -400 OFFCURVE",
"866 -400 CURVE SMOOTH",
"1082 -400 OFFCURVE",
"1190 -349 OFFCURVE",
"1190 -247 CURVE SMOOTH",
"1190 833 LINE SMOOTH",
"1190 1051 OFFCURVE",
"1092 1160 OFFCURVE",
"897 1160 CURVE SMOOTH"
);
},
{
closed = 1;
nodes = (
"822 -242 OFFCURVE",
"812 -255 OFFCURVE",
"791 -255 CURVE SMOOTH",
"770 -255 OFFCURVE",
"730 -239 OFFCURVE",
"670 -207 CURVE",
"822 -159 LINE",
"822 -217 LINE SMOOTH"
);
},
{
closed = 1;
nodes = (
"596 -348 OFFCURVE",
"564 -372 OFFCURVE",
"499 -370 CURVE SMOOTH",
"465 -369 OFFCURVE",
"438 -349 OFFCURVE",
"418 -312 CURVE",
"418 -294 LINE",
"596 -235 LINE",
"596 -299 LINE SMOOTH"
);
}
);
userData = {
assembly = "NPUSHB[ ]	/* 19 values pushed */\01253 1 4 9 27 26 13 2 1 5 0 8 21 14 2 1 0 3 76 \012MPPEM[ ]	/* MeasurePixelPerEm */\012PUSHB[ ]	/* 1 value pushed */\01225 \012LT[ ]	/* LessThan */\012IF[ ]	/* If */\012NPUSHB[ ]	/* 49 values pushed */\0120 5 4 7 4 5 7 128 0 0 0 2 3 0 2 105 6 1 4 4 9 97 10 1 9 9 17 77 0 7 7 8 97 0 8 8 19 77 0 1 1 3 97 0 3 3 20 3 78 \012ELSE[ ]	/* Else */\012NPUSHB[ ]	/* 46 values pushed */\0120 5 4 7 4 5 7 128 0 0 0 2 3 0 2 105 0 1 0 3 1 3 101 6 1 4 4 9 97 10 1 9 9 17 77 0 7 7 8 97 0 8 8 19 8 78 \012EIF[ ]	/* EndIf */\012NPUSHB[ ]	/* 16 values pushed */\01256 54 52 50 33 35 34 34 37 34 39 36 35 11 7 31 \012CALL[ ]	/* CallFunction */";
};
width = 1300;
}
);
note = uni17B0;
unicode = 17B0;
},
{
glyphname = uni17B1;
lastChange = "2020-01-28 09:02:35 +0000";
layers = (
{
layerId = "060F58F1-3EA2-4F98-A18F-48F5C294967E";
paths = (
{
closed = 1;
nodes = (
"790 1312 LINE SMOOTH",
"885 1312 OFFCURVE",
"945 1255 OFFCURVE",
"972 1142 CURVE",
"1260 1142 LINE",
"1260 1407 OFFCURVE",
"1123 1540 OFFCURVE",
"850 1540 CURVE SMOOTH",
"380 1540 LINE SMOOTH",
"160 1540 OFFCURVE",
"50 1447 OFFCURVE",
"50 1260 CURVE SMOOTH",
"50 1217 LINE",
"150 1094 LINE",
"154 1094 LINE",
"452 1206 LINE",
"437 1223 OFFCURVE",
"419 1241 OFFCURVE",
"398 1260 CURVE",
"398 1295 OFFCURVE",
"419 1312 OFFCURVE",
"460 1312 CURVE SMOOTH"
);
},
{
closed = 1;
nodes = (
"1190 1044 OFFCURVE",
"1010 1160 OFFCURVE",
"650 1160 CURVE SMOOTH",
"290 1160 OFFCURVE",
"110 1044 OFFCURVE",
"110 813 CURVE SMOOTH",
"110 721 OFFCURVE",
"203 675 OFFCURVE",
"388 675 CURVE SMOOTH",
"530 675 LINE",
"530 813 LINE",
"478 813 LINE",
"478 892 OFFCURVE",
"535 932 OFFCURVE",
"650 932 CURVE SMOOTH",
"765 932 OFFCURVE",
"822 892 OFFCURVE",
"822 813 CURVE SMOOTH",
"822 680 OFFCURVE",
"718 614 OFFCURVE",
"510 614 CURVE SMOOTH",
"243 614 OFFCURVE",
"110 505 OFFCURVE",
"110 287 CURVE SMOOTH",
"110 96 OFFCURVE",
"250 0 OFFCURVE",
"530 0 CURVE SMOOTH",
"629 0 OFFCURVE",
"726 28 OFFCURVE",
"822 85 CURVE",
"822 -50 LINE",
"1190 -50 LINE",
"1190 400 LINE",
"822 400 LINE",
"822 317 LINE",
"749 251 OFFCURVE",
"651 218 OFFCURVE",
"530 218 CURVE SMOOTH",
"495 218 OFFCURVE",
"478 241 OFFCURVE",
"478 287 CURVE SMOOTH",
"478 360 OFFCURVE",
"489 396 OFFCURVE",
"510 396 CURVE SMOOTH",
"963 396 OFFCURVE",
"1190 535 OFFCURVE",
"1190 813 CURVE SMOOTH"
);
}
);
userData = {
assembly = "NPUSHB[ ]	/* 20 values pushed */\0127 4 2 3 12 0 5 1 9 2 27 1 4 3 32 1 7 4 4 76 \012MPPEM[ ]	/* MeasurePixelPerEm */\012PUSHB[ ]	/* 1 value pushed */\01214 \012LT[ ]	/* LessThan */\012IF[ ]	/* If */\012NPUSHB[ ]	/* 65 values pushed */\0120 2 12 9 9 2 114 0 5 8 3 8 5 114 0 6 7 6 134 0 1 13 1 0 12 1 0 103 0 10 0 11 8 10 11 105 0 8 0 3 4 8 3 105 0 9 9 12 98 0 12 12 17 77 0 4 4 7 97 0 7 7 19 7 78 \012ELSE[ ]	/* Else */\012MPPEM[ ]	/* MeasurePixelPerEm */\012PUSHB[ ]	/* 1 value pushed */\01216 \012LT[ ]	/* LessThan */\012IF[ ]	/* If */\012NPUSHB[ ]	/* 67 values pushed */\0120 2 12 9 12 2 9 128 0 5 8 3 8 5 3 128 0 6 7 6 134 0 1 13 1 0 12 1 0 103 0 10 0 11 8 10 11 105 0 8 0 3 4 8 3 105 0 9 9 12 98 0 12 12 17 77 0 4 4 7 97 0 7 7 19 7 78 \012ELSE[ ]	/* Else */\012MPPEM[ ]	/* MeasurePixelPerEm */\012PUSHB[ ]	/* 1 value pushed */\01221 \012LT[ ]	/* LessThan */\012IF[ ]	/* If */\012NPUSHB[ ]	/* 67 values pushed */\0120 2 12 9 12 2 9 128 0 5 8 3 8 5 3 128 0 1 13 1 0 12 1 0 103 0 10 0 11 8 10 11 105 0 8 0 3 4 8 3 105 0 9 9 12 98 0 12 12 17 77 0 4 4 7 97 0 7 7 19 77 0 6 6 19 6 78 \012ELSE[ ]	/* Else */\012NPUSHB[ ]	/* 67 values pushed */\0120 2 12 9 12 2 9 128 0 5 8 3 8 5 3 128 0 6 7 6 134 0 1 13 1 0 12 1 0 103 0 10 0 11 8 10 11 105 0 8 0 3 4 8 3 105 0 9 9 12 98 0 12 12 17 77 0 4 4 7 97 0 7 7 19 7 78 \012EIF[ ]	/* EndIf */\012EIF[ ]	/* EndIf */\012EIF[ ]	/* EndIf */\012NPUSHB[ ]	/* 33 values pushed */\0121 0 52 50 48 46 45 44 43 41 39 37 35 33 31 30 29 28 26 24 22 20 14 13 12 9 0 18 1 15 14 7 22 \012CALL[ ]	/* CallFunction */";
};
width = 1300;
}
);
note = uni17B1;
unicode = 17B1;
},
{
glyphname = uni17B2;
lastChange = "2020-01-28 09:04:48 +0000";
layers = (
{
layerId = "060F58F1-3EA2-4F98-A18F-48F5C294967E";
paths = (
{
closed = 1;
nodes = (
"668 285 LINE",
"787 382 LINE",
"810 362 OFFCURVE",
"822 342 OFFCURVE",
"822 323 CURVE SMOOTH",
"822 260 OFFCURVE",
"765 228 OFFCURVE",
"650 228 CURVE SMOOTH",
"535 228 OFFCURVE",
"478 260 OFFCURVE",
"478 323 CURVE SMOOTH",
"478 807 LINE SMOOTH",
"478 890 OFFCURVE",
"535 932 OFFCURVE",
"650 932 CURVE SMOOTH",
"793 932 OFFCURVE",
"931 911 OFFCURVE",
"1024 868 CURVE",
"1140 1033 LINE",
"1047 1118 OFFCURVE",
"870 1160 OFFCURVE",
"650 1160 CURVE SMOOTH",
"290 1160 OFFCURVE",
"110 1042 OFFCURVE",
"110 807 CURVE SMOOTH",
"110 323 LINE SMOOTH",
"110 108 OFFCURVE",
"290 0 OFFCURVE",
"650 0 CURVE SMOOTH",
"1010 0 OFFCURVE",
"1190 108 OFFCURVE",
"1190 323 CURVE SMOOTH",
"1190 384 OFFCURVE",
"1160 446 OFFCURVE",
"1100 508 CURVE",
"1190 567 LINE",
"1190 820 LINE",
"680 820 LINE",
"680 612 LINE",
"822 612 LINE",
"822 590 LINE",
"558 486 LINE"
);
}
);
userData = {
assembly = "NPUSHB[ ]	/* 56 values pushed */\01218 1 4 3 19 1 1 4 31 30 7 6 1 5 5 0 3 76 0 1 0 0 5 1 0 103 0 4 4 3 97 0 3 3 17 77 0 5 5 2 97 0 2 2 19 2 78 35 35 35 37 17 18 6 7 28 \012CALL[ ]	/* CallFunction */";
};
width = 1300;
}
);
note = uni17B2;
unicode = 17B2;
},
{
glyphname = uni17B3;
lastChange = "2020-01-28 09:06:07 +0000";
layers = (
{
layerId = "060F58F1-3EA2-4F98-A18F-48F5C294967E";
paths = (
{
closed = 1;
nodes = (
"260 1540 LINE SMOOTH",
"113 1540 OFFCURVE",
"40 1466 OFFCURVE",
"40 1317 CURVE SMOOTH",
"40 1217 LINE",
"140 1094 LINE",
"144 1094 LINE",
"422 1206 LINE",
"407 1223 OFFCURVE",
"389 1241 OFFCURVE",
"368 1260 CURVE",
"368 1295 OFFCURVE",
"379 1312 OFFCURVE",
"400 1312 CURVE SMOOTH",
"815 1312 LINE",
"994 1137 LINE",
"1260 1212 LINE",
"1231 1406 OFFCURVE",
"1146 1514 OFFCURVE",
"1004 1535 CURVE",
"941 1610 LINE SMOOTH",
"923 1631 OFFCURVE",
"914 1656 OFFCURVE",
"914 1685 CURVE SMOOTH",
"914 1714 OFFCURVE",
"939 1746 OFFCURVE",
"990 1783 CURVE",
"736 1850 LINE",
"672 1807 OFFCURVE",
"640 1758 OFFCURVE",
"640 1704 CURVE SMOOTH",
"640 1649 OFFCURVE",
"660 1595 OFFCURVE",
"701 1540 CURVE"
);
},
{
closed = 1;
nodes = (
"1190 1044 OFFCURVE",
"1010 1160 OFFCURVE",
"650 1160 CURVE SMOOTH",
"290 1160 OFFCURVE",
"110 1044 OFFCURVE",
"110 813 CURVE SMOOTH",
"110 721 OFFCURVE",
"203 675 OFFCURVE",
"388 675 CURVE SMOOTH",
"530 675 LINE",
"530 813 LINE",
"478 813 LINE",
"478 892 OFFCURVE",
"535 932 OFFCURVE",
"650 932 CURVE SMOOTH",
"765 932 OFFCURVE",
"822 892 OFFCURVE",
"822 813 CURVE SMOOTH",
"822 680 OFFCURVE",
"718 614 OFFCURVE",
"510 614 CURVE SMOOTH",
"243 614 OFFCURVE",
"110 505 OFFCURVE",
"110 287 CURVE SMOOTH",
"110 96 OFFCURVE",
"250 0 OFFCURVE",
"530 0 CURVE SMOOTH",
"629 0 OFFCURVE",
"726 28 OFFCURVE",
"822 85 CURVE",
"822 -50 LINE",
"1190 -50 LINE",
"1190 400 LINE",
"822 400 LINE",
"822 317 LINE",
"749 251 OFFCURVE",
"651 218 OFFCURVE",
"530 218 CURVE SMOOTH",
"495 218 OFFCURVE",
"478 241 OFFCURVE",
"478 287 CURVE SMOOTH",
"478 360 OFFCURVE",
"489 396 OFFCURVE",
"510 396 CURVE SMOOTH",
"963 396 OFFCURVE",
"1190 535 OFFCURVE",
"1190 813 CURVE SMOOTH"
);
}
);
userData = {
assembly = "NPUSHB[ ]	/* 27 values pushed */\01222 19 17 12 4 11 0 20 13 2 8 11 36 1 3 2 41 1 6 3 4 76 5 4 2 1 74 \012MPPEM[ ]	/* MeasurePixelPerEm */\012PUSHB[ ]	/* 1 value pushed */\01214 \012LT[ ]	/* LessThan */\012IF[ ]	/* If */\012NPUSHB[ ]	/* 57 values pushed */\0120 4 7 2 7 4 114 0 5 6 5 134 0 1 0 0 11 1 0 103 0 9 0 10 7 9 10 105 0 7 0 2 3 7 2 105 0 8 8 11 97 0 11 11 17 77 0 3 3 6 97 0 6 6 19 6 78 \012ELSE[ ]	/* Else */\012MPPEM[ ]	/* MeasurePixelPerEm */\012PUSHB[ ]	/* 1 value pushed */\01216 \012LT[ ]	/* LessThan */\012IF[ ]	/* If */\012NPUSHB[ ]	/* 58 values pushed */\0120 4 7 2 7 4 2 128 0 5 6 5 134 0 1 0 0 11 1 0 103 0 9 0 10 7 9 10 105 0 7 0 2 3 7 2 105 0 8 8 11 97 0 11 11 17 77 0 3 3 6 97 0 6 6 19 6 78 \012ELSE[ ]	/* Else */\012MPPEM[ ]	/* MeasurePixelPerEm */\012PUSHB[ ]	/* 1 value pushed */\01221 \012LT[ ]	/* LessThan */\012IF[ ]	/* If */\012NPUSHB[ ]	/* 58 values pushed */\0120 4 7 2 7 4 2 128 0 1 0 0 11 1 0 103 0 9 0 10 7 9 10 105 0 7 0 2 3 7 2 105 0 8 8 11 97 0 11 11 17 77 0 3 3 6 97 0 6 6 19 77 0 5 5 19 5 78 \012ELSE[ ]	/* Else */\012NPUSHB[ ]	/* 58 values pushed */\0120 4 7 2 7 4 2 128 0 5 6 5 134 0 1 0 0 11 1 0 103 0 9 0 10 7 9 10 105 0 7 0 2 3 7 2 105 0 8 8 11 97 0 11 11 17 77 0 3 3 6 97 0 6 6 19 6 78 \012EIF[ ]	/* EndIf */\012EIF[ ]	/* EndIf */\012EIF[ ]	/* EndIf */\012NPUSHB[ ]	/* 18 values pushed */\01261 59 57 55 54 53 34 34 34 17 18 34 35 40 46 12 7 31 \012CALL[ ]	/* CallFunction */";
};
width = 1300;
}
);
note = uni17B3;
unicode = 17B3;
},
{
glyphname = uni17B6;
lastChange = "2020-01-28 09:06:39 +0000";
layers = (
{
layerId = "060F58F1-3EA2-4F98-A18F-48F5C294967E";
paths = (
{
closed = 1;
nodes = (
"-210 1160 LINE",
"-210 932 LINE",
"8 932 LINE SMOOTH",
"76 932 OFFCURVE",
"110 890 OFFCURVE",
"110 807 CURVE SMOOTH",
"110 0 LINE",
"478 0 LINE",
"478 807 LINE SMOOTH",
"478 1042 OFFCURVE",
"351 1160 OFFCURVE",
"98 1160 CURVE SMOOTH"
);
}
);
userData = {
assembly = "NPUSHB[ ]	/* 30 values pushed */\0120 2 2 0 95 3 1 0 0 17 77 0 1 1 19 1 78 1 0 8 6 4 3 0 11 1 9 4 7 22 \012CALL[ ]	/* CallFunction */";
};
width = 588;
}
);
note = uni17B6;
unicode = 17B6;
},
{
glyphname = uni17B7;
lastChange = "2020-01-28 14:45:25 +0000";
layers = (
{
layerId = "060F58F1-3EA2-4F98-A18F-48F5C294967E";
paths = (
{
closed = 1;
nodes = (
"-1140 1377 OFFCURVE",
"-1107 1310 OFFCURVE",
"-1040 1290 CURVE",
"-170 1290 LINE",
"-170 1520 LINE",
"-317 1640 OFFCURVE",
"-549 1747 OFFCURVE",
"-740 1760 CURVE SMOOTH",
"-1059 1783 OFFCURVE",
"-1140 1623 OFFCURVE",
"-1140 1490 CURVE SMOOTH"
);
},
{
closed = 1;
nodes = (
"-660 1580 OFFCURVE",
"-521 1567 OFFCURVE",
"-452 1500 CURVE",
"-860 1500 LINE",
"-860 1540 OFFCURVE",
"-807 1580 OFFCURVE",
"-740 1580 CURVE SMOOTH"
);
}
);
userData = {
assembly = "PUSHB[ ]	/* 2 values pushed */\0126 100 \012WCVTP[ ]	/* WriteCVTInPixels */\012NPUSHB[ ]	/* 44 values pushed */\0127 1 3 2 1 76 0 0 4 1 2 3 0 2 105 0 3 1 1 3 87 0 3 3 1 95 0 1 3 1 79 14 13 17 16 13 21 14 19 36 34 5 7 24 \012CALL[ ]	/* CallFunction */\012PUSHB[ ]	/* 2 values pushed */\0126 0 \012WCVTP[ ]	/* WriteCVTInPixels */";
};
width = 0;
}
);
note = uni17B7;
unicode = 17B7;
},
{
glyphname = uni17B8;
lastChange = "2020-01-28 14:47:08 +0000";
layers = (
{
layerId = "060F58F1-3EA2-4F98-A18F-48F5C294967E";
paths = (
{
closed = 1;
nodes = (
"-428 1673 LINE",
"-544 1731 OFFCURVE",
"-648 1760 OFFCURVE",
"-740 1760 CURVE SMOOTH",
"-1060 1760 OFFCURVE",
"-1140 1623 OFFCURVE",
"-1140 1490 CURVE SMOOTH",
"-1140 1357 OFFCURVE",
"-1107 1290 OFFCURVE",
"-1040 1290 CURVE SMOOTH",
"-170 1290 LINE",
"-170 1830 LINE",
"-428 1830 LINE"
);
},
{
closed = 1;
nodes = (
"-860 1540 OFFCURVE",
"-807 1580 OFFCURVE",
"-740 1580 CURVE SMOOTH",
"-660 1580 OFFCURVE",
"-521 1567 OFFCURVE",
"-452 1500 CURVE",
"-860 1500 LINE"
);
}
);
userData = {
assembly = "PUSHB[ ]	/* 2 values pushed */\0126 100 \012WCVTP[ ]	/* WriteCVTInPixels */\012NPUSHB[ ]	/* 53 values pushed */\01222 1 0 4 1 76 0 2 4 2 133 0 4 5 1 0 1 4 0 105 0 1 3 3 1 87 0 1 1 3 96 0 3 1 3 80 1 0 19 17 14 12 11 10 4 3 0 8 1 6 6 7 22 \012CALL[ ]	/* CallFunction */\012PUSHB[ ]	/* 2 values pushed */\0126 0 \012WCVTP[ ]	/* WriteCVTInPixels */";
};
width = 0;
}
);
note = uni17B8;
unicode = 17B8;
},
{
glyphname = uni17B9;
lastChange = "2020-01-28 14:47:39 +0000";
layers = (
{
layerId = "060F58F1-3EA2-4F98-A18F-48F5C294967E";
paths = (
{
closed = 1;
nodes = (
"-196 1561 LINE SMOOTH",
"-178 1592 OFFCURVE",
"-169 1632 OFFCURVE",
"-170 1680 CURVE SMOOTH",
"-172 1813 OFFCURVE",
"-249 1880 OFFCURVE",
"-402 1880 CURVE SMOOTH",
"-470 1880 OFFCURVE",
"-539 1850 OFFCURVE",
"-575 1794 CURVE SMOOTH",
"-605 1744 LINE",
"-650 1755 OFFCURVE",
"-695 1760 OFFCURVE",
"-740 1760 CURVE SMOOTH",
"-1060 1760 OFFCURVE",
"-1140 1623 OFFCURVE",
"-1140 1490 CURVE SMOOTH",
"-1140 1357 OFFCURVE",
"-1107 1290 OFFCURVE",
"-1040 1290 CURVE SMOOTH",
"-170 1290 LINE",
"-170 1520 LINE",
"-181 1529 OFFCURVE",
"-193 1538 OFFCURVE",
"-205 1547 CURVE"
);
},
{
closed = 1;
nodes = (
"-382 1648 OFFCURVE",
"-415 1668 OFFCURVE",
"-450 1685 CURVE SMOOTH",
"-453 1686 OFFCURVE",
"-455 1688 OFFCURVE",
"-458 1689 CURVE",
"-455 1700 OFFCURVE",
"-449 1709 OFFCURVE",
"-440 1716 CURVE SMOOTH",
"-430 1724 OFFCURVE",
"-417 1728 OFFCURVE",
"-402 1727 CURVE SMOOTH",
"-363 1725 OFFCURVE",
"-344 1709 OFFCURVE",
"-344 1680 CURVE SMOOTH",
"-344 1658 OFFCURVE",
"-346 1640 OFFCURVE",
"-351 1627 CURVE"
);
},
{
closed = 1;
nodes = (
"-660 1580 OFFCURVE",
"-521 1567 OFFCURVE",
"-452 1500 CURVE",
"-860 1500 LINE",
"-860 1540 OFFCURVE",
"-807 1580 OFFCURVE",
"-740 1580 CURVE SMOOTH"
);
}
);
userData = {
assembly = "PUSHB[ ]	/* 2 values pushed */\0126 100 \012WCVTP[ ]	/* WriteCVTInPixels */\012NPUSHB[ ]	/* 67 values pushed */\01220 1 5 3 40 1 0 5 30 11 2 1 0 3 76 0 4 0 5 0 4 5 105 0 3 6 1 0 1 3 0 105 0 1 2 2 1 87 0 1 1 2 95 0 2 1 2 79 1 0 37 35 25 23 19 17 14 12 4 3 0 8 1 6 7 7 22 \012CALL[ ]	/* CallFunction */\012PUSHB[ ]	/* 2 values pushed */\0126 0 \012WCVTP[ ]	/* WriteCVTInPixels */";
};
width = 0;
}
);
note = uni17B9;
unicode = 17B9;
},
{
glyphname = uni17BA;
lastChange = "2020-01-28 14:48:20 +0000";
layers = (
{
layerId = "060F58F1-3EA2-4F98-A18F-48F5C294967E";
paths = (
{
closed = 1;
nodes = (
"-470 1890 LINE",
"-668 1890 LINE",
"-668 1756 LINE",
"-692 1759 OFFCURVE",
"-716 1760 OFFCURVE",
"-740 1760 CURVE SMOOTH",
"-1060 1760 OFFCURVE",
"-1140 1623 OFFCURVE",
"-1140 1490 CURVE SMOOTH",
"-1140 1377 OFFCURVE",
"-1107 1310 OFFCURVE",
"-1040 1290 CURVE",
"-170 1290 LINE",
"-170 1830 LINE",
"-398 1830 LINE",
"-398 1656 LINE",
"-415 1666 OFFCURVE",
"-432 1676 OFFCURVE",
"-450 1685 CURVE SMOOTH",
"-457 1688 OFFCURVE",
"-463 1692 OFFCURVE",
"-470 1695 CURVE"
);
},
{
closed = 1;
nodes = (
"-860 1500 LINE",
"-860 1540 OFFCURVE",
"-807 1580 OFFCURVE",
"-740 1580 CURVE SMOOTH",
"-660 1580 OFFCURVE",
"-521 1567 OFFCURVE",
"-452 1500 CURVE"
);
}
);
userData = {
assembly = "PUSHB[ ]	/* 2 values pushed */\0126 100 \012WCVTP[ ]	/* WriteCVTInPixels */\012NPUSHB[ ]	/* 63 values pushed */\01227 24 13 3 1 4 1 76 0 5 2 5 133 0 2 4 2 133 0 4 0 1 0 4 1 105 6 1 0 3 3 0 87 6 1 0 0 3 96 0 3 0 3 80 1 0 26 25 23 21 18 16 15 14 5 3 0 8 1 7 7 7 22 \012CALL[ ]	/* CallFunction */\012PUSHB[ ]	/* 2 values pushed */\0126 0 \012WCVTP[ ]	/* WriteCVTInPixels */";
};
width = 0;
}
);
note = uni17BA;
unicode = 17BA;
},
{
glyphname = uni17BB;
lastChange = "2020-01-28 14:48:42 +0000";
layers = (
{
layerId = "060F58F1-3EA2-4F98-A18F-48F5C294967E";
paths = (
{
closed = 1;
nodes = (
"-553 -70 LINE",
"-553 -230 LINE",
"-478 -230 LINE",
"-478 -500 LINE",
"-110 -500 LINE",
"-110 -70 LINE"
);
}
);
userData = {
assembly = "PUSHB[ ]	/* 2 values pushed */\0126 100 \012WCVTP[ ]	/* WriteCVTInPixels */\012MPPEM[ ]	/* MeasurePixelPerEm */\012PUSHB[ ]	/* 1 value pushed */\01210 \012LT[ ]	/* LessThan */\012IF[ ]	/* If */\012NPUSHB[ ]	/* 24 values pushed */\0120 0 1 1 0 113 3 1 2 1 1 2 87 3 1 2 2 1 95 0 1 2 1 79 \012ELSE[ ]	/* Else */\012NPUSHB[ ]	/* 23 values pushed */\0120 0 1 0 134 3 1 2 1 1 2 87 3 1 2 2 1 95 0 1 2 1 79 \012EIF[ ]	/* EndIf */\012NPUSHB[ ]	/* 11 values pushed */\0120 0 0 5 0 5 17 17 4 7 24 \012CALL[ ]	/* CallFunction */\012PUSHB[ ]	/* 2 values pushed */\0126 0 \012WCVTP[ ]	/* WriteCVTInPixels */";
};
width = 0;
}
);
note = uni17BB;
unicode = 17BB;
},
{
glyphname = uni17BC;
lastChange = "2020-01-28 14:49:22 +0000";
layers = (
{
layerId = "060F58F1-3EA2-4F98-A18F-48F5C294967E";
paths = (
{
closed = 1;
nodes = (
"-910 -70 LINE",
"-910 -290 LINE SMOOTH",
"-910 -430 OFFCURVE",
"-777 -500 OFFCURVE",
"-510 -500 CURVE SMOOTH",
"-243 -501 OFFCURVE",
"-110 -431 OFFCURVE",
"-110 -290 CURVE SMOOTH",
"-110 -70 LINE",
"-438 -70 LINE",
"-438 -290 LINE SMOOTH",
"-438 -323 OFFCURVE",
"-462 -340 OFFCURVE",
"-510 -340 CURVE SMOOTH",
"-558 -340 OFFCURVE",
"-582 -323 OFFCURVE",
"-582 -290 CURVE SMOOTH",
"-582 -70 LINE"
);
}
);
userData = {
assembly = "PUSHB[ ]	/* 2 values pushed */\0126 100 \012WCVTP[ ]	/* WriteCVTInPixels */\012MPPEM[ ]	/* MeasurePixelPerEm */\012PUSHB[ ]	/* 1 value pushed */\01210 \012LT[ ]	/* LessThan */\012IF[ ]	/* If */\012NPUSHB[ ]	/* 24 values pushed */\0122 4 2 0 1 1 0 112 0 1 3 3 1 89 0 1 1 3 98 0 3 1 3 82 \012ELSE[ ]	/* Else */\012NPUSHB[ ]	/* 23 values pushed */\0122 4 2 0 1 0 133 0 1 3 3 1 89 0 1 1 3 98 0 3 1 3 82 \012EIF[ ]	/* EndIf */\012NPUSHB[ ]	/* 15 values pushed */\0121 0 12 10 8 7 5 3 0 15 1 14 5 7 22 \012CALL[ ]	/* CallFunction */\012PUSHB[ ]	/* 2 values pushed */\0126 0 \012WCVTP[ ]	/* WriteCVTInPixels */";
};
width = 0;
}
);
note = uni17BC;
unicode = 17BC;
},
{
glyphname = uni17BD;
lastChange = "2020-01-28 14:49:54 +0000";
layers = (
{
layerId = "060F58F1-3EA2-4F98-A18F-48F5C294967E";
paths = (
{
closed = 1;
nodes = (
"-960 -500 LINE",
"-610 -500 LINE",
"-535 -400 LINE",
"-460 -500 LINE",
"-110 -500 LINE",
"-110 -70 LINE",
"-438 -70 LINE",
"-438 -300 LINE",
"-535 -200 LINE",
"-632 -300 LINE",
"-632 -70 LINE",
"-960 -70 LINE"
);
}
);
userData = {
assembly = "PUSHB[ ]	/* 2 values pushed */\0126 100 \012WCVTP[ ]	/* WriteCVTInPixels */\012NPUSHB[ ]	/* 35 values pushed */\0129 4 3 2 4 2 0 1 76 1 1 0 2 2 0 87 1 1 0 0 2 95 3 1 2 0 2 79 18 17 20 16 4 7 26 \012CALL[ ]	/* CallFunction */\012PUSHB[ ]	/* 2 values pushed */\0126 0 \012WCVTP[ ]	/* WriteCVTInPixels */";
};
width = 0;
}
);
note = uni17BD;
unicode = 17BD;
},
{
glyphname = uni17BE;
lastChange = "2020-01-28 14:50:46 +0000";
layers = (
{
layerId = "060F58F1-3EA2-4F98-A18F-48F5C294967E";
paths = (
{
closed = 1;
nodes = (
"-428 1673 LINE",
"-544 1731 OFFCURVE",
"-648 1760 OFFCURVE",
"-740 1760 CURVE SMOOTH",
"-1060 1760 OFFCURVE",
"-1140 1623 OFFCURVE",
"-1140 1490 CURVE SMOOTH",
"-1140 1357 OFFCURVE",
"-1107 1290 OFFCURVE",
"-1040 1290 CURVE SMOOTH",
"-170 1290 LINE",
"-170 1830 LINE",
"-428 1830 LINE"
);
},
{
closed = 1;
nodes = (
"-860 1540 OFFCURVE",
"-807 1580 OFFCURVE",
"-740 1580 CURVE SMOOTH",
"-660 1580 OFFCURVE",
"-521 1567 OFFCURVE",
"-452 1500 CURVE",
"-860 1500 LINE"
);
}
);
userData = {
assembly = "NPUSHB[ ]	/* 53 values pushed */\01222 1 0 4 1 76 0 2 4 2 133 0 4 5 1 0 1 4 0 105 0 1 3 3 1 87 0 1 1 3 96 0 3 1 3 80 1 0 19 17 14 12 11 10 4 3 0 8 1 6 6 7 22 \012CALL[ ]	/* CallFunction */";
};
width = 0;
}
);
note = uni17BE;
unicode = 17BE;
},
{
glyphname = uni17BF;
lastChange = "2020-01-28 14:51:56 +0000";
layers = (
{
layerId = "060F58F1-3EA2-4F98-A18F-48F5C294967E";
paths = (
{
closed = 1;
nodes = (
"330 1830 LINE",
"102 1830 LINE",
"102 1656 LINE",
"85 1666 OFFCURVE",
"68 1676 OFFCURVE",
"50 1685 CURVE SMOOTH",
"43 1688 OFFCURVE",
"37 1692 OFFCURVE",
"30 1695 CURVE",
"30 1890 LINE",
"-168 1890 LINE",
"-168 1756 LINE",
"-192 1759 OFFCURVE",
"-216 1760 OFFCURVE",
"-240 1760 CURVE SMOOTH",
"-507 1760 OFFCURVE",
"-580 1623 OFFCURVE",
"-580 1490 CURVE SMOOTH",
"-580 1357 OFFCURVE",
"-547 1290 OFFCURVE",
"-480 1290 CURVE SMOOTH",
"57 1290 LINE",
"92 1267 OFFCURVE",
"110 1207 OFFCURVE",
"110 1110 CURVE SMOOTH",
"110 -260 LINE SMOOTH",
"110 -300 OFFCURVE",
"73 -320 OFFCURVE",
"0 -320 CURVE SMOOTH",
"-73 -320 OFFCURVE",
"-110 -300 OFFCURVE",
"-110 -260 CURVE SMOOTH",
"-110 -200 LINE",
"-60 -200 LINE",
"-60 -50 LINE",
"-478 -50 LINE",
"-478 -260 LINE SMOOTH",
"-478 -420 OFFCURVE",
"-319 -500 OFFCURVE",
"0 -500 CURVE SMOOTH",
"319 -500 OFFCURVE",
"478 -420 OFFCURVE",
"478 -260 CURVE SMOOTH",
"478 1110 LINE SMOOTH",
"478 1225 OFFCURVE",
"429 1308 OFFCURVE",
"330 1361 CURVE"
);
},
{
closed = 1;
nodes = (
"-300 1500 LINE",
"-300 1540 OFFCURVE",
"-280 1580 OFFCURVE",
"-240 1580 CURVE SMOOTH",
"-160 1580 OFFCURVE",
"-21 1567 OFFCURVE",
"48 1500 CURVE"
);
}
);
userData = {
assembly = "NPUSHB[ ]	/* 12 values pushed */\01243 39 36 3 1 7 46 1 6 0 2 76 \012MPPEM[ ]	/* MeasurePixelPerEm */\012PUSHB[ ]	/* 1 value pushed */\01221 \012LT[ ]	/* LessThan */\012IF[ ]	/* If */\012NPUSHB[ ]	/* 46 values pushed */\0120 8 9 8 133 0 9 7 9 133 0 7 0 1 0 7 1 105 10 1 0 0 6 3 0 6 104 0 3 0 4 5 3 4 103 0 5 5 2 97 0 2 2 20 2 78 \012ELSE[ ]	/* Else */\012MPPEM[ ]	/* MeasurePixelPerEm */\012PUSHB[ ]	/* 1 value pushed */\01225 \012LT[ ]	/* LessThan */\012IF[ ]	/* If */\012NPUSHB[ ]	/* 48 values pushed */\0120 8 9 8 133 0 9 7 9 133 0 7 0 1 0 7 1 105 10 1 0 0 6 3 0 6 104 0 4 4 3 95 0 3 3 18 77 0 5 5 2 97 0 2 2 20 2 78 \012ELSE[ ]	/* Else */\012NPUSHB[ ]	/* 45 values pushed */\0120 8 9 8 133 0 9 7 9 133 0 7 0 1 0 7 1 105 10 1 0 0 6 3 0 6 104 0 5 0 2 5 2 101 0 4 4 3 95 0 3 3 18 4 78 \012EIF[ ]	/* EndIf */\012EIF[ ]	/* EndIf */\012NPUSHB[ ]	/* 27 values pushed */\0121 0 45 44 38 37 35 33 30 28 24 22 20 19 18 17 15 13 5 3 0 8 1 7 11 7 22 \012CALL[ ]	/* CallFunction */";
};
width = 588;
}
);
note = uni17BF;
unicode = 17BF;
},
{
glyphname = uni17C0;
lastChange = "2020-01-28 14:52:41 +0000";
layers = (
{
layerId = "060F58F1-3EA2-4F98-A18F-48F5C294967E";
paths = (
{
closed = 1;
nodes = (
"-478 1800 LINE",
"-478 1300 LINE",
"-170 1300 LINE",
"-130 1333 OFFCURVE",
"-67 1350 OFFCURVE",
"20 1350 CURVE SMOOTH",
"80 1350 OFFCURVE",
"110 1283 OFFCURVE",
"110 1150 CURVE SMOOTH",
"110 -260 LINE SMOOTH",
"110 -300 OFFCURVE",
"73 -320 OFFCURVE",
"0 -320 CURVE SMOOTH",
"-73 -320 OFFCURVE",
"-110 -300 OFFCURVE",
"-110 -260 CURVE SMOOTH",
"-110 -200 LINE",
"-60 -200 LINE",
"-60 -50 LINE",
"-478 -50 LINE",
"-478 -260 LINE SMOOTH",
"-478 -420 OFFCURVE",
"-319 -500 OFFCURVE",
"0 -500 CURVE SMOOTH",
"319 -500 OFFCURVE",
"478 -420 OFFCURVE",
"478 -260 CURVE SMOOTH",
"478 1150 LINE SMOOTH",
"478 1430 OFFCURVE",
"325 1570 OFFCURVE",
"20 1570 CURVE SMOOTH",
"-23 1570 OFFCURVE",
"-67 1551 OFFCURVE",
"-110 1512 CURVE",
"-110 1800 LINE"
);
}
);
userData = {
assembly = "PUSHB[ ]	/* 6 values pushed */\0122 1 6 1 1 76 \012MPPEM[ ]	/* MeasurePixelPerEm */\012PUSHB[ ]	/* 1 value pushed */\01221 \012LT[ ]	/* LessThan */\012IF[ ]	/* If */\012NPUSHB[ ]	/* 36 values pushed */\0120 1 0 6 7 1 6 105 8 1 0 0 7 3 0 7 103 0 3 0 4 5 3 4 103 0 5 5 2 97 0 2 2 20 2 78 \012ELSE[ ]	/* Else */\012MPPEM[ ]	/* MeasurePixelPerEm */\012PUSHB[ ]	/* 1 value pushed */\01225 \012LT[ ]	/* LessThan */\012IF[ ]	/* If */\012NPUSHB[ ]	/* 38 values pushed */\0120 1 0 6 7 1 6 105 8 1 0 0 7 3 0 7 103 0 4 4 3 95 0 3 3 18 77 0 5 5 2 97 0 2 2 20 2 78 \012ELSE[ ]	/* Else */\012NPUSHB[ ]	/* 35 values pushed */\0120 1 0 6 7 1 6 105 8 1 0 0 7 3 0 7 103 0 5 0 2 5 2 101 0 4 4 3 95 0 3 3 18 4 78 \012EIF[ ]	/* EndIf */\012EIF[ ]	/* EndIf */\012NPUSHB[ ]	/* 23 values pushed */\0121 0 26 25 24 22 19 17 15 14 13 12 10 8 5 3 0 28 1 27 9 7 22 \012CALL[ ]	/* CallFunction */";
};
width = 588;
}
);
note = uni17C0;
unicode = 17C0;
},
{
glyphname = uni17C1;
lastChange = "2020-01-28 14:54:07 +0000";
layers = (
{
layerId = "060F58F1-3EA2-4F98-A18F-48F5C294967E";
paths = (
{
closed = 1;
nodes = (
"478 704 LINE SMOOTH",
"478 749 OFFCURVE",
"453 790 OFFCURVE",
"403 826 CURVE SMOOTH",
"328 880 LINE",
"328 932 LINE",
"528 932 LINE",
"528 1160 LINE",
"238 1160 LINE SMOOTH",
"93 1160 OFFCURVE",
"20 1094 OFFCURVE",
"20 962 CURVE SMOOTH",
"20 827 LINE",
"110 704 LINE",
"110 258 LINE SMOOTH",
"110 86 OFFCURVE",
"210 0 OFFCURVE",
"410 0 CURVE SMOOTH",
"558 0 LINE",
"558 228 LINE",
"510 228 LINE SMOOTH",
"489 228 OFFCURVE",
"478 238 OFFCURVE",
"478 258 CURVE SMOOTH"
);
}
);
userData = {
assembly = "NPUSHB[ ]	/* 36 values pushed */\01216 9 8 3 0 3 1 76 0 3 3 2 95 0 2 2 17 77 0 0 0 1 97 0 1 1 19 1 78 17 37 33 33 4 7 26 \012CALL[ ]	/* CallFunction */";
};
width = 608;
}
);
note = uni17C1;
unicode = 17C1;
},
{
glyphname = uni17C2;
lastChange = "2020-01-28 14:55:06 +0000";
layers = (
{
layerId = "060F58F1-3EA2-4F98-A18F-48F5C294967E";
paths = (
{
closed = 1;
nodes = (
"267 1670 LINE",
"69 1670 OFFCURVE",
"-30 1603 OFFCURVE",
"-30 1470 CURVE SMOOTH",
"-31 1310 OFFCURVE",
"66 1230 OFFCURVE",
"261 1230 CURVE SMOOTH",
"514 1230 OFFCURVE",
"640 1390 OFFCURVE",
"640 1710 CURVE",
"390 1710 LINE",
"390 1523 OFFCURVE",
"347 1430 OFFCURVE",
"261 1430 CURVE SMOOTH",
"227 1430 OFFCURVE",
"210 1443 OFFCURVE",
"210 1470 CURVE SMOOTH",
"210 1490 OFFCURVE",
"229 1500 OFFCURVE",
"267 1500 CURVE"
);
},
{
closed = 1;
nodes = (
"478 704 LINE SMOOTH",
"478 749 OFFCURVE",
"453 790 OFFCURVE",
"403 826 CURVE SMOOTH",
"328 880 LINE",
"328 932 LINE",
"528 932 LINE",
"528 1160 LINE",
"238 1160 LINE SMOOTH",
"93 1160 OFFCURVE",
"20 1094 OFFCURVE",
"20 962 CURVE SMOOTH",
"20 827 LINE",
"110 704 LINE",
"110 258 LINE SMOOTH",
"110 86 OFFCURVE",
"210 0 OFFCURVE",
"410 0 CURVE SMOOTH",
"558 0 LINE",
"558 228 LINE",
"510 228 LINE SMOOTH",
"489 228 OFFCURVE",
"478 238 OFFCURVE",
"478 258 CURVE SMOOTH"
);
}
);
userData = {
assembly = "PUSHB[ ]	/* 8 values pushed */\01232 25 24 3 5 8 1 76 \012MPPEM[ ]	/* MeasurePixelPerEm */\012PUSHB[ ]	/* 1 value pushed */\01210 \012LT[ ]	/* LessThan */\012IF[ ]	/* If */\012NPUSHB[ ]	/* 44 values pushed */\0120 2 4 1 2 112 0 4 9 1 0 1 4 0 105 0 1 0 3 7 1 3 106 0 8 8 7 95 0 7 7 17 77 0 5 5 6 97 0 6 6 19 6 78 \012ELSE[ ]	/* Else */\012NPUSHB[ ]	/* 43 values pushed */\0120 2 4 2 133 0 4 9 1 0 1 4 0 105 0 1 0 3 7 1 3 106 0 8 8 7 95 0 7 7 17 77 0 5 5 6 97 0 6 6 19 6 78 \012EIF[ ]	/* EndIf */\012NPUSHB[ ]	/* 25 values pushed */\0121 0 31 30 29 27 22 20 19 17 13 12 10 8 7 6 5 3 0 15 1 14 10 7 22 \012CALL[ ]	/* CallFunction */";
};
width = 608;
}
);
note = uni17C2;
unicode = 17C2;
},
{
glyphname = uni17C3;
lastChange = "2020-01-28 14:56:04 +0000";
layers = (
{
layerId = "060F58F1-3EA2-4F98-A18F-48F5C294967E";
paths = (
{
closed = 1;
nodes = (
"20 1440 LINE",
"20 1230 LINE",
"300 1230 LINE SMOOTH",
"507 1230 OFFCURVE",
"611 1315 OFFCURVE",
"610 1485 CURVE SMOOTH",
"609 1655 OFFCURVE",
"519 1740 OFFCURVE",
"340 1740 CURVE SMOOTH",
"297 1740 OFFCURVE",
"260 1730 OFFCURVE",
"230 1710 CURVE",
"230 1760 LINE SMOOTH",
"230 1861 OFFCURVE",
"133 1911 OFFCURVE",
"-60 1910 CURVE",
"-60 1730 LINE",
"-27 1730 OFFCURVE",
"-10 1723 OFFCURVE",
"-10 1710 CURVE SMOOTH",
"-10 1510 LINE",
"230 1510 LINE",
"230 1530 OFFCURVE",
"257 1540 OFFCURVE",
"310 1540 CURVE SMOOTH",
"343 1540 OFFCURVE",
"360 1522 OFFCURVE",
"360 1485 CURVE SMOOTH",
"360 1455 OFFCURVE",
"340 1440 OFFCURVE",
"300 1440 CURVE SMOOTH"
);
},
{
closed = 1;
nodes = (
"478 704 LINE SMOOTH",
"478 749 OFFCURVE",
"453 790 OFFCURVE",
"403 826 CURVE SMOOTH",
"328 880 LINE",
"328 932 LINE",
"528 932 LINE",
"528 1160 LINE",
"238 1160 LINE SMOOTH",
"93 1160 OFFCURVE",
"20 1094 OFFCURVE",
"20 962 CURVE SMOOTH",
"20 827 LINE",
"110 704 LINE",
"110 258 LINE SMOOTH",
"110 86 OFFCURVE",
"210 0 OFFCURVE",
"410 0 CURVE SMOOTH",
"558 0 LINE",
"558 228 LINE",
"510 228 LINE SMOOTH",
"489 228 OFFCURVE",
"478 238 OFFCURVE",
"478 258 CURVE SMOOTH"
);
}
);
userData = {
assembly = "NPUSHB[ ]	/* 12 values pushed */\01214 1 1 3 41 34 33 3 7 10 2 76 \012MPPEM[ ]	/* MeasurePixelPerEm */\012PUSHB[ ]	/* 1 value pushed */\01217 \012LT[ ]	/* LessThan */\012IF[ ]	/* If */\012NPUSHB[ ]	/* 47 values pushed */\0120 4 0 3 1 4 3 105 0 5 2 1 1 0 5 1 105 11 1 0 0 6 9 0 6 103 0 10 10 9 95 0 9 9 17 77 0 7 7 8 97 0 8 8 19 8 78 \012ELSE[ ]	/* Else */\012NPUSHB[ ]	/* 54 values pushed */\0120 2 1 0 1 2 0 128 0 4 0 3 1 4 3 105 0 5 0 1 2 5 1 105 11 1 0 0 6 9 0 6 103 0 10 10 9 95 0 9 9 17 77 0 7 7 8 97 0 8 8 19 8 78 \012EIF[ ]	/* EndIf */\012NPUSHB[ ]	/* 29 values pushed */\0121 0 40 39 38 36 31 29 28 26 21 19 17 15 12 11 10 9 7 6 5 3 0 24 1 22 12 7 22 \012CALL[ ]	/* CallFunction */";
};
width = 608;
}
);
note = uni17C3;
unicode = 17C3;
},
{
glyphname = uni17C4;
lastChange = "2020-01-28 14:56:42 +0000";
layers = (
{
layerId = "060F58F1-3EA2-4F98-A18F-48F5C294967E";
paths = (
{
closed = 1;
nodes = (
"-210 1160 LINE",
"-210 932 LINE",
"8 932 LINE SMOOTH",
"76 932 OFFCURVE",
"110 890 OFFCURVE",
"110 807 CURVE SMOOTH",
"110 0 LINE",
"478 0 LINE",
"478 807 LINE SMOOTH",
"478 1042 OFFCURVE",
"351 1160 OFFCURVE",
"98 1160 CURVE SMOOTH"
);
}
);
userData = {
assembly = "NPUSHB[ ]	/* 30 values pushed */\0120 2 2 0 95 3 1 0 0 17 77 0 1 1 19 1 78 1 0 8 6 4 3 0 11 1 9 4 7 22 \012CALL[ ]	/* CallFunction */";
};
width = 588;
}
);
note = uni17C4;
unicode = 17C4;
},
{
glyphname = uni17C5;
lastChange = "2020-01-28 15:13:57 +0000";
layers = (
{
layerId = "060F58F1-3EA2-4F98-A18F-48F5C294967E";
paths = (
{
closed = 1;
nodes = (
"478 1161 LINE",
"478 1357 LINE SMOOTH",
"478 1572 OFFCURVE",
"431 1680 OFFCURVE",
"148 1680 CURVE SMOOTH",
"-100 1680 LINE",
"-100 1452 LINE",
"38 1452 LINE SMOOTH",
"86 1452 OFFCURVE",
"110 1420 OFFCURVE",
"110 1357 CURVE SMOOTH",
"110 1161 LINE"
);
},
{
closed = 1;
nodes = (
"-210 1160 LINE",
"-210 932 LINE",
"8 932 LINE SMOOTH",
"76 932 OFFCURVE",
"110 890 OFFCURVE",
"110 807 CURVE SMOOTH",
"110 0 LINE",
"478 0 LINE",
"478 807 LINE SMOOTH",
"478 1042 OFFCURVE",
"351 1160 OFFCURVE",
"98 1160 CURVE SMOOTH"
);
}
);
userData = {
assembly = "NPUSHB[ ]	/* 52 values pushed */\0120 5 3 0 3 5 0 128 0 4 0 3 5 4 3 105 0 2 2 0 95 6 1 0 0 17 77 0 1 1 19 1 78 1 0 22 21 19 17 16 14 8 6 4 3 0 11 1 9 7 7 22 \012CALL[ ]	/* CallFunction */";
};
width = 588;
}
);
note = uni17C5;
unicode = 17C5;
},
{
glyphname = uni17C6;
lastChange = "2020-01-28 14:58:44 +0000";
layers = (
{
layerId = "060F58F1-3EA2-4F98-A18F-48F5C294967E";
paths = (
{
closed = 1;
nodes = (
"-857 1785 OFFCURVE",
"-960 1702 OFFCURVE",
"-960 1535 CURVE SMOOTH",
"-960 1368 OFFCURVE",
"-857 1285 OFFCURVE",
"-650 1285 CURVE SMOOTH",
"-443 1285 OFFCURVE",
"-340 1368 OFFCURVE",
"-340 1535 CURVE SMOOTH",
"-340 1702 OFFCURVE",
"-443 1785 OFFCURVE",
"-650 1785 CURVE SMOOTH"
);
},
{
closed = 1;
nodes = (
"-600 1610 OFFCURVE",
"-575 1585 OFFCURVE",
"-575 1535 CURVE SMOOTH",
"-575 1485 OFFCURVE",
"-600 1460 OFFCURVE",
"-650 1460 CURVE SMOOTH",
"-700 1460 OFFCURVE",
"-725 1485 OFFCURVE",
"-725 1535 CURVE SMOOTH",
"-725 1585 OFFCURVE",
"-700 1610 OFFCURVE",
"-650 1610 CURVE SMOOTH"
);
}
);
userData = {
assembly = "PUSHB[ ]	/* 2 values pushed */\0126 100 \012WCVTP[ ]	/* WriteCVTInPixels */\012NPUSHB[ ]	/* 45 values pushed */\0125 1 2 4 1 0 1 2 0 105 0 1 3 3 1 89 0 1 1 3 97 0 3 1 3 81 11 10 1 0 15 13 10 19 11 17 5 3 0 9 1 7 6 7 22 \012CALL[ ]	/* CallFunction */\012PUSHB[ ]	/* 2 values pushed */\0126 0 \012WCVTP[ ]	/* WriteCVTInPixels */";
};
width = 0;
}
);
note = uni17C6;
unicode = 17C6;
},
{
glyphname = uni17C7;
lastChange = "2020-01-28 15:00:49 +0000";
layers = (
{
layerId = "060F58F1-3EA2-4F98-A18F-48F5C294967E";
paths = (
{
closed = 1;
nodes = (
"173 500 OFFCURVE",
"70 417 OFFCURVE",
"70 250 CURVE SMOOTH",
"70 83 OFFCURVE",
"173 0 OFFCURVE",
"380 0 CURVE SMOOTH",
"587 0 OFFCURVE",
"690 83 OFFCURVE",
"690 250 CURVE SMOOTH",
"690 417 OFFCURVE",
"587 500 OFFCURVE",
"380 500 CURVE SMOOTH"
);
},
{
closed = 1;
nodes = (
"430 325 OFFCURVE",
"455 300 OFFCURVE",
"455 250 CURVE SMOOTH",
"455 200 OFFCURVE",
"430 175 OFFCURVE",
"380 175 CURVE SMOOTH",
"330 175 OFFCURVE",
"305 200 OFFCURVE",
"305 250 CURVE SMOOTH",
"305 300 OFFCURVE",
"330 325 OFFCURVE",
"380 325 CURVE SMOOTH"
);
},
{
closed = 1;
nodes = (
"173 1160 OFFCURVE",
"70 1077 OFFCURVE",
"70 910 CURVE SMOOTH",
"70 743 OFFCURVE",
"173 660 OFFCURVE",
"380 660 CURVE SMOOTH",
"587 660 OFFCURVE",
"690 743 OFFCURVE",
"690 910 CURVE SMOOTH",
"690 1077 OFFCURVE",
"587 1160 OFFCURVE",
"380 1160 CURVE SMOOTH"
);
},
{
closed = 1;
nodes = (
"430 985 OFFCURVE",
"455 960 OFFCURVE",
"455 910 CURVE SMOOTH",
"455 860 OFFCURVE",
"430 835 OFFCURVE",
"380 835 CURVE SMOOTH",
"330 835 OFFCURVE",
"305 860 OFFCURVE",
"305 910 CURVE SMOOTH",
"305 960 OFFCURVE",
"330 985 OFFCURVE",
"380 985 CURVE SMOOTH"
);
}
);
userData = {
assembly = "NPUSHB[ ]	/* 76 values pushed */\0120 5 0 7 2 5 7 105 9 1 2 8 1 0 1 2 0 105 10 1 4 4 6 97 11 1 6 6 17 77 0 1 1 3 97 0 3 3 19 3 78 31 30 21 20 11 10 1 0 35 33 30 39 31 37 25 23 20 29 21 27 15 13 10 19 11 17 5 3 0 9 1 7 12 7 22 \012CALL[ ]	/* CallFunction */";
};
width = 750;
}
);
note = uni17C7;
unicode = 17C7;
},
{
glyphname = uni17C8;
lastChange = "2020-01-28 15:01:37 +0000";
layers = (
{
layerId = "060F58F1-3EA2-4F98-A18F-48F5C294967E";
paths = (
{
closed = 1;
nodes = (
"373 1045 OFFCURVE",
"435 993 OFFCURVE",
"435 890 CURVE SMOOTH",
"435 787 OFFCURVE",
"373 735 OFFCURVE",
"250 735 CURVE SMOOTH",
"127 735 OFFCURVE",
"65 787 OFFCURVE",
"65 890 CURVE SMOOTH",
"65 993 OFFCURVE",
"127 1045 OFFCURVE",
"250 1045 CURVE SMOOTH"
);
},
{
closed = 1;
nodes = (
"373 385 OFFCURVE",
"435 333 OFFCURVE",
"435 230 CURVE SMOOTH",
"435 127 OFFCURVE",
"373 75 OFFCURVE",
"250 75 CURVE SMOOTH",
"127 75 OFFCURVE",
"65 127 OFFCURVE",
"65 230 CURVE SMOOTH",
"65 333 OFFCURVE",
"127 385 OFFCURVE",
"250 385 CURVE SMOOTH"
);
}
);
userData = {
assembly = "NPUSHB[ ]	/* 46 values pushed */\0125 1 2 0 3 0 2 3 105 4 1 0 1 1 0 89 4 1 0 0 1 97 0 1 0 1 81 11 10 1 0 15 13 10 19 11 17 5 3 0 9 1 7 6 7 22 \012CALL[ ]	/* CallFunction */";
};
width = 500;
}
);
note = uni17C8;
unicode = 17C8;
},
{
glyphname = uni17C9;
lastChange = "2020-01-28 15:02:03 +0000";
layers = (
{
layerId = "060F58F1-3EA2-4F98-A18F-48F5C294967E";
paths = (
{
closed = 1;
nodes = (
"-710 1300 LINE",
"-710 1700 LINE",
"-1000 1700 LINE",
"-1000 1300 LINE"
);
},
{
closed = 1;
nodes = (
"-300 1300 LINE",
"-300 1700 LINE",
"-590 1700 LINE",
"-590 1300 LINE"
);
}
);
userData = {
assembly = "PUSHB[ ]	/* 2 values pushed */\0126 100 \012WCVTP[ ]	/* WriteCVTInPixels */\012NPUSHB[ ]	/* 39 values pushed */\0122 1 0 1 1 0 87 2 1 0 0 1 95 5 3 4 3 1 0 1 79 4 4 0 0 4 7 4 7 6 5 0 3 0 3 17 6 7 23 \012CALL[ ]	/* CallFunction */\012PUSHB[ ]	/* 2 values pushed */\0126 0 \012WCVTP[ ]	/* WriteCVTInPixels */";
};
width = 0;
}
);
note = uni17C9;
unicode = 17C9;
},
{
glyphname = uni17CA;
lastChange = "2020-01-28 15:02:22 +0000";
layers = (
{
layerId = "060F58F1-3EA2-4F98-A18F-48F5C294967E";
paths = (
{
closed = 1;
nodes = (
"-110 1220 LINE",
"-110 1470 LINE",
"-542 1470 LINE",
"-650 1340 LINE",
"-757 1470 LINE",
"-1190 1470 LINE",
"-1190 1220 LINE"
);
}
);
userData = {
assembly = "PUSHB[ ]	/* 2 values pushed */\0126 100 \012WCVTP[ ]	/* WriteCVTInPixels */\012NPUSHB[ ]	/* 36 values pushed */\0123 1 2 0 1 76 1 1 0 2 2 0 87 1 1 0 0 2 95 3 1 2 0 2 79 0 0 0 6 0 6 18 17 4 7 24 \012CALL[ ]	/* CallFunction */\012PUSHB[ ]	/* 2 values pushed */\0126 0 \012WCVTP[ ]	/* WriteCVTInPixels */";
};
width = 0;
}
);
note = uni17CA;
unicode = 17CA;
},
{
glyphname = uni17CB;
lastChange = "2020-01-28 15:02:40 +0000";
layers = (
{
layerId = "060F58F1-3EA2-4F98-A18F-48F5C294967E";
paths = (
{
closed = 1;
nodes = (
"-485 1300 LINE",
"-485 1700 LINE",
"-815 1700 LINE",
"-815 1300 LINE"
);
}
);
userData = {
assembly = "PUSHB[ ]	/* 2 values pushed */\0126 100 \012WCVTP[ ]	/* WriteCVTInPixels */\012NPUSHB[ ]	/* 27 values pushed */\0120 0 1 1 0 87 0 0 0 1 95 2 1 1 0 1 79 0 0 0 3 0 3 17 3 7 23 \012CALL[ ]	/* CallFunction */\012PUSHB[ ]	/* 2 values pushed */\0126 0 \012WCVTP[ ]	/* WriteCVTInPixels */";
};
width = 0;
}
);
note = uni17CB;
unicode = 17CB;
},
{
glyphname = uni17CC;
lastChange = "2020-01-28 15:03:51 +0000";
layers = (
{
layerId = "060F58F1-3EA2-4F98-A18F-48F5C294967E";
paths = (
{
closed = 1;
nodes = (
"-906 1309 LINE",
"-791 1381 OFFCURVE",
"-711 1418 OFFCURVE",
"-666 1421 CURVE SMOOTH",
"-659 1422 OFFCURVE",
"-652 1422 OFFCURVE",
"-645 1422 CURVE SMOOTH",
"-608 1422 OFFCURVE",
"-574 1416 OFFCURVE",
"-543 1405 CURVE SMOOTH",
"-506 1392 OFFCURVE",
"-464 1357 OFFCURVE",
"-419 1300 CURVE",
"-220 1411 LINE",
"-278 1476 OFFCURVE",
"-335 1516 OFFCURVE",
"-391 1529 CURVE SMOOTH",
"-432 1538 OFFCURVE",
"-471 1543 OFFCURVE",
"-508 1543 CURVE SMOOTH",
"-521 1543 OFFCURVE",
"-534 1542 OFFCURVE",
"-547 1541 CURVE",
"-481 1605 OFFCURVE",
"-437 1680 OFFCURVE",
"-414 1767 CURVE",
"-638 1860 LINE",
"-699 1709 OFFCURVE",
"-857 1588 OFFCURVE",
"-1080 1476 CURVE"
);
}
);
userData = {
assembly = "PUSHB[ ]	/* 2 values pushed */\0126 100 \012WCVTP[ ]	/* WriteCVTInPixels */\012NPUSHB[ ]	/* 31 values pushed */\0126 1 1 0 1 76 4 3 2 0 74 21 13 12 3 1 73 0 0 1 0 133 0 1 1 118 71 39 2 7 24 \012CALL[ ]	/* CallFunction */\012PUSHB[ ]	/* 2 values pushed */\0126 0 \012WCVTP[ ]	/* WriteCVTInPixels */";
};
width = 0;
}
);
note = uni17CC;
unicode = 17CC;
},
{
glyphname = uni17CD;
lastChange = "2020-01-28 15:04:30 +0000";
layers = (
{
layerId = "060F58F1-3EA2-4F98-A18F-48F5C294967E";
paths = (
{
closed = 1;
nodes = (
"-792 1537 OFFCURVE",
"-762 1550 OFFCURVE",
"-703 1550 CURVE SMOOTH",
"-561 1550 LINE SMOOTH",
"-294 1550 OFFCURVE",
"-160 1653 OFFCURVE",
"-160 1860 CURVE",
"-487 1860 LINE",
"-487 1793 OFFCURVE",
"-512 1760 OFFCURVE",
"-561 1760 CURVE SMOOTH",
"-703 1760 LINE SMOOTH",
"-981 1760 OFFCURVE",
"-1120 1677 OFFCURVE",
"-1120 1510 CURVE SMOOTH",
"-1120 1357 OFFCURVE",
"-997 1280 OFFCURVE",
"-752 1280 CURVE",
"-752 1470 LINE",
"-779 1470 OFFCURVE",
"-792 1483 OFFCURVE",
"-792 1510 CURVE SMOOTH"
);
}
);
userData = {
assembly = "PUSHB[ ]	/* 2 values pushed */\0126 100 \012WCVTP[ ]	/* WriteCVTInPixels */\012MPPEM[ ]	/* MeasurePixelPerEm */\012PUSHB[ ]	/* 1 value pushed */\01227 \012LT[ ]	/* LessThan */\012IF[ ]	/* If */\012NPUSHB[ ]	/* 30 values pushed */\0120 3 2 2 3 112 0 2 0 4 0 2 4 106 0 0 1 1 0 89 0 0 0 1 97 0 1 0 1 81 \012ELSE[ ]	/* Else */\012NPUSHB[ ]	/* 29 values pushed */\0120 3 2 3 133 0 2 0 4 0 2 4 106 0 0 1 1 0 89 0 0 0 1 97 0 1 0 1 81 \012EIF[ ]	/* EndIf */\012PUSHB[ ]	/* 8 values pushed */\01249 17 50 17 17 5 7 27 \012CALL[ ]	/* CallFunction */\012PUSHB[ ]	/* 2 values pushed */\0126 0 \012WCVTP[ ]	/* WriteCVTInPixels */";
};
width = 0;
}
);
note = uni17CD;
unicode = 17CD;
},
{
glyphname = uni17CE;
lastChange = "2020-01-28 15:04:47 +0000";
layers = (
{
layerId = "060F58F1-3EA2-4F98-A18F-48F5C294967E";
paths = (
{
closed = 1;
nodes = (
"-485 1829 LINE",
"-815 1829 LINE",
"-815 1688 LINE",
"-955 1688 LINE",
"-955 1441 LINE",
"-815 1441 LINE",
"-815 1300 LINE",
"-485 1300 LINE",
"-485 1441 LINE",
"-345 1441 LINE",
"-345 1688 LINE",
"-485 1688 LINE"
);
}
);
userData = {
assembly = "PUSHB[ ]	/* 2 values pushed */\0126 100 \012WCVTP[ ]	/* WriteCVTInPixels */\012NPUSHB[ ]	/* 35 values pushed */\0120 5 0 2 5 87 4 1 0 3 1 1 2 0 1 103 0 5 5 2 95 0 2 5 2 79 17 17 17 17 17 16 6 7 28 \012CALL[ ]	/* CallFunction */\012PUSHB[ ]	/* 2 values pushed */\0126 0 \012WCVTP[ ]	/* WriteCVTInPixels */";
};
width = 0;
}
);
note = uni17CE;
unicode = 17CE;
},
{
glyphname = uni17CF;
lastChange = "2020-01-28 15:05:32 +0000";
layers = (
{
layerId = "060F58F1-3EA2-4F98-A18F-48F5C294967E";
paths = (
{
closed = 1;
nodes = (
"-1140 1280 LINE",
"-779 1280 LINE",
"-779 1281 LINE",
"-778 1280 LINE",
"-651 1343 LINE",
"-520 1280 LINE",
"-160 1280 LINE",
"-160 1522 LINE",
"-490 1522 LINE",
"-490 1454 LINE",
"-650 1537 LINE",
"-809 1455 LINE",
"-809 1512 LINE SMOOTH",
"-809 1556 OFFCURVE",
"-786 1578 OFFCURVE",
"-740 1578 CURVE SMOOTH",
"-610 1578 LINE SMOOTH",
"-310 1578 OFFCURVE",
"-160 1679 OFFCURVE",
"-160 1880 CURVE",
"-490 1880 LINE",
"-489 1816 OFFCURVE",
"-529 1784 OFFCURVE",
"-610 1784 CURVE SMOOTH",
"-740 1784 LINE SMOOTH",
"-1007 1784 OFFCURVE",
"-1140 1693 OFFCURVE",
"-1140 1512 CURVE SMOOTH"
);
}
);
userData = {
assembly = "PUSHB[ ]	/* 2 values pushed */\0126 100 \012WCVTP[ ]	/* WriteCVTInPixels */\012NPUSHB[ ]	/* 12 values pushed */\01213 1 3 2 19 14 12 3 4 3 2 76 \012MPPEM[ ]	/* MeasurePixelPerEm */\012PUSHB[ ]	/* 1 value pushed */\01227 \012LT[ ]	/* LessThan */\012IF[ ]	/* If */\012NPUSHB[ ]	/* 31 values pushed */\0120 1 0 0 1 112 0 0 0 2 3 0 2 106 0 3 4 4 3 87 0 3 3 4 95 5 1 4 3 4 79 \012ELSE[ ]	/* Else */\012NPUSHB[ ]	/* 30 values pushed */\0120 1 0 1 133 0 0 0 2 3 0 2 106 0 3 4 4 3 87 0 3 3 4 95 5 1 4 3 4 79 \012EIF[ ]	/* EndIf */\012NPUSHB[ ]	/* 9 values pushed */\01250 17 21 49 17 49 6 7 28 \012CALL[ ]	/* CallFunction */\012PUSHB[ ]	/* 2 values pushed */\0126 0 \012WCVTP[ ]	/* WriteCVTInPixels */";
};
width = 0;
}
);
note = uni17CF;
unicode = 17CF;
},
{
glyphname = uni17D0;
lastChange = "2020-01-28 15:06:14 +0000";
layers = (
{
layerId = "060F58F1-3EA2-4F98-A18F-48F5C294967E";
paths = (
{
closed = 1;
nodes = (
"-730 1433 OFFCURVE",
"-596 1350 OFFCURVE",
"-329 1350 CURVE SMOOTH",
"17 1350 OFFCURVE",
"190 1527 OFFCURVE",
"190 1880 CURVE",
"-140 1880 LINE",
"-140 1667 OFFCURVE",
"-203 1560 OFFCURVE",
"-329 1560 CURVE SMOOTH",
"-376 1560 OFFCURVE",
"-400 1573 OFFCURVE",
"-400 1600 CURVE SMOOTH",
"-400 1640 OFFCURVE",
"-376 1660 OFFCURVE",
"-329 1660 CURVE",
"-329 1870 LINE",
"-596 1870 OFFCURVE",
"-730 1780 OFFCURVE",
"-730 1600 CURVE SMOOTH"
);
}
);
userData = {
assembly = "PUSHB[ ]	/* 2 values pushed */\0126 100 \012WCVTP[ ]	/* WriteCVTInPixels */\012MPPEM[ ]	/* MeasurePixelPerEm */\012PUSHB[ ]	/* 1 value pushed */\01248 \012LT[ ]	/* LessThan */\012IF[ ]	/* If */\012NPUSHB[ ]	/* 25 values pushed */\0123 1 0 0 1 2 0 1 105 0 2 4 4 2 89 0 2 2 4 98 0 4 2 4 82 \012ELSE[ ]	/* Else */\012NPUSHB[ ]	/* 29 values pushed */\0120 3 0 3 133 0 0 0 1 2 0 1 105 0 2 4 4 2 89 0 2 2 4 98 0 4 2 4 82 \012EIF[ ]	/* EndIf */\012PUSHB[ ]	/* 8 values pushed */\01233 17 34 17 17 5 7 27 \012CALL[ ]	/* CallFunction */\012PUSHB[ ]	/* 2 values pushed */\0126 0 \012WCVTP[ ]	/* WriteCVTInPixels */";
};
width = 0;
}
);
note = uni17D0;
unicode = 17D0;
},
{
glyphname = uni17D1;
lastChange = "2020-01-28 15:06:31 +0000";
layers = (
{
layerId = "060F58F1-3EA2-4F98-A18F-48F5C294967E";
paths = (
{
closed = 1;
nodes = (
"-1190 1252 LINE",
"-110 1252 LINE",
"-110 1480 LINE",
"-1190 1480 LINE"
);
}
);
userData = {
assembly = "PUSHB[ ]	/* 2 values pushed */\0126 100 \012WCVTP[ ]	/* WriteCVTInPixels */\012NPUSHB[ ]	/* 21 values pushed */\0120 0 1 1 0 87 0 0 0 1 95 0 1 0 1 79 17 16 2 7 24 \012CALL[ ]	/* CallFunction */\012PUSHB[ ]	/* 2 values pushed */\0126 0 \012WCVTP[ ]	/* WriteCVTInPixels */";
};
width = 0;
}
);
note = uni17D1;
unicode = 17D1;
},
{
glyphname = uni17D2;
layers = (
{
layerId = "060F58F1-3EA2-4F98-A18F-48F5C294967E";
paths = (
{
closed = 1;
nodes = (
"-515 -50 LINE",
"-785 -50 LINE",
"-785 -174 LINE",
"-925 -174 LINE",
"-925 -376 LINE",
"-785 -376 LINE",
"-785 -500 LINE",
"-515 -500 LINE",
"-515 -376 LINE",
"-375 -376 LINE",
"-375 -174 LINE",
"-515 -174 LINE",
"-515 -174 LINE"
);
}
);
userData = {
assembly = "PUSHB[ ]	/* 2 values pushed */\0126 100 \012WCVTP[ ]	/* WriteCVTInPixels */\012NPUSHB[ ]	/* 35 values pushed */\0120 5 0 2 5 87 4 1 0 3 1 1 2 0 1 103 0 5 5 2 95 0 2 5 2 79 17 17 17 17 17 16 6 7 28 \012CALL[ ]	/* CallFunction */\012PUSHB[ ]	/* 2 values pushed */\0126 0 \012WCVTP[ ]	/* WriteCVTInPixels */";
};
width = 0;
}
);
note = uni17D2;
unicode = 17D2;
},
{
glyphname = uni17D3;
lastChange = "2020-01-28 15:07:10 +0000";
layers = (
{
layerId = "060F58F1-3EA2-4F98-A18F-48F5C294967E";
paths = (
{
closed = 1;
nodes = (
"-783 1800 OFFCURVE",
"-977 1756 OFFCURVE",
"-1036 1676 CURVE SMOOTH",
"-1065 1635 OFFCURVE",
"-1080 1593 OFFCURVE",
"-1080 1550 CURVE SMOOTH",
"-1080 1463 OFFCURVE",
"-1032 1377 OFFCURVE",
"-872 1333 CURVE SMOOTH",
"-792 1311 OFFCURVE",
"-718 1300 OFFCURVE",
"-650 1300 CURVE SMOOTH",
"-511 1300 OFFCURVE",
"-318 1346 OFFCURVE",
"-262 1426 CURVE SMOOTH",
"-234 1465 OFFCURVE",
"-220 1507 OFFCURVE",
"-220 1550 CURVE SMOOTH",
"-220 1637 OFFCURVE",
"-268 1725 OFFCURVE",
"-428 1768 CURVE SMOOTH",
"-508 1789 OFFCURVE",
"-582 1800 OFFCURVE",
"-650 1800 CURVE SMOOTH"
);
},
{
closed = 1;
nodes = (
"-573 1667 OFFCURVE",
"-496 1645 OFFCURVE",
"-477 1608 CURVE SMOOTH",
"-467 1589 OFFCURVE",
"-462 1570 OFFCURVE",
"-462 1550 CURVE SMOOTH",
"-462 1510 OFFCURVE",
"-471 1469 OFFCURVE",
"-540 1449 CURVE SMOOTH",
"-575 1438 OFFCURVE",
"-611 1433 OFFCURVE",
"-649 1433 CURVE SMOOTH",
"-721 1433 OFFCURVE",
"-802 1455 OFFCURVE",
"-822 1492 CURVE SMOOTH",
"-831 1511 OFFCURVE",
"-836 1530 OFFCURVE",
"-836 1550 CURVE SMOOTH",
"-836 1590 OFFCURVE",
"-824 1631 OFFCURVE",
"-755 1652 CURVE SMOOTH",
"-720 1662 OFFCURVE",
"-685 1667 OFFCURVE",
"-649 1667 CURVE SMOOTH"
);
}
);
userData = {
assembly = "PUSHB[ ]	/* 2 values pushed */\0126 100 \012WCVTP[ ]	/* WriteCVTInPixels */\012NPUSHB[ ]	/* 45 values pushed */\0125 1 2 4 1 0 1 2 0 105 0 1 3 3 1 89 0 1 1 3 97 0 3 1 3 81 19 18 1 0 27 25 18 35 19 33 9 7 0 17 1 15 6 7 22 \012CALL[ ]	/* CallFunction */\012PUSHB[ ]	/* 2 values pushed */\0126 0 \012WCVTP[ ]	/* WriteCVTInPixels */";
};
width = 0;
}
);
note = uni17D3;
unicode = 17D3;
},
{
glyphname = uni17D4;
lastChange = "2020-01-28 15:08:03 +0000";
layers = (
{
layerId = "060F58F1-3EA2-4F98-A18F-48F5C294967E";
paths = (
{
closed = 1;
nodes = (
"535 1160 LINE",
"382 1160 LINE SMOOTH",
"201 1160 OFFCURVE",
"110 1090 OFFCURVE",
"110 950 CURVE SMOOTH",
"110 763 OFFCURVE",
"215 670 OFFCURVE",
"426 670 CURVE SMOOTH",
"551 670 OFFCURVE",
"649 729 OFFCURVE",
"722 846 CURVE",
"722 0 LINE",
"1090 0 LINE",
"1090 1160 LINE",
"722 1160 LINE",
"638 999 LINE",
"588 932 OFFCURVE",
"544 898 OFFCURVE",
"506 898 CURVE SMOOTH",
"487 898 OFFCURVE",
"478 915 OFFCURVE",
"478 950 CURVE SMOOTH",
"478 978 OFFCURVE",
"497 992 OFFCURVE",
"535 992 CURVE"
);
}
);
userData = {
assembly = "NPUSHB[ ]	/* 51 values pushed */\01211 1 4 1 1 76 0 1 0 4 3 1 4 105 6 1 0 0 2 95 5 1 2 2 17 77 0 3 3 19 3 78 1 0 18 16 14 12 10 9 8 7 5 3 0 20 1 19 7 7 22 \012CALL[ ]	/* CallFunction */";
};
width = 1200;
}
);
note = uni17D4;
unicode = 17D4;
},
{
glyphname = uni17D5;
lastChange = "2020-01-28 18:05:25 +0000";
layers = (
{
layerId = "060F58F1-3EA2-4F98-A18F-48F5C294967E";
paths = (
{
closed = 1;
nodes = (
"535 1160 LINE",
"382 1160 LINE SMOOTH",
"201 1160 OFFCURVE",
"110 1090 OFFCURVE",
"110 950 CURVE SMOOTH",
"110 763 OFFCURVE",
"215 670 OFFCURVE",
"426 670 CURVE SMOOTH",
"551 670 OFFCURVE",
"649 729 OFFCURVE",
"722 846 CURVE",
"722 0 LINE",
"1090 0 LINE",
"1090 1160 LINE",
"722 1160 LINE",
"638 999 LINE",
"588 932 OFFCURVE",
"544 898 OFFCURVE",
"506 898 CURVE SMOOTH",
"487 898 OFFCURVE",
"478 915 OFFCURVE",
"478 950 CURVE SMOOTH",
"478 978 OFFCURVE",
"497 992 OFFCURVE",
"535 992 CURVE"
);
},
{
closed = 1;
nodes = (
"1142 1160 LINE",
"1142 0 LINE",
"1390 0 LINE",
"1390 1160 LINE"
);
}
);
userData = {
assembly = "NPUSHB[ ]	/* 62 values pushed */\01211 1 4 1 1 76 0 1 0 4 3 1 4 105 8 1 0 0 2 95 9 7 5 3 2 2 17 77 6 1 3 3 19 3 78 21 21 1 0 21 24 21 24 23 22 18 16 14 12 10 9 8 7 5 3 0 20 1 19 10 7 22 \012CALL[ ]	/* CallFunction */";
};
width = 1500;
}
);
note = uni17D5;
unicode = 17D5;
},
{
glyphname = uni17D6;
lastChange = "2020-01-28 18:06:21 +0000";
layers = (
{
layerId = "060F58F1-3EA2-4F98-A18F-48F5C294967E";
paths = (
{
closed = 1;
nodes = (
"173 1160 OFFCURVE",
"80 1093 OFFCURVE",
"80 960 CURVE SMOOTH",
"80 827 OFFCURVE",
"173 760 OFFCURVE",
"360 760 CURVE SMOOTH",
"547 760 OFFCURVE",
"640 827 OFFCURVE",
"640 960 CURVE SMOOTH",
"640 1093 OFFCURVE",
"547 1160 OFFCURVE",
"360 1160 CURVE SMOOTH"
);
},
{
closed = 1;
nodes = (
"390 1020 OFFCURVE",
"405 1000 OFFCURVE",
"405 960 CURVE SMOOTH",
"405 920 OFFCURVE",
"390 900 OFFCURVE",
"360 900 CURVE SMOOTH",
"330 900 OFFCURVE",
"315 920 OFFCURVE",
"315 960 CURVE SMOOTH",
"315 1000 OFFCURVE",
"330 1020 OFFCURVE",
"360 1020 CURVE SMOOTH"
);
},
{
closed = 1;
nodes = (
"50 684 LINE",
"50 476 LINE",
"700 476 LINE",
"700 684 LINE"
);
},
{
closed = 1;
nodes = (
"173 400 OFFCURVE",
"80 333 OFFCURVE",
"80 200 CURVE SMOOTH",
"80 67 OFFCURVE",
"173 0 OFFCURVE",
"360 0 CURVE SMOOTH",
"547 0 OFFCURVE",
"640 67 OFFCURVE",
"640 200 CURVE SMOOTH",
"640 333 OFFCURVE",
"547 400 OFFCURVE",
"360 400 CURVE SMOOTH"
);
},
{
closed = 1;
nodes = (
"390 260 OFFCURVE",
"405 240 OFFCURVE",
"405 200 CURVE SMOOTH",
"405 160 OFFCURVE",
"390 140 OFFCURVE",
"360 140 CURVE SMOOTH",
"330 140 OFFCURVE",
"315 160 OFFCURVE",
"315 200 CURVE SMOOTH",
"315 240 OFFCURVE",
"330 260 OFFCURVE",
"360 260 CURVE SMOOTH"
);
}
);
userData = {
assembly = "NPUSHB[ ]	/* 93 values pushed */\0120 5 0 7 9 5 7 105 14 1 9 0 8 2 9 8 103 11 1 2 10 1 0 1 2 0 105 12 1 4 4 6 97 13 1 6 6 17 77 0 1 1 3 97 0 3 3 19 3 78 40 40 31 30 21 20 11 10 1 0 40 43 40 43 42 41 35 33 30 39 31 37 25 23 20 29 21 27 15 13 10 19 11 17 5 3 0 9 1 7 15 7 22 \012CALL[ ]	/* CallFunction */";
};
width = 750;
}
);
note = uni17D6;
unicode = 17D6;
},
{
glyphname = uni17D7;
lastChange = "2020-01-28 18:07:42 +0000";
layers = (
{
layerId = "060F58F1-3EA2-4F98-A18F-48F5C294967E";
paths = (
{
closed = 1;
nodes = (
"722 -180 LINE SMOOTH",
"722 -241 OFFCURVE",
"665 -272 OFFCURVE",
"550 -272 CURVE",
"550 -500 LINE",
"910 -500 OFFCURVE",
"1090 -393 OFFCURVE",
"1090 -180 CURVE SMOOTH",
"1090 1160 LINE",
"722 1160 LINE",
"687 1051 OFFCURVE",
"657 996 OFFCURVE",
"631 996 CURVE SMOOTH",
"620 996 OFFCURVE",
"589 1023 OFFCURVE",
"537 1078 CURVE SMOOTH",
"485 1133 OFFCURVE",
"421 1160 OFFCURVE",
"345 1160 CURVE SMOOTH",
"155 1160 OFFCURVE",
"60 1061 OFFCURVE",
"60 863 CURVE SMOOTH",
"60 667 OFFCURVE",
"193 569 OFFCURVE",
"458 569 CURVE",
"458 803 LINE",
"425 803 OFFCURVE",
"408 823 OFFCURVE",
"408 863 CURVE SMOOTH",
"408 935 OFFCURVE",
"452 921 OFFCURVE",
"511 842 CURVE SMOOTH",
"544 797 OFFCURVE",
"584 774 OFFCURVE",
"631 774 CURVE SMOOTH",
"663 774 OFFCURVE",
"693 804 OFFCURVE",
"722 863 CURVE"
);
}
);
userData = {
assembly = "PUSHB[ ]	/* 6 values pushed */\01227 1 2 1 1 76 \012MPPEM[ ]	/* MeasurePixelPerEm */\012PUSHB[ ]	/* 1 value pushed */\01225 \012LT[ ]	/* LessThan */\012IF[ ]	/* If */\012NPUSHB[ ]	/* 38 values pushed */\0120 5 0 0 3 5 0 105 0 2 0 3 8 2 3 105 0 1 1 4 97 6 1 4 4 17 77 0 8 8 7 98 0 7 7 20 7 78 \012ELSE[ ]	/* Else */\012NPUSHB[ ]	/* 35 values pushed */\0120 5 0 0 3 5 0 105 0 2 0 3 8 2 3 105 0 8 0 7 8 7 102 0 1 1 4 97 6 1 4 4 17 1 78 \012EIF[ ]	/* EndIf */\012NPUSHB[ ]	/* 12 values pushed */\01217 18 17 33 34 17 18 33 33 9 7 31 \012CALL[ ]	/* CallFunction */";
};
width = 1200;
}
);
note = uni17D7;
unicode = 17D7;
},
{
glyphname = uni17D8;
lastChange = "2020-01-28 18:10:49 +0000";
layers = (
{
layerId = "060F58F1-3EA2-4F98-A18F-48F5C294967E";
paths = (
{
closed = 1;
nodes = (
"3635 1160 LINE",
"3482 1160 LINE SMOOTH",
"3301 1160 OFFCURVE",
"3210 1090 OFFCURVE",
"3210 950 CURVE SMOOTH",
"3210 763 OFFCURVE",
"3315 670 OFFCURVE",
"3526 670 CURVE SMOOTH",
"3651 670 OFFCURVE",
"3749 729 OFFCURVE",
"3822 846 CURVE",
"3822 0 LINE",
"4190 0 LINE",
"4190 1160 LINE",
"3822 1160 LINE",
"3738 999 LINE",
"3688 932 OFFCURVE",
"3644 898 OFFCURVE",
"3606 898 CURVE SMOOTH",
"3587 898 OFFCURVE",
"3578 915 OFFCURVE",
"3578 950 CURVE SMOOTH",
"3578 978 OFFCURVE",
"3597 992 OFFCURVE",
"3635 992 CURVE"
);
},
{
closed = 1;
nodes = (
"535 1160 LINE",
"382 1160 LINE SMOOTH",
"201 1160 OFFCURVE",
"110 1090 OFFCURVE",
"110 950 CURVE SMOOTH",
"110 763 OFFCURVE",
"215 670 OFFCURVE",
"426 670 CURVE SMOOTH",
"551 670 OFFCURVE",
"649 729 OFFCURVE",
"722 846 CURVE",
"722 0 LINE",
"1090 0 LINE",
"1090 1160 LINE",
"722 1160 LINE",
"638 999 LINE",
"588 932 OFFCURVE",
"544 898 OFFCURVE",
"506 898 CURVE SMOOTH",
"487 898 OFFCURVE",
"478 915 OFFCURVE",
"478 950 CURVE SMOOTH",
"478 978 OFFCURVE",
"497 992 OFFCURVE",
"535 992 CURVE"
);
},
{
closed = 1;
nodes = (
"3002 704 LINE SMOOTH",
"3002 749 OFFCURVE",
"2969 790 OFFCURVE",
"2902 826 CURVE SMOOTH",
"2802 880 LINE",
"2802 932 LINE",
"3002 932 LINE",
"3002 1160 LINE",
"2712 1160 LINE SMOOTH",
"2560 1160 OFFCURVE",
"2484 1084 OFFCURVE",
"2484 932 CURVE SMOOTH",
"2484 827 LINE",
"2634 704 LINE",
"2634 323 LINE SMOOTH",
"2634 260 OFFCURVE",
"2585 228 OFFCURVE",
"2487 228 CURVE SMOOTH",
"2389 228 OFFCURVE",
"2340 260 OFFCURVE",
"2340 323 CURVE SMOOTH",
"2340 807 LINE SMOOTH",
"2340 1042 OFFCURVE",
"2168 1160 OFFCURVE",
"1825 1160 CURVE SMOOTH",
"1482 1160 OFFCURVE",
"1310 1042 OFFCURVE",
"1310 807 CURVE SMOOTH",
"1310 298 LINE SMOOTH",
"1310 99 OFFCURVE",
"1430 0 OFFCURVE",
"1670 0 CURVE SMOOTH",
"1800 0 LINE",
"1800 258 LINE",
"1730 258 LINE SMOOTH",
"1695 258 OFFCURVE",
"1678 271 OFFCURVE",
"1678 298 CURVE SMOOTH",
"1678 807 LINE SMOOTH",
"1678 890 OFFCURVE",
"1727 932 OFFCURVE",
"1825 932 CURVE SMOOTH",
"1923 932 OFFCURVE",
"1972 890 OFFCURVE",
"1972 807 CURVE SMOOTH",
"1972 323 LINE SMOOTH",
"1972 108 OFFCURVE",
"2144 0 OFFCURVE",
"2487 0 CURVE SMOOTH",
"2830 0 OFFCURVE",
"3002 108 OFFCURVE",
"3002 323 CURVE SMOOTH"
);
}
);
userData = {
assembly = "NPUSHB[ ]	/* 10 values pushed */\01278 71 70 32 11 5 4 1 1 76 \012MPPEM[ ]	/* MeasurePixelPerEm */\012PUSHB[ ]	/* 1 value pushed */\01217 \012LT[ ]	/* LessThan */\012IF[ ]	/* If */\012NPUSHB[ ]	/* 59 values pushed */\0127 1 1 10 1 4 14 1 4 105 21 6 20 3 0 0 2 95 18 16 11 8 5 5 2 2 17 77 19 1 13 13 2 95 18 16 11 8 5 5 2 2 17 77 17 1 14 14 3 97 15 12 9 3 3 3 19 3 78 \012ELSE[ ]	/* Else */\012NPUSHB[ ]	/* 71 values pushed */\0127 1 1 10 1 4 14 1 4 105 21 6 20 3 0 0 2 95 18 16 11 8 5 5 2 2 17 77 19 1 13 13 2 95 18 16 11 8 5 5 2 2 17 77 0 14 14 3 97 15 12 9 3 3 3 19 77 0 17 17 3 97 15 12 9 3 3 3 19 3 78 \012EIF[ ]	/* EndIf */\012NPUSHB[ ]	/* 51 values pushed */\01222 21 1 0 77 76 75 73 68 66 63 61 58 56 55 53 50 48 45 43 39 37 35 33 31 30 29 28 26 24 21 41 22 40 18 16 14 12 10 9 8 7 5 3 0 20 1 19 22 7 22 \012CALL[ ]	/* CallFunction */";
};
width = 4300;
}
);
note = uni17D8;
unicode = 17D8;
},
{
glyphname = uni17D9;
lastChange = "2020-01-28 18:11:56 +0000";
layers = (
{
layerId = "060F58F1-3EA2-4F98-A18F-48F5C294967E";
paths = (
{
closed = 1;
nodes = (
"1177 0 OFFCURVE",
"1390 193 OFFCURVE",
"1390 580 CURVE SMOOTH",
"1390 967 OFFCURVE",
"1177 1160 OFFCURVE",
"750 1160 CURVE SMOOTH",
"323 1160 OFFCURVE",
"110 967 OFFCURVE",
"110 580 CURVE SMOOTH",
"110 193 OFFCURVE",
"323 0 OFFCURVE",
"750 0 CURVE SMOOTH"
);
},
{
closed = 1;
nodes = (
"1025 1016 OFFCURVE",
"1163 871 OFFCURVE",
"1163 580 CURVE SMOOTH",
"1163 289 OFFCURVE",
"1025 144 OFFCURVE",
"750 144 CURVE SMOOTH",
"475 144 OFFCURVE",
"338 289 OFFCURVE",
"338 580 CURVE SMOOTH",
"338 871 OFFCURVE",
"475 1016 OFFCURVE",
"750 1016 CURVE SMOOTH"
);
},
{
closed = 1;
nodes = (
"980 205 OFFCURVE",
"1095 330 OFFCURVE",
"1095 580 CURVE SMOOTH",
"1095 830 OFFCURVE",
"980 955 OFFCURVE",
"750 955 CURVE SMOOTH",
"520 955 OFFCURVE",
"405 830 OFFCURVE",
"405 580 CURVE SMOOTH",
"405 330 OFFCURVE",
"520 205 OFFCURVE",
"750 205 CURVE SMOOTH"
);
},
{
closed = 1;
nodes = (
"829 811 OFFCURVE",
"868 734 OFFCURVE",
"868 580 CURVE SMOOTH",
"868 426 OFFCURVE",
"829 349 OFFCURVE",
"750 349 CURVE SMOOTH",
"672 349 OFFCURVE",
"633 426 OFFCURVE",
"633 580 CURVE SMOOTH",
"633 734 OFFCURVE",
"672 811 OFFCURVE",
"750 811 CURVE SMOOTH"
);
}
);
userData = {
assembly = "NPUSHB[ ]	/* 76 values pushed */\0120 5 11 1 6 7 5 6 105 0 7 10 1 4 3 7 4 105 9 1 2 2 1 97 0 1 1 17 77 0 3 3 0 97 8 1 0 0 19 0 78 31 30 21 20 11 10 1 0 35 33 30 39 31 37 25 23 20 29 21 27 15 13 10 19 11 17 5 3 0 9 1 7 12 7 22 \012CALL[ ]	/* CallFunction */";
};
width = 1500;
}
);
note = uni17D9;
unicode = 17D9;
},
{
glyphname = uni17DA;
lastChange = "2020-01-28 18:13:19 +0000";
layers = (
{
layerId = "060F58F1-3EA2-4F98-A18F-48F5C294967E";
paths = (
{
closed = 1;
nodes = (
"265 1160 OFFCURVE",
"110 1055 OFFCURVE",
"110 844 CURVE SMOOTH",
"110 316 LINE SMOOTH",
"110 105 OFFCURVE",
"265 0 OFFCURVE",
"575 0 CURVE",
"794 -40 OFFCURVE",
"1065 206 OFFCURVE",
"1388 739 CURVE",
"1701 106 LINE",
"1826 106 LINE",
"2013 554 LINE",
"2200 211 LINE",
"2326 211 LINE",
"2451 495 LINE",
"2669 495 LINE",
"2669 723 LINE",
"2389 723 LINE",
"2263 578 LINE",
"2075 945 LINE",
"1950 945 LINE",
"1764 466 LINE",
"1451 1051 LINE",
"1325 1051 LINE",
"950 460 OFFCURVE",
"701 164 OFFCURVE",
"578 164 CURVE SMOOTH",
"469 164 OFFCURVE",
"415 215 OFFCURVE",
"415 316 CURVE SMOOTH",
"415 844 LINE SMOOTH",
"415 943 OFFCURVE",
"469 993 OFFCURVE",
"578 993 CURVE SMOOTH",
"663 993 OFFCURVE",
"706 943 OFFCURVE",
"706 844 CURVE SMOOTH",
"706 794 OFFCURVE",
"684 769 OFFCURVE",
"641 769 CURVE",
"641 602 LINE",
"890 602 OFFCURVE",
"1014 682 OFFCURVE",
"1014 841 CURVE SMOOTH",
"1014 1054 OFFCURVE",
"868 1160 OFFCURVE",
"575 1160 CURVE SMOOTH"
);
}
);
userData = {
assembly = "NPUSHB[ ]	/* 116 values pushed */\01231 1 2 6 28 1 1 7 21 18 2 9 8 3 76 0 5 0 3 0 5 3 128 0 6 3 2 3 6 2 128 0 9 8 4 8 9 4 128 0 10 4 11 4 10 11 128 0 2 0 1 8 2 1 105 0 7 0 8 9 7 8 103 0 3 3 0 97 12 1 0 0 17 77 0 4 4 11 97 0 11 11 19 11 78 1 0 34 32 30 29 27 26 25 24 23 22 20 19 17 16 15 13 10 8 6 5 4 3 0 39 1 37 13 7 22 \012CALL[ ]	/* CallFunction */";
};
width = 2779;
}
);
note = uni17DA;
unicode = 17DA;
},
{
glyphname = uni17DB;
lastChange = "2020-01-28 18:14:24 +0000";
layers = (
{
layerId = "060F58F1-3EA2-4F98-A18F-48F5C294967E";
paths = (
{
closed = 1;
nodes = (
"528 654 LINE",
"528 704 LINE SMOOTH",
"528 749 OFFCURVE",
"495 790 OFFCURVE",
"428 826 CURVE SMOOTH",
"328 880 LINE",
"328 932 LINE",
"528 932 LINE",
"528 1160 LINE",
"238 1160 LINE SMOOTH",
"93 1160 OFFCURVE",
"20 1094 OFFCURVE",
"20 962 CURVE SMOOTH",
"20 827 LINE",
"160 704 LINE",
"160 654 LINE",
"40 654 LINE",
"40 426 LINE",
"160 426 LINE",
"160 298 LINE SMOOTH",
"160 271 OFFCURVE",
"143 258 OFFCURVE",
"108 258 CURVE SMOOTH",
"20 258 LINE",
"20 0 LINE",
"198 0 LINE SMOOTH",
"418 0 OFFCURVE",
"528 99 OFFCURVE",
"528 298 CURVE SMOOTH",
"528 426 LINE",
"600 426 LINE",
"600 654 LINE"
);
}
);
userData = {
assembly = "NPUSHB[ ]	/* 50 values pushed */\0129 2 1 3 2 1 1 76 7 1 2 6 1 3 5 2 3 103 0 1 1 0 95 0 0 0 17 77 0 5 5 4 97 0 4 4 19 4 78 17 18 33 34 17 21 17 36 8 7 30 \012CALL[ ]	/* CallFunction */";
};
width = 638;
}
);
note = uni17DB;
unicode = 17DB;
},
{
glyphname = uni17E0;
lastChange = "2020-01-28 18:15:15 +0000";
layers = (
{
layerId = "060F58F1-3EA2-4F98-A18F-48F5C294967E";
paths = (
{
closed = 1;
nodes = (
"110 380 LINE SMOOTH",
"110 127 OFFCURVE",
"290 0 OFFCURVE",
"650 0 CURVE SMOOTH",
"1010 0 OFFCURVE",
"1190 127 OFFCURVE",
"1190 380 CURVE SMOOTH",
"1190 780 LINE SMOOTH",
"1190 1033 OFFCURVE",
"1010 1160 OFFCURVE",
"650 1160 CURVE SMOOTH",
"290 1160 OFFCURVE",
"110 1033 OFFCURVE",
"110 780 CURVE SMOOTH"
);
},
{
closed = 1;
nodes = (
"478 780 LINE SMOOTH",
"478 881 OFFCURVE",
"535 932 OFFCURVE",
"650 932 CURVE SMOOTH",
"765 932 OFFCURVE",
"822 881 OFFCURVE",
"822 780 CURVE SMOOTH",
"822 380 LINE SMOOTH",
"822 279 OFFCURVE",
"765 228 OFFCURVE",
"650 228 CURVE SMOOTH",
"535 228 OFFCURVE",
"478 279 OFFCURVE",
"478 380 CURVE SMOOTH"
);
}
);
userData = {
assembly = "NPUSHB[ ]	/* 28 values pushed */\0120 1 1 2 97 0 2 2 17 77 0 0 0 3 97 0 3 3 19 3 78 35 37 35 33 4 7 26 \012CALL[ ]	/* CallFunction */";
};
width = 1300;
}
);
note = uni17E0;
unicode = 17E0;
},
{
glyphname = uni17E1;
lastChange = "2020-01-28 18:16:11 +0000";
layers = (
{
layerId = "060F58F1-3EA2-4F98-A18F-48F5C294967E";
paths = (
{
closed = 1;
nodes = (
"822 320 LINE SMOOTH",
"822 259 OFFCURVE",
"765 228 OFFCURVE",
"650 228 CURVE SMOOTH",
"535 228 OFFCURVE",
"478 259 OFFCURVE",
"478 320 CURVE",
"110 320 LINE",
"110 107 OFFCURVE",
"290 0 OFFCURVE",
"650 0 CURVE SMOOTH",
"1010 0 OFFCURVE",
"1190 107 OFFCURVE",
"1190 320 CURVE SMOOTH",
"1190 840 LINE SMOOTH",
"1190 1053 OFFCURVE",
"1010 1160 OFFCURVE",
"650 1160 CURVE SMOOTH",
"290 1160 OFFCURVE",
"110 1053 OFFCURVE",
"110 840 CURVE SMOOTH",
"110 750 LINE SMOOTH",
"110 550 OFFCURVE",
"245 450 OFFCURVE",
"515 450 CURVE SMOOTH",
"650 450 LINE",
"650 700 LINE",
"575 700 LINE SMOOTH",
"510 700 OFFCURVE",
"478 717 OFFCURVE",
"478 750 CURVE SMOOTH",
"478 840 LINE SMOOTH",
"478 901 OFFCURVE",
"535 932 OFFCURVE",
"650 932 CURVE SMOOTH",
"765 932 OFFCURVE",
"822 901 OFFCURVE",
"822 840 CURVE SMOOTH"
);
}
);
userData = {
assembly = "MPPEM[ ]	/* MeasurePixelPerEm */\012PUSHB[ ]	/* 1 value pushed */\01221 \012LT[ ]	/* LessThan */\012IF[ ]	/* If */\012NPUSHB[ ]	/* 36 values pushed */\0120 5 2 6 6 5 114 0 1 0 2 5 1 2 105 0 0 0 3 97 0 3 3 17 77 0 6 6 4 98 0 4 4 19 4 78 \012ELSE[ ]	/* Else */\012NPUSHB[ ]	/* 37 values pushed */\0120 5 2 6 2 5 6 128 0 1 0 2 5 1 2 105 0 0 0 3 97 0 3 3 17 77 0 6 6 4 98 0 4 4 19 4 78 \012EIF[ ]	/* EndIf */\012NPUSHB[ ]	/* 10 values pushed */\01233 17 35 35 33 35 33 7 7 29 \012CALL[ ]	/* CallFunction */";
};
width = 1300;
}
);
note = uni17E1;
unicode = 17E1;
},
{
glyphname = uni17E2;
lastChange = "2020-01-28 18:17:03 +0000";
layers = (
{
layerId = "060F58F1-3EA2-4F98-A18F-48F5C294967E";
paths = (
{
closed = 1;
nodes = (
"110 1140 LINE",
"110 400 LINE SMOOTH",
"110 133 OFFCURVE",
"330 0 OFFCURVE",
"769 0 CURVE SMOOTH",
"1208 0 OFFCURVE",
"1428 133 OFFCURVE",
"1428 400 CURVE SMOOTH",
"1428 1160 LINE",
"1081 1160 LINE",
"971 1046 LINE",
"840 1160 LINE",
"543 1160 LINE",
"543 500 LINE",
"924 500 LINE",
"924 740 LINE",
"840 740 LINE",
"840 902 LINE",
"971 788 LINE",
"1081 902 LINE",
"1081 400 LINE SMOOTH",
"1081 285 OFFCURVE",
"977 228 OFFCURVE",
"769 228 CURVE SMOOTH",
"561 228 OFFCURVE",
"457 285 OFFCURVE",
"457 400 CURVE SMOOTH",
"457 1230 LINE SMOOTH",
"457 1330 OFFCURVE",
"371 1380 OFFCURVE",
"200 1380 CURVE SMOOTH",
"40 1380 LINE",
"40 1140 LINE"
);
}
);
userData = {
assembly = "NPUSHB[ ]	/* 66 values pushed */\01220 13 12 11 4 3 5 1 76 0 1 8 1 0 5 1 0 103 0 3 0 4 2 3 4 104 6 1 5 5 17 77 0 2 2 7 97 0 7 7 19 7 78 1 0 26 24 22 21 19 18 17 16 15 14 9 7 4 2 0 29 1 28 9 7 22 \012CALL[ ]	/* CallFunction */";
};
width = 1538;
}
);
note = uni17E2;
unicode = 17E2;
},
{
glyphname = uni17E3;
lastChange = "2020-01-28 18:17:48 +0000";
layers = (
{
layerId = "060F58F1-3EA2-4F98-A18F-48F5C294967E";
paths = (
{
closed = 1;
nodes = (
"110 298 LINE SMOOTH",
"110 99 OFFCURVE",
"250 0 OFFCURVE",
"530 0 CURVE SMOOTH",
"570 0 LINE",
"570 258 LINE",
"530 258 LINE SMOOTH",
"495 258 OFFCURVE",
"478 271 OFFCURVE",
"478 298 CURVE SMOOTH",
"478 770 LINE SMOOTH",
"478 878 OFFCURVE",
"515 932 OFFCURVE",
"588 932 CURVE SMOOTH",
"661 932 OFFCURVE",
"698 878 OFFCURVE",
"698 770 CURVE SMOOTH",
"698 0 LINE",
"1066 0 LINE",
"1066 770 LINE SMOOTH",
"1066 878 OFFCURVE",
"1103 932 OFFCURVE",
"1176 932 CURVE SMOOTH",
"1249 932 OFFCURVE",
"1286 878 OFFCURVE",
"1286 770 CURVE SMOOTH",
"1286 0 LINE",
"1654 0 LINE",
"1654 770 LINE SMOOTH",
"1654 1030 OFFCURVE",
"1495 1160 OFFCURVE",
"1176 1160 CURVE SMOOTH",
"1042 1160 OFFCURVE",
"944 1130 OFFCURVE",
"881 1071 CURVE",
"818 1130 OFFCURVE",
"721 1160 OFFCURVE",
"588 1160 CURVE SMOOTH",
"269 1160 OFFCURVE",
"110 1033 OFFCURVE",
"110 780 CURVE SMOOTH"
);
}
);
userData = {
assembly = "NPUSHB[ ]	/* 42 values pushed */\0124 1 3 0 1 76 5 1 3 3 0 97 1 1 0 0 17 77 0 6 6 2 95 7 4 2 2 2 19 2 78 33 35 34 18 34 18 34 33 8 7 30 \012CALL[ ]	/* CallFunction */";
};
width = 1764;
}
);
note = uni17E3;
unicode = 17E3;
},
{
glyphname = uni17E4;
lastChange = "2020-01-28 18:18:43 +0000";
layers = (
{
layerId = "060F58F1-3EA2-4F98-A18F-48F5C294967E";
paths = (
{
closed = 1;
nodes = (
"478 1240 LINE SMOOTH",
"478 1340 OFFCURVE",
"385 1390 OFFCURVE",
"200 1390 CURVE SMOOTH",
"30 1390 LINE",
"30 1200 LINE",
"110 1200 LINE",
"110 400 LINE SMOOTH",
"110 133 OFFCURVE",
"290 0 OFFCURVE",
"650 0 CURVE SMOOTH",
"1140 0 LINE",
"1190 228 LINE",
"1049 368 OFFCURVE",
"978 465 OFFCURVE",
"978 519 CURVE SMOOTH",
"978 740 LINE",
"1190 740 LINE",
"1190 968 LINE",
"840 968 LINE SMOOTH",
"687 968 OFFCURVE",
"610 892 OFFCURVE",
"610 740 CURVE SMOOTH",
"610 519 LINE SMOOTH",
"610 432 OFFCURVE",
"707 335 OFFCURVE",
"900 228 CURVE",
"650 228 LINE SMOOTH",
"535 228 OFFCURVE",
"478 285 OFFCURVE",
"478 400 CURVE SMOOTH"
);
}
);
userData = {
assembly = "NPUSHB[ ]	/* 41 values pushed */\01214 1 0 1 75 0 5 0 4 1 5 4 103 0 1 0 2 0 1 2 103 0 0 0 3 95 0 3 3 19 3 78 33 18 36 17 36 33 6 7 28 \012CALL[ ]	/* CallFunction */";
};
width = 1300;
}
);
note = uni17E4;
unicode = 17E4;
},
{
glyphname = uni17E5;
lastChange = "2020-01-28 18:19:53 +0000";
layers = (
{
layerId = "060F58F1-3EA2-4F98-A18F-48F5C294967E";
paths = (
{
closed = 1;
nodes = (
"478 820 LINE SMOOTH",
"478 853 OFFCURVE",
"486 891 OFFCURVE",
"502 934 CURVE",
"577 875 OFFCURVE",
"666 845 OFFCURVE",
"770 845 CURVE SMOOTH",
"1050 845 OFFCURVE",
"1190 943 OFFCURVE",
"1190 1139 CURVE SMOOTH",
"1190 1500 LINE",
"822 1500 LINE",
"822 1139 LINE SMOOTH",
"822 1075 OFFCURVE",
"805 1043 OFFCURVE",
"770 1043 CURVE SMOOTH",
"721 1043 OFFCURVE",
"679 1053 OFFCURVE",
"645 1073 CURVE",
"682 1094 OFFCURVE",
"700 1121 OFFCURVE",
"700 1156 CURVE SMOOTH",
"700 1272 OFFCURVE",
"627 1330 OFFCURVE",
"480 1330 CURVE SMOOTH",
"327 1330 OFFCURVE",
"250 1272 OFFCURVE",
"250 1156 CURVE SMOOTH",
"250 1115 OFFCURVE",
"273 1075 OFFCURVE",
"318 1037 CURVE",
"304 1032 OFFCURVE",
"290 1027 OFFCURVE",
"275 1020 CURVE",
"172 985 OFFCURVE",
"117 918 OFFCURVE",
"110 820 CURVE",
"110 330 LINE SMOOTH",
"110 110 OFFCURVE",
"290 0 OFFCURVE",
"650 0 CURVE SMOOTH",
"1138 0 LINE",
"1190 198 LINE",
"1069 278 OFFCURVE",
"1008 345 OFFCURVE",
"1008 400 CURVE SMOOTH",
"1008 502 LINE",
"1190 502 LINE",
"1190 730 LINE",
"888 730 LINE SMOOTH",
"723 730 OFFCURVE",
"640 664 OFFCURVE",
"640 532 CURVE SMOOTH",
"640 400 LINE SMOOTH",
"640 345 OFFCURVE",
"717 288 OFFCURVE",
"870 228 CURVE",
"650 228 LINE SMOOTH",
"535 228 OFFCURVE",
"478 262 OFFCURVE",
"478 330 CURVE SMOOTH"
);
}
);
userData = {
assembly = "NPUSHB[ ]	/* 16 values pushed */\01231 1 5 4 42 23 2 7 5 2 76 14 1 0 1 75 \012MPPEM[ ]	/* MeasurePixelPerEm */\012PUSHB[ ]	/* 1 value pushed */\01210 \012LT[ ]	/* LessThan */\012IF[ ]	/* If */\012NPUSHB[ ]	/* 38 values pushed */\0120 6 4 6 133 0 4 5 5 4 112 0 5 0 7 1 5 7 106 0 1 0 2 0 1 2 103 0 0 0 3 95 0 3 3 19 3 78 \012ELSE[ ]	/* Else */\012NPUSHB[ ]	/* 37 values pushed */\0120 6 4 6 133 0 4 5 4 133 0 5 0 7 1 5 7 106 0 1 0 2 0 1 2 103 0 0 0 3 95 0 3 3 19 3 78 \012EIF[ ]	/* EndIf */\012NPUSHB[ ]	/* 11 values pushed */\01234 18 36 41 36 17 36 33 8 7 30 \012CALL[ ]	/* CallFunction */";
};
width = 1300;
}
);
note = uni17E5;
unicode = 17E5;
},
{
glyphname = uni17E6;
lastChange = "2020-01-28 18:20:31 +0000";
layers = (
{
layerId = "060F58F1-3EA2-4F98-A18F-48F5C294967E";
paths = (
{
closed = 1;
nodes = (
"110 1480 LINE",
"110 790 LINE",
"478 790 LINE",
"478 885 OFFCURVE",
"535 932 OFFCURVE",
"650 932 CURVE SMOOTH",
"765 932 OFFCURVE",
"822 865 OFFCURVE",
"822 730 CURVE SMOOTH",
"822 400 LINE SMOOTH",
"822 285 OFFCURVE",
"765 228 OFFCURVE",
"650 228 CURVE SMOOTH",
"535 228 OFFCURVE",
"478 264 OFFCURVE",
"478 335 CURVE SMOOTH",
"478 406 OFFCURVE",
"522 442 OFFCURVE",
"610 442 CURVE SMOOTH",
"700 442 LINE",
"700 670 LINE",
"550 670 LINE SMOOTH",
"257 670 OFFCURVE",
"110 558 OFFCURVE",
"110 335 CURVE SMOOTH",
"110 112 OFFCURVE",
"290 0 OFFCURVE",
"650 0 CURVE SMOOTH",
"1010 0 OFFCURVE",
"1190 133 OFFCURVE",
"1190 400 CURVE SMOOTH",
"1190 730 LINE SMOOTH",
"1190 1017 OFFCURVE",
"1023 1160 OFFCURVE",
"690 1160 CURVE SMOOTH",
"621 1160 OFFCURVE",
"550 1142 OFFCURVE",
"478 1106 CURVE",
"478 1480 LINE"
);
}
);
userData = {
assembly = "NPUSHB[ ]	/* 67 values pushed */\0122 1 6 1 1 76 8 1 0 0 7 3 0 7 103 0 3 0 4 5 3 4 105 0 6 6 1 97 0 1 1 17 77 0 5 5 2 97 0 2 2 19 2 78 1 0 28 27 26 24 21 19 17 15 14 12 10 8 5 3 0 30 1 29 9 7 22 \012CALL[ ]	/* CallFunction */";
};
width = 1300;
}
);
note = uni17E6;
unicode = 17E6;
},
{
glyphname = uni17E7;
lastChange = "2020-01-28 18:21:41 +0000";
layers = (
{
layerId = "060F58F1-3EA2-4F98-A18F-48F5C294967E";
paths = (
{
closed = 1;
nodes = (
"1086 833 LINE SMOOTH",
"1086 1051 OFFCURVE",
"991 1160 OFFCURVE",
"802 1160 CURVE SMOOTH",
"733 1160 OFFCURVE",
"665 1119 OFFCURVE",
"598 1036 CURVE",
"531 1119 OFFCURVE",
"464 1160 OFFCURVE",
"396 1160 CURVE SMOOTH",
"205 1160 OFFCURVE",
"110 1051 OFFCURVE",
"110 833 CURVE SMOOTH",
"110 298 LINE SMOOTH",
"110 99 OFFCURVE",
"219 0 OFFCURVE",
"436 0 CURVE SMOOTH",
"553 0 LINE",
"553 258 LINE",
"490 258 LINE SMOOTH",
"461 258 OFFCURVE",
"447 271 OFFCURVE",
"447 298 CURVE SMOOTH",
"447 833 LINE SMOOTH",
"447 878 OFFCURVE",
"451 900 OFFCURVE",
"460 900 CURVE SMOOTH",
"468 900 OFFCURVE",
"496 869 OFFCURVE",
"545 806 CURVE SMOOTH",
"561 785 OFFCURVE",
"579 775 OFFCURVE",
"598 775 CURVE SMOOTH",
"617 775 OFFCURVE",
"635 785 OFFCURVE",
"651 806 CURVE SMOOTH",
"700 869 OFFCURVE",
"729 900 OFFCURVE",
"737 900 CURVE SMOOTH",
"745 900 OFFCURVE",
"749 878 OFFCURVE",
"749 833 CURVE SMOOTH",
"749 260 LINE SMOOTH",
"749 87 OFFCURVE",
"873 0 OFFCURVE",
"1120 0 CURVE SMOOTH",
"1367 0 OFFCURVE",
"1490 87 OFFCURVE",
"1490 260 CURVE SMOOTH",
"1490 1430 LINE",
"1183 1430 LINE",
"1183 260 LINE SMOOTH",
"1183 239 OFFCURVE",
"1162 228 OFFCURVE",
"1120 228 CURVE SMOOTH",
"1097 228 OFFCURVE",
"1086 239 OFFCURVE",
"1086 260 CURVE SMOOTH"
);
}
);
userData = {
assembly = "PUSHB[ ]	/* 6 values pushed */\01237 1 3 8 1 76 \012MPPEM[ ]	/* MeasurePixelPerEm */\012PUSHB[ ]	/* 1 value pushed */\01217 \012LT[ ]	/* LessThan */\012IF[ ]	/* If */\012NPUSHB[ ]	/* 38 values pushed */\0120 1 8 1 133 0 4 3 0 3 4 0 128 5 1 3 3 8 97 9 1 8 8 17 77 6 1 0 0 2 98 7 1 2 2 19 2 78 \012ELSE[ ]	/* Else */\012NPUSHB[ ]	/* 48 values pushed */\0120 1 8 1 133 0 4 3 6 3 4 6 128 5 1 3 3 8 97 9 1 8 8 17 77 0 6 6 2 97 7 1 2 2 19 77 0 0 0 2 98 7 1 2 2 19 2 78 \012EIF[ ]	/* EndIf */\012NPUSHB[ ]	/* 14 values pushed */\01240 38 35 33 35 34 34 35 34 18 33 10 7 31 \012CALL[ ]	/* CallFunction */";
};
width = 1600;
}
);
note = uni17E7;
unicode = 17E7;
},
{
glyphname = uni17E8;
lastChange = "2020-01-28 18:22:34 +0000";
layers = (
{
layerId = "060F58F1-3EA2-4F98-A18F-48F5C294967E";
paths = (
{
closed = 1;
nodes = (
"110 0 LINE",
"509 0 LINE",
"651 120 LINE",
"792 0 LINE",
"1190 0 LINE",
"1190 410 LINE SMOOTH",
"1190 603 OFFCURVE",
"1080 700 OFFCURVE",
"860 700 CURVE SMOOTH",
"680 700 LINE",
"680 490 LINE",
"770 490 LINE SMOOTH",
"805 490 OFFCURVE",
"822 463 OFFCURVE",
"822 410 CURVE SMOOTH",
"822 257 LINE",
"651 405 LINE",
"478 256 LINE",
"478 810 LINE SMOOTH",
"478 891 OFFCURVE",
"535 932 OFFCURVE",
"650 932 CURVE SMOOTH",
"765 932 OFFCURVE",
"822 891 OFFCURVE",
"822 810 CURVE",
"1190 810 LINE",
"1190 1480 LINE",
"822 1480 LINE",
"822 1106 LINE",
"757 1142 OFFCURVE",
"686 1160 OFFCURVE",
"610 1160 CURVE SMOOTH",
"277 1160 OFFCURVE",
"110 1043 OFFCURVE",
"110 810 CURVE SMOOTH"
);
}
);
userData = {
assembly = "NPUSHB[ ]	/* 57 values pushed */\0124 1 3 0 26 15 14 13 4 6 4 2 76 0 1 0 2 5 1 2 103 0 5 0 4 6 5 4 105 0 3 3 0 97 0 0 0 17 77 7 1 6 6 19 6 78 18 18 33 38 33 17 18 33 8 7 30 \012CALL[ ]	/* CallFunction */";
};
width = 1300;
}
);
note = uni17E8;
unicode = 17E8;
},
{
glyphname = uni17E9;
lastChange = "2020-01-28 18:23:42 +0000";
layers = (
{
layerId = "060F58F1-3EA2-4F98-A18F-48F5C294967E";
paths = (
{
closed = 1;
nodes = (
"822 1440 LINE",
"822 1122 LINE",
"737 1147 OFFCURVE",
"669 1160 OFFCURVE",
"620 1160 CURVE SMOOTH",
"280 1160 OFFCURVE",
"110 1061 OFFCURVE",
"110 862 CURVE",
"116 767 OFFCURVE",
"182 704 OFFCURVE",
"308 675 CURVE",
"182 646 OFFCURVE",
"116 583 OFFCURVE",
"110 486 CURVE",
"110 290 LINE SMOOTH",
"110 97 OFFCURVE",
"290 0 OFFCURVE",
"650 0 CURVE SMOOTH",
"1010 0 OFFCURVE",
"1190 84 OFFCURVE",
"1190 253 CURVE SMOOTH",
"1190 422 OFFCURVE",
"1063 506 OFFCURVE",
"810 506 CURVE SMOOTH",
"650 506 LINE",
"650 298 LINE",
"750 298 LINE SMOOTH",
"798 298 OFFCURVE",
"822 285 OFFCURVE",
"822 258 CURVE SMOOTH",
"822 238 OFFCURVE",
"765 228 OFFCURVE",
"650 228 CURVE SMOOTH",
"535 228 OFFCURVE",
"478 249 OFFCURVE",
"478 290 CURVE SMOOTH",
"478 486 LINE SMOOTH",
"478 543 OFFCURVE",
"535 572 OFFCURVE",
"650 572 CURVE SMOOTH",
"950 572 LINE",
"950 790 LINE",
"650 790 LINE SMOOTH",
"535 790 OFFCURVE",
"478 814 OFFCURVE",
"478 862 CURVE SMOOTH",
"478 909 OFFCURVE",
"535 932 OFFCURVE",
"650 932 CURVE SMOOTH",
"765 932 OFFCURVE",
"822 912 OFFCURVE",
"822 872 CURVE",
"1190 872 LINE",
"1190 1440 LINE"
);
}
);
userData = {
assembly = "NPUSHB[ ]	/* 92 values pushed */\01239 1 2 9 35 1 3 1 33 1 4 3 3 76 31 1 7 1 75 10 1 0 0 1 3 0 1 103 0 3 0 4 7 3 4 103 0 7 0 6 5 7 6 105 0 2 2 9 97 0 9 9 17 77 0 5 5 8 97 0 8 8 19 8 78 1 0 38 36 29 27 25 23 22 20 18 16 13 11 10 8 6 4 3 2 0 41 1 40 11 7 22 \012CALL[ ]	/* CallFunction */";
};
width = 1300;
}
);
note = uni17E9;
unicode = 17E9;
},
{
glyphname = uni17D21780;
lastChange = "2020-01-28 18:27:34 +0000";
layers = (
{
layerId = "060F58F1-3EA2-4F98-A18F-48F5C294967E";
paths = (
{
closed = 1;
nodes = (
"-1170 -480 LINE",
"-822 -480 LINE",
"-822 -271 LINE SMOOTH",
"-822 -238 OFFCURVE",
"-765 -222 OFFCURVE",
"-650 -222 CURVE SMOOTH",
"-535 -222 OFFCURVE",
"-478 -238 OFFCURVE",
"-478 -271 CURVE SMOOTH",
"-478 -480 LINE",
"-130 -480 LINE",
"-130 -271 LINE SMOOTH",
"-130 -124 OFFCURVE",
"-303 -50 OFFCURVE",
"-650 -50 CURVE SMOOTH",
"-997 -50 OFFCURVE",
"-1170 -124 OFFCURVE",
"-1170 -271 CURVE SMOOTH"
);
}
);
userData = {
assembly = "MPPEM[ ]	/* MeasurePixelPerEm */\012PUSHB[ ]	/* 1 value pushed */\01221 \012LT[ ]	/* LessThan */\012IF[ ]	/* If */\012NPUSHB[ ]	/* 15 values pushed */\0120 0 0 2 1 0 2 105 3 1 1 1 20 1 78 \012ELSE[ ]	/* Else */\012NPUSHB[ ]	/* 17 values pushed */\0120 2 2 0 97 0 0 0 18 77 3 1 1 1 20 1 78 \012EIF[ ]	/* EndIf */\012PUSHB[ ]	/* 7 values pushed */\01218 34 18 33 4 7 26 \012CALL[ ]	/* CallFunction */";
};
width = 0;
}
);
note = uni17D21780;
},
